{
DisplayStrings = (
1,
2,
3,
4,
5,
6,
7,
8,
9,
"\U00BD",
"\U00BC",
"\U00BE",
e,
"\U00E9",
"\U00EA",
"\U00EB",
"\U00E8",
f,
/f_f_i,
/f_f_l,
/fi,
/fl,
0
);
copyright = "Copyright (c) 2014 by Steven Ng with Reserved Font Name \"Aitu\". Licensed under the SIL Open Font License, Version 1.1. ";
customParameters = (
{
name = vendorID;
value = tyPL;
}
);
date = "2014-08-18 18:15:56 +0000";
designer = "Steven Ng";
designerURL = "http://www.assignittous.com";
familyName = "Aitu";
featurePrefixes = (
{
automatic = 1;
code = "languagesystem DFLT dflt;\012languagesystem latn dflt;\012languagesystem math dflt;\012";
name = Languagesystems;
}
);
features = (
{
automatic = 1;
code = "feature frac;\012";
name = aalt;
},
{
automatic = 1;
code = "sub one slash four by onequarter;\012sub one slash two by onehalf;\012sub three slash four by threequarters;\012";
name = frac;
},
{
automatic = 1;
code = "sub f f i by f_f_i;\012sub f f l by f_f_l;\012sub f i by fi;\012sub f l by fl;\012";
name = liga;
}
);
fontMaster = (
{
alignmentZones = (
"{1445, 62}",
"{1026, 16}",
"{0, -16}",
"{-335, -9}"
);
ascender = 1610;
capHeight = 1446;
customParameters = (
{
name = typoAscender;
value = 1610;
},
{
name = typoDescender;
value = "-390";
},
{
name = typoLineGap;
value = 400;
},
{
name = underlinePosition;
value = "-6";
}
);
descender = "-390";
id = "C25503A3-518C-4CE5-B03D-46F600126290";
weight = Bold;
weightValue = 700;
widthValue = 5;
xHeight = 1026;
}
);
glyphs = (
{
glyphname = A;
layers = (
{
layerId = "C25503A3-518C-4CE5-B03D-46F600126290";
name = Bold;
paths = (
{
closed = 1;
nodes = (
"1400 0 LINE",
"832 1446 LINE",
"558 1446 LINE",
"-11 0 LINE",
"199 0 LINE SMOOTH",
"221.667 0 OFFCURVE",
"240.667 6.33333 OFFCURVE",
"256 19 CURVE SMOOTH",
"271.333 31.6667 OFFCURVE",
"281.667 45.6667 OFFCURVE",
"287 61 CURVE SMOOTH",
"395 356 LINE",
"994 356 LINE",
"1102 61 LINE",
"1109.33 43.6667 OFFCURVE",
"1120.33 29.1667 OFFCURVE",
"1135 17.5 CURVE SMOOTH",
"1149.67 5.83333 OFFCURVE",
"1168.67 0 OFFCURVE",
"1192 0 CURVE SMOOTH"
);
},
{
closed = 1;
nodes = (
"464 546 LINE",
"640 1025 LINE SMOOTH",
"648.667 1047 OFFCURVE",
"657.5 1072.67 OFFCURVE",
"666.5 1102 CURVE SMOOTH",
"675.5 1131.33 OFFCURVE",
"684.667 1163 OFFCURVE",
"694 1197 CURVE",
"703.333 1163 OFFCURVE",
"712.667 1131.5 OFFCURVE",
"722 1102.5 CURVE SMOOTH",
"731.333 1073.5 OFFCURVE",
"740.333 1048.33 OFFCURVE",
"749 1027 CURVE",
"925 546 LINE"
);
}
);
width = 1389;
}
);
leftKerningGroup = A;
rightKerningGroup = A;
unicode = 0041;
},
{
glyphname = Aacute;
layers = (
{
layerId = "C25503A3-518C-4CE5-B03D-46F600126290";
name = Bold;
paths = (
{
closed = 1;
nodes = (
"0 0 LINE"
);
},
{
closed = 1;
nodes = (
"1400 0 LINE",
"832 1446 LINE",
"558 1446 LINE",
"-11 0 LINE",
"199 0 LINE SMOOTH",
"221.667 0 OFFCURVE",
"240.667 6.33333 OFFCURVE",
"256 19 CURVE SMOOTH",
"271.333 31.6667 OFFCURVE",
"281.667 45.6667 OFFCURVE",
"287 61 CURVE SMOOTH",
"395 356 LINE",
"994 356 LINE",
"1102 61 LINE",
"1109.33 43.6667 OFFCURVE",
"1120.33 29.1667 OFFCURVE",
"1135 17.5 CURVE SMOOTH",
"1149.67 5.83333 OFFCURVE",
"1168.67 0 OFFCURVE",
"1192 0 CURVE SMOOTH"
);
},
{
closed = 1;
nodes = (
"464 546 LINE",
"640 1025 LINE SMOOTH",
"648.667 1047 OFFCURVE",
"657.5 1072.67 OFFCURVE",
"666.5 1102 CURVE SMOOTH",
"675.5 1131.33 OFFCURVE",
"684.667 1163 OFFCURVE",
"694 1197 CURVE",
"703.333 1163 OFFCURVE",
"712.667 1131.5 OFFCURVE",
"722 1102.5 CURVE SMOOTH",
"731.333 1073.5 OFFCURVE",
"740.333 1048.33 OFFCURVE",
"749 1027 CURVE",
"925 546 LINE"
);
},
{
closed = 1;
nodes = (
"1114 1861 LINE",
"839 1861 LINE SMOOTH",
"825.667 1861 OFFCURVE",
"814.167 1860.67 OFFCURVE",
"804.5 1860 CURVE SMOOTH",
"794.833 1859.33 OFFCURVE",
"786 1857.67 OFFCURVE",
"778 1855 CURVE SMOOTH",
"770 1852.33 OFFCURVE",
"762.667 1848.17 OFFCURVE",
"756 1842.5 CURVE SMOOTH",
"749.333 1836.83 OFFCURVE",
"742.667 1829.33 OFFCURVE",
"736 1820 CURVE",
"527 1549 LINE",
"706 1549 LINE SMOOTH",
"724.667 1549 OFFCURVE",
"740 1550.33 OFFCURVE",
"752 1553 CURVE SMOOTH",
"764 1555.67 OFFCURVE",
"776.667 1563 OFFCURVE",
"790 1575 CURVE SMOOTH"
);
}
);
width = 1389;
}
);
leftKerningGroup = A;
rightKerningGroup = A;
unicode = 00C1;
},
{
glyphname = Acircumflex;
layers = (
{
layerId = "C25503A3-518C-4CE5-B03D-46F600126290";
name = Bold;
paths = (
{
closed = 1;
nodes = (
"0 0 LINE"
);
},
{
closed = 1;
nodes = (
"1400 0 LINE",
"832 1446 LINE",
"558 1446 LINE",
"-11 0 LINE",
"199 0 LINE SMOOTH",
"221.667 0 OFFCURVE",
"240.667 6.33333 OFFCURVE",
"256 19 CURVE SMOOTH",
"271.333 31.6667 OFFCURVE",
"281.667 45.6667 OFFCURVE",
"287 61 CURVE SMOOTH",
"395 356 LINE",
"994 356 LINE",
"1102 61 LINE",
"1109.33 43.6667 OFFCURVE",
"1120.33 29.1667 OFFCURVE",
"1135 17.5 CURVE SMOOTH",
"1149.67 5.83333 OFFCURVE",
"1168.67 0 OFFCURVE",
"1192 0 CURVE SMOOTH"
);
},
{
closed = 1;
nodes = (
"464 546 LINE",
"640 1025 LINE SMOOTH",
"648.667 1047 OFFCURVE",
"657.5 1072.67 OFFCURVE",
"666.5 1102 CURVE SMOOTH",
"675.5 1131.33 OFFCURVE",
"684.667 1163 OFFCURVE",
"694 1197 CURVE",
"703.333 1163 OFFCURVE",
"712.667 1131.5 OFFCURVE",
"722 1102.5 CURVE SMOOTH",
"731.333 1073.5 OFFCURVE",
"740.333 1048.33 OFFCURVE",
"749 1027 CURVE",
"925 546 LINE"
);
},
{
closed = 1;
nodes = (
"1051 1549 LINE",
"810 1824 LINE",
"586 1824 LINE",
"345 1549 LINE",
"516 1549 LINE SMOOTH",
"526 1549 OFFCURVE",
"538.167 1550.83 OFFCURVE",
"552.5 1554.5 CURVE SMOOTH",
"566.833 1558.17 OFFCURVE",
"581.667 1569 OFFCURVE",
"597 1587 CURVE",
"679 1693 LINE",
"694 1715 LINE",
"696 1711.67 OFFCURVE",
"698.167 1708 OFFCURVE",
"700.5 1704 CURVE SMOOTH",
"702.833 1700 OFFCURVE",
"705.667 1696.33 OFFCURVE",
"709 1693 CURVE",
"791 1587 LINE",
"806.333 1569 OFFCURVE",
"821.167 1558.17 OFFCURVE",
"835.5 1554.5 CURVE SMOOTH",
"849.833 1550.83 OFFCURVE",
"862 1549 OFFCURVE",
"872 1549 CURVE SMOOTH"
);
}
);
width = 1389;
}
);
leftKerningGroup = A;
rightKerningGroup = A;
unicode = 00C2;
},
{
glyphname = Adieresis;
lastChange = "2014-08-18 19:53:50 -0500";
layers = (
{
layerId = "C25503A3-518C-4CE5-B03D-46F600126290";
name = Bold;
paths = (
{
closed = 1;
nodes = (
"0 0 LINE"
);
},
{
closed = 1;
nodes = (
"1400 0 LINE",
"832 1446 LINE",
"558 1446 LINE",
"-11 0 LINE",
"199 0 LINE SMOOTH",
"221.667 0 OFFCURVE",
"240.667 6.333 OFFCURVE",
"256 19 CURVE SMOOTH",
"271.333 31.667 OFFCURVE",
"281.667 45.667 OFFCURVE",
"287 61 CURVE SMOOTH",
"395 356 LINE",
"994 356 LINE",
"1102 61 LINE",
"1109.33 43.667 OFFCURVE",
"1120.33 29.167 OFFCURVE",
"1135 17.5 CURVE SMOOTH",
"1149.67 5.833 OFFCURVE",
"1168.67 0 OFFCURVE",
"1192 0 CURVE SMOOTH"
);
},
{
closed = 1;
nodes = (
"464 546 LINE",
"640 1025 LINE SMOOTH",
"648.667 1047 OFFCURVE",
"657.5 1072.67 OFFCURVE",
"666.5 1102 CURVE SMOOTH",
"675.5 1131.33 OFFCURVE",
"684.667 1163 OFFCURVE",
"694 1197 CURVE",
"703.333 1163 OFFCURVE",
"712.667 1131.5 OFFCURVE",
"722 1102.5 CURVE SMOOTH",
"731.333 1073.5 OFFCURVE",
"740.333 1048.33 OFFCURVE",
"749 1027 CURVE",
"925 546 LINE"
);
},
{
closed = 1;
nodes = (
"608 1685 OFFCURVE",
"604.333 1702.17 OFFCURVE",
"597 1718.5 CURVE SMOOTH",
"589.667 1734.83 OFFCURVE",
"579.833 1749.17 OFFCURVE",
"567.5 1761.5 CURVE SMOOTH",
"555.167 1773.83 OFFCURVE",
"540.667 1783.67 OFFCURVE",
"524 1791 CURVE SMOOTH",
"507.333 1798.33 OFFCURVE",
"489.667 1802 OFFCURVE",
"471 1802 CURVE SMOOTH",
"453.667 1802 OFFCURVE",
"437.167 1798.33 OFFCURVE",
"421.5 1791 CURVE SMOOTH",
"405.833 1783.67 OFFCURVE",
"392 1773.83 OFFCURVE",
"380 1761.5 CURVE SMOOTH",
"368 1749.17 OFFCURVE",
"358.333 1734.83 OFFCURVE",
"351 1718.5 CURVE SMOOTH",
"343.667 1702.17 OFFCURVE",
"340 1685 OFFCURVE",
"340 1667 CURVE SMOOTH",
"340 1649 OFFCURVE",
"343.667 1632 OFFCURVE",
"351 1616 CURVE SMOOTH",
"358.333 1600 OFFCURVE",
"368 1586 OFFCURVE",
"380 1574 CURVE SMOOTH",
"392 1562 OFFCURVE",
"405.833 1552.67 OFFCURVE",
"421.5 1546 CURVE SMOOTH",
"437.167 1539.33 OFFCURVE",
"453.667 1536 OFFCURVE",
"471 1536 CURVE SMOOTH",
"489.667 1536 OFFCURVE",
"507.333 1539.33 OFFCURVE",
"524 1546 CURVE SMOOTH",
"540.667 1552.67 OFFCURVE",
"555.167 1562 OFFCURVE",
"567.5 1574 CURVE SMOOTH",
"579.833 1586 OFFCURVE",
"589.667 1600 OFFCURVE",
"597 1616 CURVE SMOOTH",
"604.333 1632 OFFCURVE",
"608 1649 OFFCURVE",
"608 1667 CURVE SMOOTH"
);
},
{
closed = 1;
nodes = (
"1048 1685 OFFCURVE",
"1044.5 1702.17 OFFCURVE",
"1037.5 1718.5 CURVE SMOOTH",
"1030.5 1734.83 OFFCURVE",
"1020.83 1749.17 OFFCURVE",
"1008.5 1761.5 CURVE SMOOTH",
"996.167 1773.83 OFFCURVE",
"981.833 1783.67 OFFCURVE",
"965.5 1791 CURVE SMOOTH",
"949.167 1798.33 OFFCURVE",
"932 1802 OFFCURVE",
"914 1802 CURVE SMOOTH",
"895.333 1802 OFFCURVE",
"877.833 1798.33 OFFCURVE",
"861.5 1791 CURVE SMOOTH",
"845.167 1783.67 OFFCURVE",
"831 1773.83 OFFCURVE",
"819 1761.5 CURVE SMOOTH",
"807 1749.17 OFFCURVE",
"797.5 1734.83 OFFCURVE",
"790.5 1718.5 CURVE SMOOTH",
"783.5 1702.17 OFFCURVE",
"780 1685 OFFCURVE",
"780 1667 CURVE SMOOTH",
"780 1649 OFFCURVE",
"783.5 1632 OFFCURVE",
"790.5 1616 CURVE SMOOTH",
"797.5 1600 OFFCURVE",
"807 1586 OFFCURVE",
"819 1574 CURVE SMOOTH",
"831 1562 OFFCURVE",
"845.167 1552.67 OFFCURVE",
"861.5 1546 CURVE SMOOTH",
"877.833 1539.33 OFFCURVE",
"895.333 1536 OFFCURVE",
"914 1536 CURVE SMOOTH",
"932 1536 OFFCURVE",
"949.167 1539.33 OFFCURVE",
"965.5 1546 CURVE SMOOTH",
"981.833 1552.67 OFFCURVE",
"996.167 1562 OFFCURVE",
"1008.5 1574 CURVE SMOOTH",
"1020.83 1586 OFFCURVE",
"1030.5 1600 OFFCURVE",
"1037.5 1616 CURVE SMOOTH",
"1044.5 1632 OFFCURVE",
"1048 1649 OFFCURVE",
"1048 1667 CURVE SMOOTH"
);
}
);
width = 1389;
}
);
leftKerningGroup = A;
rightKerningGroup = A;
unicode = 00C4;
},
{
glyphname = Agrave;
layers = (
{
layerId = "C25503A3-518C-4CE5-B03D-46F600126290";
name = Bold;
paths = (
{
closed = 1;
nodes = (
"0 0 LINE"
);
},
{
closed = 1;
nodes = (
"1400 0 LINE",
"832 1446 LINE",
"558 1446 LINE",
"-11 0 LINE",
"199 0 LINE SMOOTH",
"221.667 0 OFFCURVE",
"240.667 6.33333 OFFCURVE",
"256 19 CURVE SMOOTH",
"271.333 31.6667 OFFCURVE",
"281.667 45.6667 OFFCURVE",
"287 61 CURVE SMOOTH",
"395 356 LINE",
"994 356 LINE",
"1102 61 LINE",
"1109.33 43.6667 OFFCURVE",
"1120.33 29.1667 OFFCURVE",
"1135 17.5 CURVE SMOOTH",
"1149.67 5.83333 OFFCURVE",
"1168.67 0 OFFCURVE",
"1192 0 CURVE SMOOTH"
);
},
{
closed = 1;
nodes = (
"464 546 LINE",
"640 1025 LINE SMOOTH",
"648.667 1047 OFFCURVE",
"657.5 1072.67 OFFCURVE",
"666.5 1102 CURVE SMOOTH",
"675.5 1131.33 OFFCURVE",
"684.667 1163 OFFCURVE",
"694 1197 CURVE",
"703.333 1163 OFFCURVE",
"712.667 1131.5 OFFCURVE",
"722 1102.5 CURVE SMOOTH",
"731.333 1073.5 OFFCURVE",
"740.333 1048.33 OFFCURVE",
"749 1027 CURVE",
"925 546 LINE"
);
},
{
closed = 1;
nodes = (
"271 1861 LINE",
"590 1573 LINE SMOOTH",
"603.333 1561.67 OFFCURVE",
"615.5 1554.83 OFFCURVE",
"626.5 1552.5 CURVE SMOOTH",
"637.5 1550.17 OFFCURVE",
"652.667 1549 OFFCURVE",
"672 1549 CURVE SMOOTH",
"851 1549 LINE",
"633 1820 LINE SMOOTH",
"625.667 1829.33 OFFCURVE",
"618.667 1836.67 OFFCURVE",
"612 1842 CURVE SMOOTH",
"605.333 1847.33 OFFCURVE",
"598.167 1851.5 OFFCURVE",
"590.5 1854.5 CURVE SMOOTH",
"582.833 1857.5 OFFCURVE",
"574.167 1859.33 OFFCURVE",
"564.5 1860 CURVE SMOOTH",
"554.833 1860.67 OFFCURVE",
"543.333 1861 OFFCURVE",
"530 1861 CURVE SMOOTH"
);
}
);
width = 1389;
}
);
leftKerningGroup = A;
rightKerningGroup = A;
unicode = 00C0;
},
{
glyphname = Aring;
layers = (
{
layerId = "C25503A3-518C-4CE5-B03D-46F600126290";
name = Bold;
paths = (
{
closed = 1;
nodes = (
"0 0 LINE"
);
},
{
closed = 1;
nodes = (
"1400 0 LINE",
"832 1446 LINE",
"558 1446 LINE",
"-11 0 LINE",
"199 0 LINE SMOOTH",
"221.667 0 OFFCURVE",
"240.667 6.33333 OFFCURVE",
"256 19 CURVE SMOOTH",
"271.333 31.6667 OFFCURVE",
"281.667 45.6667 OFFCURVE",
"287 61 CURVE SMOOTH",
"395 356 LINE",
"994 356 LINE",
"1102 61 LINE",
"1109.33 43.6667 OFFCURVE",
"1120.33 29.1667 OFFCURVE",
"1135 17.5 CURVE SMOOTH",
"1149.67 5.83333 OFFCURVE",
"1168.67 0 OFFCURVE",
"1192 0 CURVE SMOOTH"
);
},
{
closed = 1;
nodes = (
"464 546 LINE",
"640 1025 LINE SMOOTH",
"648.667 1047 OFFCURVE",
"657.5 1072.67 OFFCURVE",
"666.5 1102 CURVE SMOOTH",
"675.5 1131.33 OFFCURVE",
"684.667 1163 OFFCURVE",
"694 1197 CURVE",
"703.333 1163 OFFCURVE",
"712.667 1131.5 OFFCURVE",
"722 1102.5 CURVE SMOOTH",
"731.333 1073.5 OFFCURVE",
"740.333 1048.33 OFFCURVE",
"749 1027 CURVE",
"925 546 LINE"
);
},
{
closed = 1;
nodes = (
"487 1678 OFFCURVE",
"492.667 1652.67 OFFCURVE",
"504 1630 CURVE SMOOTH",
"515.333 1607.33 OFFCURVE",
"530.5 1587.67 OFFCURVE",
"549.5 1571 CURVE SMOOTH",
"568.5 1554.33 OFFCURVE",
"590.333 1541.5 OFFCURVE",
"615 1532.5 CURVE SMOOTH",
"639.667 1523.5 OFFCURVE",
"665.667 1519 OFFCURVE",
"693 1519 CURVE SMOOTH",
"721 1519 OFFCURVE",
"747.833 1523.5 OFFCURVE",
"773.5 1532.5 CURVE SMOOTH",
"799.167 1541.5 OFFCURVE",
"821.5 1554.33 OFFCURVE",
"840.5 1571 CURVE SMOOTH",
"859.5 1587.67 OFFCURVE",
"874.667 1607.33 OFFCURVE",
"886 1630 CURVE SMOOTH",
"897.333 1652.67 OFFCURVE",
"903 1678 OFFCURVE",
"903 1706 CURVE SMOOTH",
"903 1734.67 OFFCURVE",
"897.333 1760.83 OFFCURVE",
"886 1784.5 CURVE SMOOTH",
"874.667 1808.17 OFFCURVE",
"859.5 1828.33 OFFCURVE",
"840.5 1845 CURVE SMOOTH",
"821.5 1861.67 OFFCURVE",
"799.167 1874.67 OFFCURVE",
"773.5 1884 CURVE SMOOTH",
"747.833 1893.33 OFFCURVE",
"721 1898 OFFCURVE",
"693 1898 CURVE SMOOTH",
"665.667 1898 OFFCURVE",
"639.667 1893.33 OFFCURVE",
"615 1884 CURVE SMOOTH",
"590.333 1874.67 OFFCURVE",
"568.5 1861.67 OFFCURVE",
"549.5 1845 CURVE SMOOTH",
"530.5 1828.33 OFFCURVE",
"515.333 1808.17 OFFCURVE",
"504 1784.5 CURVE SMOOTH",
"492.667 1760.83 OFFCURVE",
"487 1734.67 OFFCURVE",
"487 1706 CURVE SMOOTH"
);
},
{
closed = 1;
nodes = (
"606 1734 OFFCURVE",
"613.667 1756.17 OFFCURVE",
"629 1772.5 CURVE SMOOTH",
"644.333 1788.83 OFFCURVE",
"666.667 1797 OFFCURVE",
"696 1797 CURVE SMOOTH",
"722.667 1797 OFFCURVE",
"744 1788.83 OFFCURVE",
"760 1772.5 CURVE SMOOTH",
"776 1756.17 OFFCURVE",
"784 1734 OFFCURVE",
"784 1706 CURVE SMOOTH",
"784 1680 OFFCURVE",
"776 1658.67 OFFCURVE",
"760 1642 CURVE SMOOTH",
"744 1625.33 OFFCURVE",
"722.667 1617 OFFCURVE",
"696 1617 CURVE SMOOTH",
"666.667 1617 OFFCURVE",
"644.333 1625.33 OFFCURVE",
"629 1642 CURVE SMOOTH",
"613.667 1658.67 OFFCURVE",
"606 1680 OFFCURVE",
"606 1706 CURVE SMOOTH"
);
}
);
width = 1389;
}
);
leftKerningGroup = A;
rightKerningGroup = A;
unicode = 00C5;
},
{
glyphname = Atilde;
layers = (
{
layerId = "C25503A3-518C-4CE5-B03D-46F600126290";
name = Bold;
paths = (
{
closed = 1;
nodes = (
"0 0 LINE"
);
},
{
closed = 1;
nodes = (
"1400 0 LINE",
"832 1446 LINE",
"558 1446 LINE",
"-11 0 LINE",
"199 0 LINE SMOOTH",
"221.667 0 OFFCURVE",
"240.667 6.33333 OFFCURVE",
"256 19 CURVE SMOOTH",
"271.333 31.6667 OFFCURVE",
"281.667 45.6667 OFFCURVE",
"287 61 CURVE SMOOTH",
"395 356 LINE",
"994 356 LINE",
"1102 61 LINE",
"1109.33 43.6667 OFFCURVE",
"1120.33 29.1667 OFFCURVE",
"1135 17.5 CURVE SMOOTH",
"1149.67 5.83333 OFFCURVE",
"1168.67 0 OFFCURVE",
"1192 0 CURVE SMOOTH"
);
},
{
closed = 1;
nodes = (
"464 546 LINE",
"640 1025 LINE SMOOTH",
"648.667 1047 OFFCURVE",
"657.5 1072.67 OFFCURVE",
"666.5 1102 CURVE SMOOTH",
"675.5 1131.33 OFFCURVE",
"684.667 1163 OFFCURVE",
"694 1197 CURVE",
"703.333 1163 OFFCURVE",
"712.667 1131.5 OFFCURVE",
"722 1102.5 CURVE SMOOTH",
"731.333 1073.5 OFFCURVE",
"740.333 1048.33 OFFCURVE",
"749 1027 CURVE",
"925 546 LINE"
);
},
{
closed = 1;
nodes = (
"801 1699 OFFCURVE",
"783.333 1704.33 OFFCURVE",
"766 1715 CURVE SMOOTH",
"748.667 1725.67 OFFCURVE",
"730 1737.17 OFFCURVE",
"710 1749.5 CURVE SMOOTH",
"690 1761.83 OFFCURVE",
"667.333 1773.33 OFFCURVE",
"642 1784 CURVE SMOOTH",
"616.667 1794.67 OFFCURVE",
"587 1800 OFFCURVE",
"553 1800 CURVE SMOOTH",
"519.667 1800 OFFCURVE",
"490.167 1792.83 OFFCURVE",
"464.5 1778.5 CURVE SMOOTH",
"438.833 1764.17 OFFCURVE",
"417.167 1745.17 OFFCURVE",
"399.5 1721.5 CURVE SMOOTH",
"381.833 1697.83 OFFCURVE",
"368.333 1670.5 OFFCURVE",
"359 1639.5 CURVE SMOOTH",
"349.667 1608.5 OFFCURVE",
"345 1576.67 OFFCURVE",
"345 1544 CURVE",
"498 1544 LINE",
"498 1554.67 OFFCURVE",
"499.667 1565.67 OFFCURVE",
"503 1577 CURVE SMOOTH",
"506.333 1588.33 OFFCURVE",
"511.333 1598.67 OFFCURVE",
"518 1608 CURVE SMOOTH",
"524.667 1617.33 OFFCURVE",
"533.333 1625 OFFCURVE",
"544 1631 CURVE SMOOTH",
"554.667 1637 OFFCURVE",
"567.667 1640 OFFCURVE",
"583 1640 CURVE SMOOTH",
"601 1640 OFFCURVE",
"618.5 1634.67 OFFCURVE",
"635.5 1624 CURVE SMOOTH",
"652.5 1613.33 OFFCURVE",
"671.333 1601.83 OFFCURVE",
"692 1589.5 CURVE SMOOTH",
"712.667 1577.17 OFFCURVE",
"735.5 1565.67 OFFCURVE",
"760.5 1555 CURVE SMOOTH",
"785.5 1544.33 OFFCURVE",
"815 1539 OFFCURVE",
"849 1539 CURVE SMOOTH",
"882.333 1539 OFFCURVE",
"911.833 1546 OFFCURVE",
"937.5 1560 CURVE SMOOTH",
"963.167 1574 OFFCURVE",
"984.833 1592.83 OFFCURVE",
"1002.5 1616.5 CURVE SMOOTH",
"1020.17 1640.17 OFFCURVE",
"1033.5 1667.17 OFFCURVE",
"1042.5 1697.5 CURVE SMOOTH",
"1051.5 1727.83 OFFCURVE",
"1056 1759.67 OFFCURVE",
"1056 1793 CURVE",
"905 1793 LINE",
"905 1782.33 OFFCURVE",
"903.333 1771.5 OFFCURVE",
"900 1760.5 CURVE SMOOTH",
"896.667 1749.5 OFFCURVE",
"891.5 1739.5 OFFCURVE",
"884.5 1730.5 CURVE SMOOTH",
"877.5 1721.5 OFFCURVE",
"868.5 1714 OFFCURVE",
"857.5 1708 CURVE SMOOTH",
"846.5 1702 OFFCURVE",
"833.667 1699 OFFCURVE",
"819 1699 CURVE SMOOTH"
);
}
);
width = 1389;
}
);
leftKerningGroup = A;
rightKerningGroup = A;
unicode = 00C3;
},
{
glyphname = AE;
layers = (
{
layerId = "C25503A3-518C-4CE5-B03D-46F600126290";
name = Bold;
paths = (
{
closed = 1;
nodes = (
"1788 1232 LINE",
"1788 1446 LINE",
"715 1446 LINE",
"-20 0 LINE",
"184 0 LINE SMOOTH",
"208 0 OFFCURVE",
"228.667 5.5 OFFCURVE",
"246 16.5 CURVE SMOOTH",
"263.333 27.5 OFFCURVE",
"276.333 42 OFFCURVE",
"285 60 CURVE SMOOTH",
"427 356 LINE",
"947 356 LINE",
"991 0 LINE",
"1788 0 LINE",
"1788 215 LINE",
"1218 215 LINE",
"1168 624 LINE",
"1652 624 LINE",
"1652 831 LINE",
"1143 831 LINE",
"1094 1232 LINE"
);
},
{
closed = 1;
nodes = (
"519 546 LINE",
"770 1067 LINE SMOOTH",
"781.333 1092.33 OFFCURVE",
"792.833 1120 OFFCURVE",
"804.5 1150 CURVE SMOOTH",
"816.167 1180 OFFCURVE",
"827.333 1212 OFFCURVE",
"838 1246 CURVE",
"924 546 LINE"
);
}
);
width = 1866;
}
);
leftKerningGroup = AE;
rightKerningGroup = E;
unicode = 00C6;
},
{
glyphname = B;
layers = (
{
layerId = "C25503A3-518C-4CE5-B03D-46F600126290";
name = Bold;
paths = (
{
closed = 1;
nodes = (
"161 0 LINE",
"707 0 LINE SMOOTH",
"791 0 OFFCURVE",
"865.667 10.6667 OFFCURVE",
"931 32 CURVE SMOOTH",
"996.333 53.3333 OFFCURVE",
"1051.33 82.8333 OFFCURVE",
"1096 120.5 CURVE SMOOTH",
"1140.67 158.167 OFFCURVE",
"1174.67 203 OFFCURVE",
"1198 255 CURVE SMOOTH",
"1221.33 307 OFFCURVE",
"1233 363.667 OFFCURVE",
"1233 425 CURVE SMOOTH",
"1233 595 OFFCURVE",
"1133.67 702.333 OFFCURVE",
"935 747 CURVE",
"979.667 762.333 OFFCURVE",
"1018.17 781 OFFCURVE",
"1050.5 803 CURVE SMOOTH",
"1082.83 825 OFFCURVE",
"1109.5 849.5 OFFCURVE",
"1130.5 876.5 CURVE SMOOTH",
"1151.5 903.5 OFFCURVE",
"1167 932.5 OFFCURVE",
"1177 963.5 CURVE SMOOTH",
"1187 994.5 OFFCURVE",
"1192 1027 OFFCURVE",
"1192 1061 CURVE SMOOTH",
"1192 1120.33 OFFCURVE",
"1182 1173.67 OFFCURVE",
"1162 1221 CURVE SMOOTH",
"1142 1268.33 OFFCURVE",
"1110.5 1308.67 OFFCURVE",
"1067.5 1342 CURVE SMOOTH",
"1024.5 1375.33 OFFCURVE",
"969.333 1401 OFFCURVE",
"902 1419 CURVE SMOOTH",
"834.667 1437 OFFCURVE",
"753.667 1446 OFFCURVE",
"659 1446 CURVE SMOOTH",
"161 1446 LINE"
);
},
{
closed = 1;
nodes = (
"430 634 LINE",
"701 634 LINE SMOOTH",
"748.333 634 OFFCURVE",
"788.833 629.334 OFFCURVE",
"822.5 620 CURVE SMOOTH",
"856.167 610.667 OFFCURVE",
"883.667 597.167 OFFCURVE",
"905 579.5 CURVE SMOOTH",
"926.333 561.834 OFFCURVE",
"942 540.5 OFFCURVE",
"952 515.5 CURVE SMOOTH",
"962 490.5 OFFCURVE",
"967 462.334 OFFCURVE",
"967 431 CURVE SMOOTH",
"967 401 OFFCURVE",
"962.5 372.667 OFFCURVE",
"953.5 346 CURVE SMOOTH",
"944.5 319.334 OFFCURVE",
"929.833 296 OFFCURVE",
"909.5 276 CURVE SMOOTH",
"889.167 256 OFFCURVE",
"862 240 OFFCURVE",
"828 228 CURVE SMOOTH",
"794 216 OFFCURVE",
"752 210 OFFCURVE",
"702 210 CURVE SMOOTH",
"430 210 LINE"
);
},
{
closed = 1;
nodes = (
"430 820 LINE",
"430 1238 LINE",
"659 1238 LINE SMOOTH",
"749.667 1238 OFFCURVE",
"816.333 1222 OFFCURVE",
"859 1190 CURVE SMOOTH",
"901.667 1158 OFFCURVE",
"923 1104.33 OFFCURVE",
"923 1029 CURVE SMOOTH",
"923 956.334 OFFCURVE",
"899.5 903.334 OFFCURVE",
"852.5 870 CURVE SMOOTH",
"805.5 836.667 OFFCURVE",
"736 820 OFFCURVE",
"644 820 CURVE SMOOTH"
);
}
);
width = 1317;
}
);
leftKerningGroup = B;
rightKerningGroup = B;
unicode = 0042;
},
{
glyphname = C;
layers = (
{
layerId = "C25503A3-518C-4CE5-B03D-46F600126290";
name = Bold;
paths = (
{
closed = 1;
nodes = (
"1146 341 OFFCURVE",
"1138.33 339.167 OFFCURVE",
"1131 335.5 CURVE SMOOTH",
"1123.67 331.833 OFFCURVE",
"1116.67 327 OFFCURVE",
"1110 321 CURVE SMOOTH",
"1088 301 OFFCURVE",
"1065.83 284.167 OFFCURVE",
"1043.5 270.5 CURVE SMOOTH",
"1021.17 256.833 OFFCURVE",
"997.5 245.667 OFFCURVE",
"972.5 237 CURVE SMOOTH",
"947.5 228.333 OFFCURVE",
"920.167 222 OFFCURVE",
"890.5 218 CURVE SMOOTH",
"860.833 214 OFFCURVE",
"827.667 212 OFFCURVE",
"791 212 CURVE SMOOTH",
"729.667 212 OFFCURVE",
"672.333 223.5 OFFCURVE",
"619 246.5 CURVE SMOOTH",
"565.667 269.5 OFFCURVE",
"519.333 302.667 OFFCURVE",
"480 346 CURVE SMOOTH",
"440.667 389.333 OFFCURVE",
"409.5 442.667 OFFCURVE",
"386.5 506 CURVE SMOOTH",
"363.5 569.333 OFFCURVE",
"352 641.667 OFFCURVE",
"352 723 CURVE SMOOTH",
"352 803.667 OFFCURVE",
"362.667 875.5 OFFCURVE",
"384 938.5 CURVE SMOOTH",
"405.333 1001.5 OFFCURVE",
"435.333 1054.83 OFFCURVE",
"474 1098.5 CURVE SMOOTH",
"512.667 1142.17 OFFCURVE",
"558.833 1175.5 OFFCURVE",
"612.5 1198.5 CURVE SMOOTH",
"666.167 1221.5 OFFCURVE",
"725.333 1233 OFFCURVE",
"790 1233 CURVE SMOOTH",
"828 1233 OFFCURVE",
"861.5 1230.17 OFFCURVE",
"890.5 1224.5 CURVE SMOOTH",
"919.5 1218.83 OFFCURVE",
"945 1211.83 OFFCURVE",
"967 1203.5 CURVE SMOOTH",
"989 1195.17 OFFCURVE",
"1008.33 1186 OFFCURVE",
"1025 1176 CURVE SMOOTH",
"1041.67 1166 OFFCURVE",
"1056.33 1156.83 OFFCURVE",
"1069 1148.5 CURVE SMOOTH",
"1081.67 1140.17 OFFCURVE",
"1093.33 1133.17 OFFCURVE",
"1104 1127.5 CURVE SMOOTH",
"1114.67 1121.83 OFFCURVE",
"1125 1119 OFFCURVE",
"1135 1119 CURVE SMOOTH",
"1149.67 1119 OFFCURVE",
"1161.17 1122 OFFCURVE",
"1169.5 1128 CURVE SMOOTH",
"1177.83 1134 OFFCURVE",
"1184.67 1141 OFFCURVE",
"1190 1149 CURVE",
"1280 1274 LINE",
"1222.67 1330 OFFCURVE",
"1153.17 1375.33 OFFCURVE",
"1071.5 1410 CURVE SMOOTH",
"989.833 1444.67 OFFCURVE",
"896.333 1462 OFFCURVE",
"791 1462 CURVE SMOOTH",
"685 1462 OFFCURVE",
"588.333 1443.83 OFFCURVE",
"501 1407.5 CURVE SMOOTH",
"413.666 1371.17 OFFCURVE",
"338.5 1320.33 OFFCURVE",
"275.5 1255 CURVE SMOOTH",
"212.5 1189.67 OFFCURVE",
"163.666 1111.83 OFFCURVE",
"129 1021.5 CURVE SMOOTH",
"94.3331 931.166 OFFCURVE",
"76.9998 831.666 OFFCURVE",
"76.9998 723 CURVE SMOOTH",
"76.9998 615.666 OFFCURVE",
"93.1664 516.666 OFFCURVE",
"125.5 426 CURVE SMOOTH",
"157.833 335.333 OFFCURVE",
"204.333 257.333 OFFCURVE",
"265 192 CURVE SMOOTH",
"325.666 126.666 OFFCURVE",
"398.833 75.6664 OFFCURVE",
"484.5 38.9997 CURVE SMOOTH",
"570.166 2.33301 OFFCURVE",
"666.666 -16 OFFCURVE",
"774 -16 CURVE SMOOTH",
"894 -16 OFFCURVE",
"996.833 3.33301 OFFCURVE",
"1082.5 41.9997 CURVE SMOOTH",
"1168.17 80.6664 OFFCURVE",
"1240.33 136.333 OFFCURVE",
"1299 209 CURVE",
"1193 324 LINE",
"1181.67 335.333 OFFCURVE",
"1168.67 341 OFFCURVE",
"1154 341 CURVE SMOOTH"
);
}
);
width = 1323;
}
);
leftKerningGroup = C;
rightKerningGroup = C;
unicode = 0043;
},
{
glyphname = Ccedilla;
layers = (
{
layerId = "C25503A3-518C-4CE5-B03D-46F600126290";
name = Bold;
paths = (
{
closed = 1;
nodes = (
"642.667 -234 OFFCURVE",
"633 -242 OFFCURVE",
"629 -257 CURVE",
"606 -334 LINE",
"629.333 -341 OFFCURVE",
"652.833 -347 OFFCURVE",
"676.5 -351 CURVE SMOOTH",
"700.167 -354 OFFCURVE",
"725.667 -356 OFFCURVE",
"753 -356 CURVE SMOOTH",
"789 -356 OFFCURVE",
"822 -353 OFFCURVE",
"852 -346 CURVE SMOOTH",
"882 -339 OFFCURVE",
"907.833 -330 OFFCURVE",
"929.5 -317 CURVE SMOOTH",
"951.167 -304 OFFCURVE",
"967.833 -289 OFFCURVE",
"979.5 -271 CURVE SMOOTH",
"991.167 -253 OFFCURVE",
"997 -233 OFFCURVE",
"997 -210 CURVE SMOOTH",
"997 -175 OFFCURVE",
"984.333 -146 OFFCURVE",
"959 -121 CURVE SMOOTH",
"933.667 -96 OFFCURVE",
"889.667 -76 OFFCURVE",
"827 -61 CURVE",
"840 -13 LINE",
"942.667 -6 OFFCURVE",
"1031.67 15.8333 OFFCURVE",
"1107 53.5 CURVE SMOOTH",
"1182.33 91.1667 OFFCURVE",
"1246.33 143 OFFCURVE",
"1299 209 CURVE",
"1193 324 LINE",
"1181.67 335.333 OFFCURVE",
"1168.67 341 OFFCURVE",
"1154 341 CURVE SMOOTH",
"1146 341 OFFCURVE",
"1138.33 339.167 OFFCURVE",
"1131 335.5 CURVE SMOOTH",
"1123.67 331.833 OFFCURVE",
"1116.67 327 OFFCURVE",
"1110 321 CURVE SMOOTH",
"1088 301 OFFCURVE",
"1065.83 284.167 OFFCURVE",
"1043.5 270.5 CURVE SMOOTH",
"1021.17 256.833 OFFCURVE",
"997.5 245.667 OFFCURVE",
"972.5 237 CURVE SMOOTH",
"947.5 228.333 OFFCURVE",
"920.167 222 OFFCURVE",
"890.5 218 CURVE SMOOTH",
"860.833 214 OFFCURVE",
"827.667 212 OFFCURVE",
"791 212 CURVE SMOOTH",
"729.667 212 OFFCURVE",
"672.333 223.5 OFFCURVE",
"619 246.5 CURVE SMOOTH",
"565.667 269.5 OFFCURVE",
"519.333 302.667 OFFCURVE",
"480 346 CURVE SMOOTH",
"440.667 389.333 OFFCURVE",
"409.5 442.667 OFFCURVE",
"386.5 506 CURVE SMOOTH",
"363.5 569.333 OFFCURVE",
"352 641.667 OFFCURVE",
"352 723 CURVE SMOOTH",
"352 803.667 OFFCURVE",
"362.667 875.5 OFFCURVE",
"384 938.5 CURVE SMOOTH",
"405.333 1001.5 OFFCURVE",
"435.333 1054.83 OFFCURVE",
"474 1098.5 CURVE SMOOTH",
"512.667 1142.17 OFFCURVE",
"558.833 1175.5 OFFCURVE",
"612.5 1198.5 CURVE SMOOTH",
"666.167 1221.5 OFFCURVE",
"725.333 1233 OFFCURVE",
"790 1233 CURVE SMOOTH",
"828 1233 OFFCURVE",
"861.5 1230.17 OFFCURVE",
"890.5 1224.5 CURVE SMOOTH",
"919.5 1218.83 OFFCURVE",
"945 1211.83 OFFCURVE",
"967 1203.5 CURVE SMOOTH",
"989 1195.17 OFFCURVE",
"1008.33 1186 OFFCURVE",
"1025 1176 CURVE SMOOTH",
"1041.67 1166 OFFCURVE",
"1056.33 1156.83 OFFCURVE",
"1069 1148.5 CURVE SMOOTH",
"1081.67 1140.17 OFFCURVE",
"1093.33 1133.17 OFFCURVE",
"1104 1127.5 CURVE SMOOTH",
"1114.67 1121.83 OFFCURVE",
"1125 1119 OFFCURVE",
"1135 1119 CURVE SMOOTH",
"1149.67 1119 OFFCURVE",
"1161.17 1122 OFFCURVE",
"1169.5 1128 CURVE SMOOTH",
"1177.83 1134 OFFCURVE",
"1184.67 1141 OFFCURVE",
"1190 1149 CURVE",
"1280 1274 LINE",
"1222.67 1330 OFFCURVE",
"1153.17 1375.33 OFFCURVE",
"1071.5 1410 CURVE SMOOTH",
"989.833 1444.67 OFFCURVE",
"896.333 1462 OFFCURVE",
"791 1462 CURVE SMOOTH",
"685 1462 OFFCURVE",
"588.333 1443.83 OFFCURVE",
"501 1407.5 CURVE SMOOTH",
"413.667 1371.17 OFFCURVE",
"338.5 1320.33 OFFCURVE",
"275.5 1255 CURVE SMOOTH",
"212.5 1189.67 OFFCURVE",
"163.667 1111.83 OFFCURVE",
"129 1021.5 CURVE SMOOTH",
"94.3332 931.166 OFFCURVE",
"76.9999 831.666 OFFCURVE",
"76.9999 723 CURVE SMOOTH",
"76.9999 621.666 OFFCURVE",
"91.3332 528 OFFCURVE",
"120 442 CURVE SMOOTH",
"148.667 356 OFFCURVE",
"190 280.666 OFFCURVE",
"244 216 CURVE SMOOTH",
"298 151.333 OFFCURVE",
"363.5 99.1664 OFFCURVE",
"440.5 59.4997 CURVE SMOOTH",
"517.5 19.833 OFFCURVE",
"604 -4 OFFCURVE",
"700 -12 CURVE",
"656 -141 LINE",
"706 -148 OFFCURVE",
"743 -156 OFFCURVE",
"767 -165 CURVE SMOOTH",
"791 -173 OFFCURVE",
"803 -187 OFFCURVE",
"803 -206 CURVE SMOOTH",
"803 -218 OFFCURVE",
"797.5 -228 OFFCURVE",
"786.5 -237 CURVE SMOOTH",
"775.5 -245 OFFCURVE",
"759 -249 OFFCURVE",
"737 -249 CURVE SMOOTH",
"715.667 -249 OFFCURVE",
"699.5 -247 OFFCURVE",
"688.5 -242 CURVE SMOOTH",
"677.5 -237 OFFCURVE",
"667.333 -234 OFFCURVE",
"658 -234 CURVE SMOOTH"
);
}
);
width = 1323;
}
);
leftKerningGroup = C;
rightKerningGroup = C;
unicode = 00C7;
},
{
glyphname = D;
layers = (
{
layerId = "C25503A3-518C-4CE5-B03D-46F600126290";
name = Bold;
paths = (
{
closed = 1;
nodes = (
"1445 829 OFFCURVE",
"1427.33 926.333 OFFCURVE",
"1392 1015 CURVE SMOOTH",
"1356.67 1103.67 OFFCURVE",
"1307 1179.83 OFFCURVE",
"1243 1243.5 CURVE SMOOTH",
"1179 1307.17 OFFCURVE",
"1102 1356.83 OFFCURVE",
"1012 1392.5 CURVE SMOOTH",
"922 1428.17 OFFCURVE",
"822 1446 OFFCURVE",
"712 1446 CURVE SMOOTH",
"161 1446 LINE",
"161 0 LINE",
"712 0 LINE SMOOTH",
"822 0 OFFCURVE",
"922 17.6664 OFFCURVE",
"1012 52.9998 CURVE SMOOTH",
"1102 88.3331 OFFCURVE",
"1179 138 OFFCURVE",
"1243 202 CURVE SMOOTH",
"1307 266 OFFCURVE",
"1356.67 342.333 OFFCURVE",
"1392 431 CURVE SMOOTH",
"1427.33 519.666 OFFCURVE",
"1445 617 OFFCURVE",
"1445 723 CURVE SMOOTH"
);
},
{
closed = 1;
nodes = (
"1169 643.666 OFFCURVE",
"1158.5 572.5 OFFCURVE",
"1137.5 509.5 CURVE SMOOTH",
"1116.5 446.5 OFFCURVE",
"1086.17 393.166 OFFCURVE",
"1046.5 349.5 CURVE SMOOTH",
"1006.83 305.833 OFFCURVE",
"958.833 272.333 OFFCURVE",
"902.5 249 CURVE SMOOTH",
"846.167 225.666 OFFCURVE",
"782.667 214 OFFCURVE",
"712 214 CURVE SMOOTH",
"431 214 LINE",
"431 1232 LINE",
"712 1232 LINE SMOOTH",
"782.667 1232 OFFCURVE",
"846.167 1220.33 OFFCURVE",
"902.5 1197 CURVE SMOOTH",
"958.833 1173.67 OFFCURVE",
"1006.83 1140.17 OFFCURVE",
"1046.5 1096.5 CURVE SMOOTH",
"1086.17 1052.83 OFFCURVE",
"1116.5 999.5 OFFCURVE",
"1137.5 936.5 CURVE SMOOTH",
"1158.5 873.5 OFFCURVE",
"1169 802.333 OFFCURVE",
"1169 723 CURVE SMOOTH"
);
}
);
width = 1521;
}
);
leftKerningGroup = B;
rightKerningGroup = D;
unicode = 0044;
},
{
glyphname = Eth;
lastChange = "2014-08-18 21:01:03 -0500";
layers = (
{
layerId = "C25503A3-518C-4CE5-B03D-46F600126290";
name = Bold;
paths = (
{
closed = 1;
nodes = (
"1175 451 OFFCURVE",
"1217 578 OFFCURVE",
"1217 738 CURVE SMOOTH",
"1217 898 OFFCURVE",
"1175 1026 OFFCURVE",
"1091 1123 CURVE SMOOTH",
"1008 1216 OFFCURVE",
"894 1262 OFFCURVE",
"749 1262 CURVE SMOOTH",
"461 1262 LINE",
"461 823 LINE",
"733 823 LINE",
"733 667 LINE",
"461 667 LINE",
"461 219 LINE",
"749 219 LINE SMOOTH",
"892 219 OFFCURVE",
"1006 265 OFFCURVE",
"1091 358 CURVE SMOOTH"
);
},
{
closed = 1;
nodes = (
"184 823 LINE",
"184 1481 LINE",
"749 1481 LINE SMOOTH",
"1193 1481 OFFCURVE",
"1499 1177 OFFCURVE",
"1499 740 CURVE SMOOTH",
"1499 303 OFFCURVE",
"1197 0 OFFCURVE",
"749 0 CURVE SMOOTH",
"184 0 LINE",
"184 667 LINE",
"-1 667 LINE",
"-1 823 LINE"
);
}
);
width = 1576;
}
);
leftKerningGroup = B;
rightKerningGroup = D;
unicode = 00D0;
},
{
glyphname = E;
layers = (
{
layerId = "C25503A3-518C-4CE5-B03D-46F600126290";
name = Bold;
paths = (
{
closed = 1;
nodes = (
"1073 1446 LINE",
"161 1446 LINE",
"161 0 LINE",
"1073 0 LINE",
"1073 215 LINE",
"431 215 LINE",
"431 624 LINE",
"937 624 LINE",
"937 831 LINE",
"431 831 LINE",
"431 1232 LINE",
"1073 1232 LINE"
);
}
);
width = 1150;
}
);
leftKerningGroup = B;
rightKerningGroup = E;
unicode = 0045;
},
{
glyphname = Eacute;
layers = (
{
layerId = "C25503A3-518C-4CE5-B03D-46F600126290";
name = Bold;
paths = (
{
closed = 1;
nodes = (
"161 0 LINE"
);
},
{
closed = 1;
nodes = (
"1073 1446 LINE",
"161 1446 LINE",
"161 0 LINE",
"1073 0 LINE",
"1073 215 LINE",
"431 215 LINE",
"431 624 LINE",
"937 624 LINE",
"937 831 LINE",
"431 831 LINE",
"431 1232 LINE",
"1073 1232 LINE"
);
},
{
closed = 1;
nodes = (
"1052 1861 LINE",
"777 1861 LINE SMOOTH",
"763.667 1861 OFFCURVE",
"752.167 1860.67 OFFCURVE",
"742.5 1860 CURVE SMOOTH",
"732.833 1859.33 OFFCURVE",
"724 1857.67 OFFCURVE",
"716 1855 CURVE SMOOTH",
"708 1852.33 OFFCURVE",
"700.667 1848.17 OFFCURVE",
"694 1842.5 CURVE SMOOTH",
"687.333 1836.83 OFFCURVE",
"680.667 1829.33 OFFCURVE",
"674 1820 CURVE",
"465 1549 LINE",
"644 1549 LINE SMOOTH",
"662.667 1549 OFFCURVE",
"678 1550.33 OFFCURVE",
"690 1553 CURVE SMOOTH",
"702 1555.67 OFFCURVE",
"714.667 1563 OFFCURVE",
"728 1575 CURVE SMOOTH"
);
}
);
width = 1150;
}
);
leftKerningGroup = B;
rightKerningGroup = E;
unicode = 00C9;
},
{
glyphname = Ecircumflex;
layers = (
{
layerId = "C25503A3-518C-4CE5-B03D-46F600126290";
name = Bold;
paths = (
{
closed = 1;
nodes = (
"161 0 LINE"
);
},
{
closed = 1;
nodes = (
"1073 1446 LINE",
"161 1446 LINE",
"161 0 LINE",
"1073 0 LINE",
"1073 215 LINE",
"431 215 LINE",
"431 624 LINE",
"937 624 LINE",
"937 831 LINE",
"431 831 LINE",
"431 1232 LINE",
"1073 1232 LINE"
);
},
{
closed = 1;
nodes = (
"989 1549 LINE",
"748 1824 LINE",
"524 1824 LINE",
"283 1549 LINE",
"454 1549 LINE SMOOTH",
"464 1549 OFFCURVE",
"476.167 1550.83 OFFCURVE",
"490.5 1554.5 CURVE SMOOTH",
"504.833 1558.17 OFFCURVE",
"519.667 1569 OFFCURVE",
"535 1587 CURVE",
"617 1693 LINE",
"632 1715 LINE",
"634 1711.67 OFFCURVE",
"636.167 1708 OFFCURVE",
"638.5 1704 CURVE SMOOTH",
"640.833 1700 OFFCURVE",
"643.667 1696.33 OFFCURVE",
"647 1693 CURVE",
"729 1587 LINE",
"744.333 1569 OFFCURVE",
"759.167 1558.17 OFFCURVE",
"773.5 1554.5 CURVE SMOOTH",
"787.833 1550.83 OFFCURVE",
"800 1549 OFFCURVE",
"810 1549 CURVE SMOOTH"
);
}
);
width = 1150;
}
);
leftKerningGroup = B;
rightKerningGroup = E;
unicode = 00CA;
},
{
glyphname = Edieresis;
layers = (
{
layerId = "C25503A3-518C-4CE5-B03D-46F600126290";
name = Bold;
paths = (
{
closed = 1;
nodes = (
"161 0 LINE"
);
},
{
closed = 1;
nodes = (
"1073 1446 LINE",
"161 1446 LINE",
"161 0 LINE",
"1073 0 LINE",
"1073 215 LINE",
"431 215 LINE",
"431 624 LINE",
"937 624 LINE",
"937 831 LINE",
"431 831 LINE",
"431 1232 LINE",
"1073 1232 LINE"
);
},
{
closed = 1;
nodes = (
"546 1685 OFFCURVE",
"542.333 1702.17 OFFCURVE",
"535 1718.5 CURVE SMOOTH",
"527.667 1734.83 OFFCURVE",
"517.833 1749.17 OFFCURVE",
"505.5 1761.5 CURVE SMOOTH",
"493.167 1773.83 OFFCURVE",
"478.667 1783.67 OFFCURVE",
"462 1791 CURVE SMOOTH",
"445.333 1798.33 OFFCURVE",
"427.667 1802 OFFCURVE",
"409 1802 CURVE SMOOTH",
"391.667 1802 OFFCURVE",
"375.167 1798.33 OFFCURVE",
"359.5 1791 CURVE SMOOTH",
"343.833 1783.67 OFFCURVE",
"330 1773.83 OFFCURVE",
"318 1761.5 CURVE SMOOTH",
"306 1749.17 OFFCURVE",
"296.333 1734.83 OFFCURVE",
"289 1718.5 CURVE SMOOTH",
"281.667 1702.17 OFFCURVE",
"278 1685 OFFCURVE",
"278 1667 CURVE SMOOTH",
"278 1649 OFFCURVE",
"281.667 1632 OFFCURVE",
"289 1616 CURVE SMOOTH",
"296.333 1600 OFFCURVE",
"306 1586 OFFCURVE",
"318 1574 CURVE SMOOTH",
"330 1562 OFFCURVE",
"343.833 1552.67 OFFCURVE",
"359.5 1546 CURVE SMOOTH",
"375.167 1539.33 OFFCURVE",
"391.667 1536 OFFCURVE",
"409 1536 CURVE SMOOTH",
"427.667 1536 OFFCURVE",
"445.333 1539.33 OFFCURVE",
"462 1546 CURVE SMOOTH",
"478.667 1552.67 OFFCURVE",
"493.167 1562 OFFCURVE",
"505.5 1574 CURVE SMOOTH",
"517.833 1586 OFFCURVE",
"527.667 1600 OFFCURVE",
"535 1616 CURVE SMOOTH",
"542.333 1632 OFFCURVE",
"546 1649 OFFCURVE",
"546 1667 CURVE SMOOTH"
);
},
{
closed = 1;
nodes = (
"986 1685 OFFCURVE",
"982.5 1702.17 OFFCURVE",
"975.5 1718.5 CURVE SMOOTH",
"968.5 1734.83 OFFCURVE",
"958.833 1749.17 OFFCURVE",
"946.5 1761.5 CURVE SMOOTH",
"934.167 1773.83 OFFCURVE",
"919.833 1783.67 OFFCURVE",
"903.5 1791 CURVE SMOOTH",
"887.167 1798.33 OFFCURVE",
"870 1802 OFFCURVE",
"852 1802 CURVE SMOOTH",
"833.333 1802 OFFCURVE",
"815.833 1798.33 OFFCURVE",
"799.5 1791 CURVE SMOOTH",
"783.167 1783.67 OFFCURVE",
"769 1773.83 OFFCURVE",
"757 1761.5 CURVE SMOOTH",
"745 1749.17 OFFCURVE",
"735.5 1734.83 OFFCURVE",
"728.5 1718.5 CURVE SMOOTH",
"721.5 1702.17 OFFCURVE",
"718 1685 OFFCURVE",
"718 1667 CURVE SMOOTH",
"718 1649 OFFCURVE",
"721.5 1632 OFFCURVE",
"728.5 1616 CURVE SMOOTH",
"735.5 1600 OFFCURVE",
"745 1586 OFFCURVE",
"757 1574 CURVE SMOOTH",
"769 1562 OFFCURVE",
"783.167 1552.67 OFFCURVE",
"799.5 1546 CURVE SMOOTH",
"815.833 1539.33 OFFCURVE",
"833.333 1536 OFFCURVE",
"852 1536 CURVE SMOOTH",
"870 1536 OFFCURVE",
"887.167 1539.33 OFFCURVE",
"903.5 1546 CURVE SMOOTH",
"919.833 1552.67 OFFCURVE",
"934.167 1562 OFFCURVE",
"946.5 1574 CURVE SMOOTH",
"958.833 1586 OFFCURVE",
"968.5 1600 OFFCURVE",
"975.5 1616 CURVE SMOOTH",
"982.5 1632 OFFCURVE",
"986 1649 OFFCURVE",
"986 1667 CURVE SMOOTH"
);
}
);
width = 1150;
}
);
leftKerningGroup = B;
rightKerningGroup = E;
unicode = 00CB;
},
{
glyphname = Egrave;
lastChange = "2014-08-18 19:55:22 -0500";
layers = (
{
layerId = "C25503A3-518C-4CE5-B03D-46F600126290";
name = Bold;
paths = (
{
closed = 1;
nodes = (
"161 0 LINE"
);
},
{
closed = 1;
nodes = (
"1073 1446 LINE",
"161 1446 LINE",
"161 0 LINE",
"1073 0 LINE",
"1073 215 LINE",
"431 215 LINE",
"431 624 LINE",
"937 624 LINE",
"937 831 LINE",
"431 831 LINE",
"431 1232 LINE",
"1073 1232 LINE"
);
},
{
closed = 1;
nodes = (
"209 1861 LINE",
"528 1573 LINE SMOOTH",
"541.333 1561.67 OFFCURVE",
"553.5 1554.83 OFFCURVE",
"564.5 1552.5 CURVE SMOOTH",
"575.5 1550.17 OFFCURVE",
"590.667 1549 OFFCURVE",
"610 1549 CURVE SMOOTH",
"789 1549 LINE",
"571 1820 LINE SMOOTH",
"563.667 1829.33 OFFCURVE",
"556.667 1836.67 OFFCURVE",
"550 1842 CURVE SMOOTH",
"543.333 1847.33 OFFCURVE",
"536.167 1851.5 OFFCURVE",
"528.5 1854.5 CURVE SMOOTH",
"520.833 1857.5 OFFCURVE",
"512.167 1859.33 OFFCURVE",
"502.5 1860 CURVE SMOOTH",
"492.833 1860.67 OFFCURVE",
"481.333 1861 OFFCURVE",
"468 1861 CURVE SMOOTH"
);
}
);
width = 1150;
}
);
leftKerningGroup = B;
rightKerningGroup = E;
unicode = 00C8;
},
{
glyphname = F;
layers = (
{
layerId = "C25503A3-518C-4CE5-B03D-46F600126290";
name = Bold;
paths = (
{
closed = 1;
nodes = (
"1073 1446 LINE",
"161 1446 LINE",
"161 0 LINE",
"431 0 LINE",
"431 589 LINE",
"973 589 LINE",
"973 804 LINE",
"431 804 LINE",
"431 1232 LINE",
"1073 1232 LINE"
);
}
);
width = 1132;
}
);
leftKerningGroup = B;
rightKerningGroup = F;
unicode = 0046;
},
{
glyphname = G;
layers = (
{
layerId = "C25503A3-518C-4CE5-B03D-46F600126290";
name = Bold;
paths = (
{
closed = 1;
nodes = (
"1353 140 LINE",
"1353 725 LINE",
"873 725 LINE",
"873 573 LINE SMOOTH",
"873 559 OFFCURVE",
"877.833 547.167 OFFCURVE",
"887.5 537.5 CURVE SMOOTH",
"897.167 527.833 OFFCURVE",
"910.667 523 OFFCURVE",
"928 523 CURVE SMOOTH",
"1110 523 LINE",
"1110 260 LINE",
"1070 240.667 OFFCURVE",
"1029 225.5 OFFCURVE",
"987 214.5 CURVE SMOOTH",
"945 203.5 OFFCURVE",
"897.333 198 OFFCURVE",
"844 198 CURVE SMOOTH",
"769.333 198 OFFCURVE",
"701.667 209.833 OFFCURVE",
"641 233.5 CURVE SMOOTH",
"580.333 257.167 OFFCURVE",
"528.5 291.5 OFFCURVE",
"485.5 336.5 CURVE SMOOTH",
"442.5 381.5 OFFCURVE",
"409.167 436.5 OFFCURVE",
"385.5 501.5 CURVE SMOOTH",
"361.833 566.5 OFFCURVE",
"350 640.333 OFFCURVE",
"350 723 CURVE SMOOTH",
"350 800.333 OFFCURVE",
"361 870.333 OFFCURVE",
"383 933 CURVE SMOOTH",
"405 995.667 OFFCURVE",
"436.333 1049.33 OFFCURVE",
"477 1094 CURVE SMOOTH",
"517.667 1138.67 OFFCURVE",
"566.833 1173 OFFCURVE",
"624.5 1197 CURVE SMOOTH",
"682.167 1221 OFFCURVE",
"746.667 1233 OFFCURVE",
"818 1233 CURVE SMOOTH",
"862 1233 OFFCURVE",
"900.833 1230 OFFCURVE",
"934.5 1224 CURVE SMOOTH",
"968.167 1218 OFFCURVE",
"998.5 1210.33 OFFCURVE",
"1025.5 1201 CURVE SMOOTH",
"1052.5 1191.67 OFFCURVE",
"1077 1180.67 OFFCURVE",
"1099 1168 CURVE SMOOTH",
"1165 1130 LINE SMOOTH",
"1187.67 1116 OFFCURVE",
"1208.67 1111.17 OFFCURVE",
"1228 1115.5 CURVE SMOOTH",
"1247.33 1119.83 OFFCURVE",
"1263 1131.67 OFFCURVE",
"1275 1151 CURVE SMOOTH",
"1352 1273 LINE",
"1322 1301 OFFCURVE",
"1289 1326.67 OFFCURVE",
"1253 1350 CURVE SMOOTH",
"1217 1373.33 OFFCURVE",
"1177.17 1393.17 OFFCURVE",
"1133.5 1409.5 CURVE SMOOTH",
"1089.83 1425.83 OFFCURVE",
"1042.5 1438.67 OFFCURVE",
"991.5 1448 CURVE SMOOTH",
"940.5 1457.33 OFFCURVE",
"885.667 1462 OFFCURVE",
"827 1462 CURVE SMOOTH",
"711.667 1462 OFFCURVE",
"607.667 1444 OFFCURVE",
"515 1408 CURVE SMOOTH",
"422.333 1372 OFFCURVE",
"343.5 1321.33 OFFCURVE",
"278.5 1256 CURVE SMOOTH",
"213.5 1190.67 OFFCURVE",
"163.333 1112.67 OFFCURVE",
"128 1022 CURVE SMOOTH",
"92.6667 931.334 OFFCURVE",
"75 831.667 OFFCURVE",
"75 723 CURVE SMOOTH",
"75 615.667 OFFCURVE",
"93.3333 516.667 OFFCURVE",
"130 426 CURVE SMOOTH",
"166.667 335.334 OFFCURVE",
"218.833 257.334 OFFCURVE",
"286.5 192 CURVE SMOOTH",
"354.167 126.667 OFFCURVE",
"435.833 75.667 OFFCURVE",
"531.5 39 CURVE SMOOTH",
"627.167 2.33362 OFFCURVE",
"734 -16 OFFCURVE",
"852 -16 CURVE SMOOTH",
"946.667 -16 OFFCURVE",
"1035.5 -3 OFFCURVE",
"1118.5 21.5003 CURVE SMOOTH",
"1201.5 46.5003 OFFCURVE",
"1279.67 86 OFFCURVE",
"1353 140 CURVE"
);
}
);
width = 1452;
}
);
leftKerningGroup = C;
rightKerningGroup = G;
unicode = 0047;
},
{
glyphname = H;
layers = (
{
layerId = "C25503A3-518C-4CE5-B03D-46F600126290";
name = Bold;
paths = (
{
closed = 1;
nodes = (
"1380 0 LINE",
"1380 1446 LINE",
"1110 1446 LINE",
"1110 824 LINE",
"431 824 LINE",
"431 1446 LINE",
"161 1446 LINE",
"161 0 LINE",
"431 0 LINE",
"431 632 LINE",
"1110 632 LINE",
"1110 0 LINE"
);
}
);
width = 1541;
}
);
leftKerningGroup = B;
rightKerningGroup = H;
unicode = 0048;
},
{
glyphname = I;
layers = (
{
layerId = "C25503A3-518C-4CE5-B03D-46F600126290";
name = Bold;
paths = (
{
closed = 1;
nodes = (
"431 0 LINE",
"431 1446 LINE",
"161 1446 LINE",
"161 0 LINE"
);
}
);
width = 593;
}
);
leftKerningGroup = B;
rightKerningGroup = H;
unicode = 0049;
},
{
glyphname = Iacute;
layers = (
{
layerId = "C25503A3-518C-4CE5-B03D-46F600126290";
name = Bold;
paths = (
{
closed = 1;
nodes = (
"133 0 LINE"
);
},
{
closed = 1;
nodes = (
"431 0 LINE",
"431 1446 LINE",
"161 1446 LINE",
"161 0 LINE"
);
},
{
closed = 1;
nodes = (
"720 1861 LINE",
"445 1861 LINE SMOOTH",
"431.667 1861 OFFCURVE",
"420.167 1860.67 OFFCURVE",
"410.5 1860 CURVE SMOOTH",
"400.833 1859.33 OFFCURVE",
"392 1857.67 OFFCURVE",
"384 1855 CURVE SMOOTH",
"376 1852.33 OFFCURVE",
"368.667 1848.17 OFFCURVE",
"362 1842.5 CURVE SMOOTH",
"355.333 1836.83 OFFCURVE",
"348.667 1829.33 OFFCURVE",
"342 1820 CURVE",
"133 1549 LINE",
"312 1549 LINE SMOOTH",
"330.667 1549 OFFCURVE",
"346 1550.33 OFFCURVE",
"358 1553 CURVE SMOOTH",
"370 1555.67 OFFCURVE",
"382.667 1563 OFFCURVE",
"396 1575 CURVE SMOOTH"
);
}
);
width = 593;
}
);
leftKerningGroup = B;
rightKerningGroup = H;
unicode = 00CD;
},
{
glyphname = Icircumflex;
layers = (
{
layerId = "C25503A3-518C-4CE5-B03D-46F600126290";
name = Bold;
paths = (
{
closed = 1;
nodes = (
"0 0 LINE"
);
},
{
closed = 1;
nodes = (
"431 0 LINE",
"431 1446 LINE",
"161 1446 LINE",
"161 0 LINE"
);
},
{
closed = 1;
nodes = (
"657 1549 LINE",
"416 1824 LINE",
"192 1824 LINE",
"-49 1549 LINE",
"122 1549 LINE SMOOTH",
"132 1549 OFFCURVE",
"144.167 1550.83 OFFCURVE",
"158.5 1554.5 CURVE SMOOTH",
"172.833 1558.17 OFFCURVE",
"187.667 1569 OFFCURVE",
"203 1587 CURVE",
"285 1693 LINE",
"300 1715 LINE",
"302 1711.67 OFFCURVE",
"304.167 1708 OFFCURVE",
"306.5 1704 CURVE SMOOTH",
"308.833 1700 OFFCURVE",
"311.667 1696.33 OFFCURVE",
"315 1693 CURVE",
"397 1587 LINE",
"412.333 1569 OFFCURVE",
"427.167 1558.17 OFFCURVE",
"441.5 1554.5 CURVE SMOOTH",
"455.833 1550.83 OFFCURVE",
"468 1549 OFFCURVE",
"478 1549 CURVE SMOOTH"
);
}
);
width = 593;
}
);
leftKerningGroup = B;
rightKerningGroup = H;
unicode = 00CE;
},
{
glyphname = Idieresis;
layers = (
{
layerId = "C25503A3-518C-4CE5-B03D-46F600126290";
name = Bold;
paths = (
{
closed = 1;
nodes = (
"0 0 LINE"
);
},
{
closed = 1;
nodes = (
"431 0 LINE",
"431 1446 LINE",
"161 1446 LINE",
"161 0 LINE"
);
},
{
closed = 1;
nodes = (
"214 1685 OFFCURVE",
"210.333 1702.17 OFFCURVE",
"203 1718.5 CURVE SMOOTH",
"195.667 1734.83 OFFCURVE",
"185.833 1749.17 OFFCURVE",
"173.5 1761.5 CURVE SMOOTH",
"161.167 1773.83 OFFCURVE",
"146.667 1783.67 OFFCURVE",
"130 1791 CURVE SMOOTH",
"113.333 1798.33 OFFCURVE",
"95.6667 1802 OFFCURVE",
"77 1802 CURVE SMOOTH",
"59.6667 1802 OFFCURVE",
"43.1667 1798.33 OFFCURVE",
"27.5 1791 CURVE SMOOTH",
"11.8333 1783.67 OFFCURVE",
"-2 1773.83 OFFCURVE",
"-14 1761.5 CURVE SMOOTH",
"-26 1749.17 OFFCURVE",
"-36 1734.83 OFFCURVE",
"-43 1718.5 CURVE SMOOTH",
"-50 1702.17 OFFCURVE",
"-54 1685 OFFCURVE",
"-54 1667 CURVE SMOOTH",
"-54 1649 OFFCURVE",
"-50 1632 OFFCURVE",
"-43 1616 CURVE SMOOTH",
"-36 1600 OFFCURVE",
"-26 1586 OFFCURVE",
"-14 1574 CURVE SMOOTH",
"-2 1562 OFFCURVE",
"11.8333 1552.67 OFFCURVE",
"27.5 1546 CURVE SMOOTH",
"43.1667 1539.33 OFFCURVE",
"59.6667 1536 OFFCURVE",
"77 1536 CURVE SMOOTH",
"95.6667 1536 OFFCURVE",
"113.333 1539.33 OFFCURVE",
"130 1546 CURVE SMOOTH",
"146.667 1552.67 OFFCURVE",
"161.167 1562 OFFCURVE",
"173.5 1574 CURVE SMOOTH",
"185.833 1586 OFFCURVE",
"195.667 1600 OFFCURVE",
"203 1616 CURVE SMOOTH",
"210.333 1632 OFFCURVE",
"214 1649 OFFCURVE",
"214 1667 CURVE SMOOTH"
);
},
{
closed = 1;
nodes = (
"654 1685 OFFCURVE",
"650.5 1702.17 OFFCURVE",
"643.5 1718.5 CURVE SMOOTH",
"636.5 1734.83 OFFCURVE",
"626.833 1749.17 OFFCURVE",
"614.5 1761.5 CURVE SMOOTH",
"602.167 1773.83 OFFCURVE",
"587.833 1783.67 OFFCURVE",
"571.5 1791 CURVE SMOOTH",
"555.167 1798.33 OFFCURVE",
"538 1802 OFFCURVE",
"520 1802 CURVE SMOOTH",
"501.333 1802 OFFCURVE",
"483.833 1798.33 OFFCURVE",
"467.5 1791 CURVE SMOOTH",
"451.167 1783.67 OFFCURVE",
"437 1773.83 OFFCURVE",
"425 1761.5 CURVE SMOOTH",
"413 1749.17 OFFCURVE",
"403.5 1734.83 OFFCURVE",
"396.5 1718.5 CURVE SMOOTH",
"389.5 1702.17 OFFCURVE",
"386 1685 OFFCURVE",
"386 1667 CURVE SMOOTH",
"386 1649 OFFCURVE",
"389.5 1632 OFFCURVE",
"396.5 1616 CURVE SMOOTH",
"403.5 1600 OFFCURVE",
"413 1586 OFFCURVE",
"425 1574 CURVE SMOOTH",
"437 1562 OFFCURVE",
"451.167 1552.67 OFFCURVE",
"467.5 1546 CURVE SMOOTH",
"483.833 1539.33 OFFCURVE",
"501.333 1536 OFFCURVE",
"520 1536 CURVE SMOOTH",
"538 1536 OFFCURVE",
"555.167 1539.33 OFFCURVE",
"571.5 1546 CURVE SMOOTH",
"587.833 1552.67 OFFCURVE",
"602.167 1562 OFFCURVE",
"614.5 1574 CURVE SMOOTH",
"626.833 1586 OFFCURVE",
"636.5 1600 OFFCURVE",
"643.5 1616 CURVE SMOOTH",
"650.5 1632 OFFCURVE",
"654 1649 OFFCURVE",
"654 1667 CURVE SMOOTH"
);
}
);
width = 593;
}
);
leftKerningGroup = B;
rightKerningGroup = H;
unicode = 00CF;
},
{
glyphname = Igrave;
layers = (
{
layerId = "C25503A3-518C-4CE5-B03D-46F600126290";
name = Bold;
paths = (
{
closed = 1;
nodes = (
"0 0 LINE"
);
},
{
closed = 1;
nodes = (
"431 0 LINE",
"431 1446 LINE",
"161 1446 LINE",
"161 0 LINE"
);
},
{
closed = 1;
nodes = (
"-123 1861 LINE",
"196 1573 LINE SMOOTH",
"209.333 1561.67 OFFCURVE",
"221.5 1554.83 OFFCURVE",
"232.5 1552.5 CURVE SMOOTH",
"243.5 1550.17 OFFCURVE",
"258.667 1549 OFFCURVE",
"278 1549 CURVE SMOOTH",
"457 1549 LINE",
"239 1820 LINE SMOOTH",
"231.667 1829.33 OFFCURVE",
"224.667 1836.67 OFFCURVE",
"218 1842 CURVE SMOOTH",
"211.333 1847.33 OFFCURVE",
"204.167 1851.5 OFFCURVE",
"196.5 1854.5 CURVE SMOOTH",
"188.833 1857.5 OFFCURVE",
"180.167 1859.33 OFFCURVE",
"170.5 1860 CURVE SMOOTH",
"160.833 1860.67 OFFCURVE",
"149.333 1861 OFFCURVE",
"136 1861 CURVE SMOOTH"
);
}
);
width = 593;
}
);
leftKerningGroup = B;
rightKerningGroup = H;
unicode = 00CC;
},
{
glyphname = J;
lastChange = "2014-08-19 02:11:58 -0500";
layers = (
{
layerId = "C25503A3-518C-4CE5-B03D-46F600126290";
name = Bold;
paths = (
{
closed = 1;
nodes = (
"723 1446 LINE",
"723 508 LINE SMOOTH",
"723 453 OFFCURVE",
"718 407 OFFCURVE",
"708 369 CURVE SMOOTH",
"698 330 OFFCURVE",
"683 299 OFFCURVE",
"664 275 CURVE SMOOTH",
"644 251 OFFCURVE",
"619 234 OFFCURVE",
"590 223 CURVE SMOOTH",
"561 212 OFFCURVE",
"527 206 OFFCURVE",
"489 206 CURVE",
"472 207 LINE",
"443 210 OFFCURVE",
"418 216 OFFCURVE",
"395 224 CURVE",
"363 237 OFFCURVE",
"329 253 OFFCURVE",
"302 270 CURVE SMOOTH",
"275 286 OFFCURVE",
"252 302 OFFCURVE",
"233 315 CURVE SMOOTH",
"213 329 OFFCURVE",
"195 336 OFFCURVE",
"179 336 CURVE SMOOTH",
"167 336 OFFCURVE",
"155 333 OFFCURVE",
"145 326 CURVE",
"134 320 OFFCURVE",
"125 312 OFFCURVE",
"119 303 CURVE",
"40 174 LINE",
"68 145 OFFCURVE",
"100 119 OFFCURVE",
"136 96 CURVE SMOOTH",
"172 72 OFFCURVE",
"210 52 OFFCURVE",
"251 36 CURVE SMOOTH",
"292 19 OFFCURVE",
"335 6 OFFCURVE",
"380 -2 CURVE SMOOTH",
"424 -11 OFFCURVE",
"470 -16 OFFCURVE",
"516 -16 CURVE",
"516 -16 LINE",
"596 -16 OFFCURVE",
"665 -4 OFFCURVE",
"724 21 CURVE SMOOTH",
"783 46 OFFCURVE",
"833 81 OFFCURVE",
"873 127 CURVE SMOOTH",
"912 173 OFFCURVE",
"942 229 OFFCURVE",
"962 294 CURVE SMOOTH",
"982 359 OFFCURVE",
"992 433 OFFCURVE",
"992 514 CURVE SMOOTH",
"992 1446 LINE"
);
}
);
width = 1139;
}
);
leftKerningGroup = J;
rightKerningGroup = J;
unicode = 004A;
},
{
glyphname = K;
layers = (
{
layerId = "C25503A3-518C-4CE5-B03D-46F600126290";
name = Bold;
paths = (
{
closed = 1;
nodes = (
"430 840 LINE",
"430 1446 LINE",
"161 1446 LINE",
"161 0 LINE",
"430 0 LINE",
"430 636 LINE",
"515 636 LINE SMOOTH",
"546.333 636 OFFCURVE",
"570.333 632.333 OFFCURVE",
"587 625 CURVE SMOOTH",
"603.667 617.667 OFFCURVE",
"618.333 605 OFFCURVE",
"631 587 CURVE",
"1040 53 LINE",
"1050.67 35.6667 OFFCURVE",
"1063.83 22.5 OFFCURVE",
"1079.5 13.5 CURVE SMOOTH",
"1095.17 4.5 OFFCURVE",
"1119 0 OFFCURVE",
"1151 0 CURVE SMOOTH",
"1388 0 LINE",
"886 677 LINE",
"870 700.333 OFFCURVE",
"853.167 719.167 OFFCURVE",
"835.5 733.5 CURVE SMOOTH",
"817.833 747.833 OFFCURVE",
"798 759 OFFCURVE",
"776 767 CURVE",
"806.667 782.333 OFFCURVE",
"836.333 808.333 OFFCURVE",
"865 845 CURVE SMOOTH",
"1352 1446 LINE",
"1120 1446 LINE SMOOTH",
"1092 1446 OFFCURVE",
"1068.83 1441.83 OFFCURVE",
"1050.5 1433.5 CURVE SMOOTH",
"1032.17 1425.17 OFFCURVE",
"1014.67 1410.33 OFFCURVE",
"998 1389 CURVE SMOOTH",
"599 884 LINE SMOOTH",
"587 868.667 OFFCURVE",
"572.667 857.5 OFFCURVE",
"556 850.5 CURVE SMOOTH",
"539.333 843.5 OFFCURVE",
"518.333 840 OFFCURVE",
"493 840 CURVE SMOOTH"
);
}
);
width = 1371;
}
);
leftKerningGroup = B;
rightKerningGroup = K;
unicode = 004B;
},
{
glyphname = L;
layers = (
{
layerId = "C25503A3-518C-4CE5-B03D-46F600126290";
name = Bold;
paths = (
{
closed = 1;
nodes = (
"430 222 LINE",
"430 1446 LINE",
"161 1446 LINE",
"161 0 LINE",
"1008 0 LINE",
"1008 222 LINE"
);
}
);
width = 1039;
}
);
leftKerningGroup = B;
rightKerningGroup = L;
unicode = 004C;
},
{
glyphname = M;
layers = (
{
layerId = "C25503A3-518C-4CE5-B03D-46F600126290";
name = Bold;
paths = (
{
closed = 1;
nodes = (
"887 600 LINE",
"454 1403 LINE SMOOTH",
"448.667 1413 OFFCURVE",
"443.167 1421 OFFCURVE",
"437.5 1427 CURVE SMOOTH",
"431.833 1433 OFFCURVE",
"425.5 1437.33 OFFCURVE",
"418.5 1440 CURVE SMOOTH",
"411.5 1442.67 OFFCURVE",
"403.667 1444.33 OFFCURVE",
"395 1445 CURVE SMOOTH",
"386.333 1445.67 OFFCURVE",
"376 1446 OFFCURVE",
"364 1446 CURVE SMOOTH",
"161 1446 LINE",
"161 0 LINE",
"398 0 LINE",
"398 934 LINE SMOOTH",
"398 952 OFFCURVE",
"397.333 971.5 OFFCURVE",
"396 992.5 CURVE SMOOTH",
"394.667 1013.5 OFFCURVE",
"393 1035 OFFCURVE",
"391 1057 CURVE",
"833 234 LINE SMOOTH",
"853.667 194.667 OFFCURVE",
"885.333 175 OFFCURVE",
"928 175 CURVE SMOOTH",
"966 175 LINE SMOOTH",
"1008.67 175 OFFCURVE",
"1040.33 194.667 OFFCURVE",
"1061 234 CURVE SMOOTH",
"1498 1054 LINE",
"1496 1032.67 OFFCURVE",
"1494.5 1011.67 OFFCURVE",
"1493.5 991 CURVE SMOOTH",
"1492.5 970.333 OFFCURVE",
"1492 951.333 OFFCURVE",
"1492 934 CURVE SMOOTH",
"1492 0 LINE",
"1729 0 LINE",
"1729 1446 LINE",
"1526 1446 LINE SMOOTH",
"1514 1446 OFFCURVE",
"1503.67 1445.67 OFFCURVE",
"1495 1445 CURVE SMOOTH",
"1486.33 1444.33 OFFCURVE",
"1478.5 1442.67 OFFCURVE",
"1471.5 1440 CURVE SMOOTH",
"1464.5 1437.33 OFFCURVE",
"1458 1433 OFFCURVE",
"1452 1427 CURVE SMOOTH",
"1446 1421 OFFCURVE",
"1440.33 1413 OFFCURVE",
"1435 1403 CURVE SMOOTH",
"1008 602 LINE SMOOTH",
"996.667 580.667 OFFCURVE",
"986 558.5 OFFCURVE",
"976 535.5 CURVE SMOOTH",
"966 512.5 OFFCURVE",
"956.333 488.667 OFFCURVE",
"947 464 CURVE",
"937.667 487.333 OFFCURVE",
"928.167 510.5 OFFCURVE",
"918.5 533.5 CURVE SMOOTH",
"908.833 556.5 OFFCURVE",
"898.333 578.667 OFFCURVE",
"887 600 CURVE"
);
}
);
width = 1890;
}
);
leftKerningGroup = B;
rightKerningGroup = H;
unicode = 004D;
},
{
glyphname = N;
layers = (
{
layerId = "C25503A3-518C-4CE5-B03D-46F600126290";
name = Bold;
paths = (
{
closed = 1;
nodes = (
"302 1446 LINE",
"161 1446 LINE",
"161 0 LINE",
"398 0 LINE",
"398 888 LINE SMOOTH",
"398 905.333 OFFCURVE",
"397.5 924.5 OFFCURVE",
"396.5 945.5 CURVE SMOOTH",
"395.5 966.5 OFFCURVE",
"394 987.667 OFFCURVE",
"392 1009 CURVE",
"1147 46 LINE SMOOTH",
"1160.33 29.3333 OFFCURVE",
"1174.17 17.5 OFFCURVE",
"1188.5 10.5 CURVE SMOOTH",
"1202.83 3.5 OFFCURVE",
"1220.67 0 OFFCURVE",
"1242 0 CURVE SMOOTH",
"1380 0 LINE",
"1380 1446 LINE",
"1143 1446 LINE",
"1143 567 LINE SMOOTH",
"1143 547.667 OFFCURVE",
"1143.67 526.667 OFFCURVE",
"1145 504 CURVE SMOOTH",
"1146.33 481.333 OFFCURVE",
"1148 458.333 OFFCURVE",
"1150 435 CURVE",
"392 1403 LINE SMOOTH",
"384.667 1412.33 OFFCURVE",
"378 1419.83 OFFCURVE",
"372 1425.5 CURVE SMOOTH",
"366 1431.17 OFFCURVE",
"359.834 1435.5 OFFCURVE",
"353.5 1438.5 CURVE SMOOTH",
"347.167 1441.5 OFFCURVE",
"339.834 1443.5 OFFCURVE",
"331.5 1444.5 CURVE SMOOTH",
"323.167 1445.5 OFFCURVE",
"313.334 1446 OFFCURVE",
"302 1446 CURVE SMOOTH"
);
}
);
width = 1541;
}
);
leftKerningGroup = B;
rightKerningGroup = H;
unicode = 004E;
},
{
glyphname = Ntilde;
lastChange = "2014-08-18 21:02:39 -0500";
layers = (
{
layerId = "C25503A3-518C-4CE5-B03D-46F600126290";
name = Bold;
paths = (
{
closed = 1;
nodes = (
"161 1446 LINE",
"161 0 LINE",
"398 0 LINE",
"398 888 LINE SMOOTH",
"398 905.333 OFFCURVE",
"397.5 924.5 OFFCURVE",
"396.5 945.5 CURVE SMOOTH",
"395.5 966.5 OFFCURVE",
"394 987.667 OFFCURVE",
"392 1009 CURVE",
"1147 46 LINE SMOOTH",
"1160.33 29.333 OFFCURVE",
"1174.17 17.5 OFFCURVE",
"1188.5 10.5 CURVE SMOOTH",
"1202.83 3.5 OFFCURVE",
"1220.67 0 OFFCURVE",
"1242 0 CURVE SMOOTH",
"1380 0 LINE",
"1380 1446 LINE",
"1143 1446 LINE",
"1143 567 LINE SMOOTH",
"1143 547.667 OFFCURVE",
"1143.67 526.667 OFFCURVE",
"1145 504 CURVE SMOOTH",
"1146.33 481.333 OFFCURVE",
"1148 458.333 OFFCURVE",
"1150 435 CURVE",
"392 1403 LINE SMOOTH",
"384.667 1412.33 OFFCURVE",
"378 1419.83 OFFCURVE",
"372 1425.5 CURVE SMOOTH",
"366 1431.17 OFFCURVE",
"359.834 1435.5 OFFCURVE",
"353.5 1438.5 CURVE SMOOTH",
"347.167 1441.5 OFFCURVE",
"339.834 1443.5 OFFCURVE",
"331.5 1444.5 CURVE SMOOTH",
"323.167 1445.5 OFFCURVE",
"313.334 1446 OFFCURVE",
"302 1446 CURVE SMOOTH"
);
},
{
closed = 1;
nodes = (
"886 1699 OFFCURVE",
"868.334 1704.33 OFFCURVE",
"851 1715 CURVE SMOOTH",
"833.667 1725.67 OFFCURVE",
"815 1737.17 OFFCURVE",
"795 1749.5 CURVE SMOOTH",
"775 1761.83 OFFCURVE",
"752.334 1773.33 OFFCURVE",
"727 1784 CURVE SMOOTH",
"701.667 1794.67 OFFCURVE",
"672 1800 OFFCURVE",
"638 1800 CURVE SMOOTH",
"604.667 1800 OFFCURVE",
"575.167 1792.83 OFFCURVE",
"549.5 1778.5 CURVE SMOOTH",
"523.834 1764.17 OFFCURVE",
"502.167 1745.17 OFFCURVE",
"484.5 1721.5 CURVE SMOOTH",
"466.834 1697.83 OFFCURVE",
"453.334 1670.5 OFFCURVE",
"444 1639.5 CURVE SMOOTH",
"434.667 1608.5 OFFCURVE",
"430 1576.67 OFFCURVE",
"430 1544 CURVE",
"583 1544 LINE",
"583 1554.67 OFFCURVE",
"584.667 1565.67 OFFCURVE",
"588 1577 CURVE SMOOTH",
"591.334 1588.33 OFFCURVE",
"596.334 1598.67 OFFCURVE",
"603 1608 CURVE SMOOTH",
"609.667 1617.33 OFFCURVE",
"618.334 1625 OFFCURVE",
"629 1631 CURVE SMOOTH",
"639.667 1637 OFFCURVE",
"652.667 1640 OFFCURVE",
"668 1640 CURVE SMOOTH",
"686 1640 OFFCURVE",
"703.5 1634.67 OFFCURVE",
"720.5 1624 CURVE SMOOTH",
"737.5 1613.33 OFFCURVE",
"756.334 1601.83 OFFCURVE",
"777 1589.5 CURVE SMOOTH",
"797.667 1577.17 OFFCURVE",
"820.5 1565.67 OFFCURVE",
"845.5 1555 CURVE SMOOTH",
"870.5 1544.33 OFFCURVE",
"900 1539 OFFCURVE",
"934 1539 CURVE SMOOTH",
"967.334 1539 OFFCURVE",
"996.834 1546 OFFCURVE",
"1022.5 1560 CURVE SMOOTH",
"1048.17 1574 OFFCURVE",
"1069.83 1592.83 OFFCURVE",
"1087.5 1616.5 CURVE SMOOTH",
"1105.17 1640.17 OFFCURVE",
"1118.5 1667.17 OFFCURVE",
"1127.5 1697.5 CURVE SMOOTH",
"1136.5 1727.83 OFFCURVE",
"1141 1759.67 OFFCURVE",
"1141 1793 CURVE",
"990 1793 LINE",
"990 1782.33 OFFCURVE",
"988.334 1771.5 OFFCURVE",
"985 1760.5 CURVE SMOOTH",
"981.667 1749.5 OFFCURVE",
"976.5 1739.5 OFFCURVE",
"969.5 1730.5 CURVE SMOOTH",
"962.5 1721.5 OFFCURVE",
"953.5 1714 OFFCURVE",
"942.5 1708 CURVE SMOOTH",
"931.5 1702 OFFCURVE",
"918.667 1699 OFFCURVE",
"904 1699 CURVE SMOOTH"
);
}
);
width = 1541;
}
);
leftKerningGroup = B;
rightKerningGroup = H;
unicode = 00D1;
},
{
glyphname = O;
layers = (
{
layerId = "C25503A3-518C-4CE5-B03D-46F600126290";
name = Bold;
paths = (
{
closed = 1;
nodes = (
"1540 793.667 OFFCURVE",
"1532.17 861 OFFCURVE",
"1516.5 925 CURVE SMOOTH",
"1500.83 989 OFFCURVE",
"1478 1048.33 OFFCURVE",
"1448 1103 CURVE SMOOTH",
"1418 1157.67 OFFCURVE",
"1381.5 1207.17 OFFCURVE",
"1338.5 1251.5 CURVE SMOOTH",
"1295.5 1295.83 OFFCURVE",
"1247 1333.5 OFFCURVE",
"1193 1364.5 CURVE SMOOTH",
"1139 1395.5 OFFCURVE",
"1079.67 1419.5 OFFCURVE",
"1015 1436.5 CURVE SMOOTH",
"950.333 1453.5 OFFCURVE",
"881.333 1462 OFFCURVE",
"808 1462 CURVE SMOOTH",
"698.667 1462 OFFCURVE",
"599 1443.5 OFFCURVE",
"509 1406.5 CURVE SMOOTH",
"419 1369.5 OFFCURVE",
"341.833 1318 OFFCURVE",
"277.5 1252 CURVE SMOOTH",
"213.167 1186 OFFCURVE",
"163.333 1107.83 OFFCURVE",
"128 1017.5 CURVE SMOOTH",
"92.6666 927.167 OFFCURVE",
"74.9999 829 OFFCURVE",
"74.9999 723 CURVE SMOOTH",
"74.9999 617 OFFCURVE",
"92.6666 518.833 OFFCURVE",
"128 428.5 CURVE SMOOTH",
"163.333 338.167 OFFCURVE",
"213.167 260 OFFCURVE",
"277.5 194 CURVE SMOOTH",
"341.833 128 OFFCURVE",
"419 76.5001 OFFCURVE",
"509 39.5001 CURVE SMOOTH",
"599 2.50006 OFFCURVE",
"698.667 -16 OFFCURVE",
"808 -16 CURVE SMOOTH",
"918 -16 OFFCURVE",
"1018 2.50006 OFFCURVE",
"1108 39.5001 CURVE SMOOTH",
"1198 76.5001 OFFCURVE",
"1275 128 OFFCURVE",
"1339 194 CURVE SMOOTH",
"1403 260 OFFCURVE",
"1452.5 338.167 OFFCURVE",
"1487.5 428.5 CURVE SMOOTH",
"1522.5 518.833 OFFCURVE",
"1540 617 OFFCURVE",
"1540 723 CURVE SMOOTH"
);
},
{
closed = 1;
nodes = (
"1265 643.667 OFFCURVE",
"1254.33 572.5 OFFCURVE",
"1233 509.5 CURVE SMOOTH",
"1211.67 446.5 OFFCURVE",
"1181.33 393.167 OFFCURVE",
"1142 349.5 CURVE SMOOTH",
"1102.67 305.833 OFFCURVE",
"1054.83 272.333 OFFCURVE",
"998.5 249 CURVE SMOOTH",
"942.167 225.667 OFFCURVE",
"878.667 214 OFFCURVE",
"808 214 CURVE SMOOTH",
"737.333 214 OFFCURVE",
"673.833 225.667 OFFCURVE",
"617.5 249 CURVE SMOOTH",
"561.167 272.333 OFFCURVE",
"513.167 305.833 OFFCURVE",
"473.5 349.5 CURVE SMOOTH",
"433.833 393.167 OFFCURVE",
"403.333 446.5 OFFCURVE",
"382 509.5 CURVE SMOOTH",
"360.667 572.5 OFFCURVE",
"350 643.667 OFFCURVE",
"350 723 CURVE SMOOTH",
"350 802.333 OFFCURVE",
"360.667 873.5 OFFCURVE",
"382 936.5 CURVE SMOOTH",
"403.333 999.5 OFFCURVE",
"433.833 1053 OFFCURVE",
"473.5 1097 CURVE SMOOTH",
"513.167 1141 OFFCURVE",
"561.167 1174.67 OFFCURVE",
"617.5 1198 CURVE SMOOTH",
"673.833 1221.33 OFFCURVE",
"737.333 1233 OFFCURVE",
"808 1233 CURVE SMOOTH",
"878.667 1233 OFFCURVE",
"942.167 1221.33 OFFCURVE",
"998.5 1198 CURVE SMOOTH",
"1054.83 1174.67 OFFCURVE",
"1102.67 1141 OFFCURVE",
"1142 1097 CURVE SMOOTH",
"1181.33 1053 OFFCURVE",
"1211.67 999.5 OFFCURVE",
"1233 936.5 CURVE SMOOTH",
"1254.33 873.5 OFFCURVE",
"1265 802.333 OFFCURVE",
"1265 723 CURVE SMOOTH"
);
}
);
width = 1616;
}
);
leftKerningGroup = C;
rightKerningGroup = O;
unicode = 004F;
},
{
glyphname = Oacute;
layers = (
{
layerId = "C25503A3-518C-4CE5-B03D-46F600126290";
name = Bold;
paths = (
{
closed = 1;
nodes = (
"75 0 LINE"
);
},
{
closed = 1;
nodes = (
"1540 793.667 OFFCURVE",
"1532.17 861 OFFCURVE",
"1516.5 925 CURVE SMOOTH",
"1500.83 989 OFFCURVE",
"1478 1048.33 OFFCURVE",
"1448 1103 CURVE SMOOTH",
"1418 1157.67 OFFCURVE",
"1381.5 1207.17 OFFCURVE",
"1338.5 1251.5 CURVE SMOOTH",
"1295.5 1295.83 OFFCURVE",
"1247 1333.5 OFFCURVE",
"1193 1364.5 CURVE SMOOTH",
"1139 1395.5 OFFCURVE",
"1079.67 1419.5 OFFCURVE",
"1015 1436.5 CURVE SMOOTH",
"950.333 1453.5 OFFCURVE",
"881.333 1462 OFFCURVE",
"808 1462 CURVE SMOOTH",
"698.667 1462 OFFCURVE",
"599 1443.5 OFFCURVE",
"509 1406.5 CURVE SMOOTH",
"419 1369.5 OFFCURVE",
"341.833 1318 OFFCURVE",
"277.5 1252 CURVE SMOOTH",
"213.167 1186 OFFCURVE",
"163.333 1107.83 OFFCURVE",
"128 1017.5 CURVE SMOOTH",
"92.6666 927.167 OFFCURVE",
"74.9999 829 OFFCURVE",
"74.9999 723 CURVE SMOOTH",
"74.9999 617 OFFCURVE",
"92.6666 518.833 OFFCURVE",
"128 428.5 CURVE SMOOTH",
"163.333 338.167 OFFCURVE",
"213.167 260 OFFCURVE",
"277.5 194 CURVE SMOOTH",
"341.833 128 OFFCURVE",
"419 76.5001 OFFCURVE",
"509 39.5001 CURVE SMOOTH",
"599 2.50006 OFFCURVE",
"698.667 -16 OFFCURVE",
"808 -16 CURVE SMOOTH",
"918 -16 OFFCURVE",
"1018 2.50006 OFFCURVE",
"1108 39.5001 CURVE SMOOTH",
"1198 76.5001 OFFCURVE",
"1275 128 OFFCURVE",
"1339 194 CURVE SMOOTH",
"1403 260 OFFCURVE",
"1452.5 338.167 OFFCURVE",
"1487.5 428.5 CURVE SMOOTH",
"1522.5 518.833 OFFCURVE",
"1540 617 OFFCURVE",
"1540 723 CURVE SMOOTH"
);
},
{
closed = 1;
nodes = (
"1265 643.667 OFFCURVE",
"1254.33 572.5 OFFCURVE",
"1233 509.5 CURVE SMOOTH",
"1211.67 446.5 OFFCURVE",
"1181.33 393.167 OFFCURVE",
"1142 349.5 CURVE SMOOTH",
"1102.67 305.833 OFFCURVE",
"1054.83 272.333 OFFCURVE",
"998.5 249 CURVE SMOOTH",
"942.167 225.667 OFFCURVE",
"878.667 214 OFFCURVE",
"808 214 CURVE SMOOTH",
"737.333 214 OFFCURVE",
"673.833 225.667 OFFCURVE",
"617.5 249 CURVE SMOOTH",
"561.167 272.333 OFFCURVE",
"513.167 305.833 OFFCURVE",
"473.5 349.5 CURVE SMOOTH",
"433.833 393.167 OFFCURVE",
"403.333 446.5 OFFCURVE",
"382 509.5 CURVE SMOOTH",
"360.667 572.5 OFFCURVE",
"350 643.667 OFFCURVE",
"350 723 CURVE SMOOTH",
"350 802.333 OFFCURVE",
"360.667 873.5 OFFCURVE",
"382 936.5 CURVE SMOOTH",
"403.333 999.5 OFFCURVE",
"433.833 1053 OFFCURVE",
"473.5 1097 CURVE SMOOTH",
"513.167 1141 OFFCURVE",
"561.167 1174.67 OFFCURVE",
"617.5 1198 CURVE SMOOTH",
"673.833 1221.33 OFFCURVE",
"737.333 1233 OFFCURVE",
"808 1233 CURVE SMOOTH",
"878.667 1233 OFFCURVE",
"942.167 1221.33 OFFCURVE",
"998.5 1198 CURVE SMOOTH",
"1054.83 1174.67 OFFCURVE",
"1102.67 1141 OFFCURVE",
"1142 1097 CURVE SMOOTH",
"1181.33 1053 OFFCURVE",
"1211.67 999.5 OFFCURVE",
"1233 936.5 CURVE SMOOTH",
"1254.33 873.5 OFFCURVE",
"1265 802.333 OFFCURVE",
"1265 723 CURVE SMOOTH"
);
},
{
closed = 1;
nodes = (
"1230 1861 LINE",
"955 1861 LINE SMOOTH",
"941.667 1861 OFFCURVE",
"930.167 1860.67 OFFCURVE",
"920.5 1860 CURVE SMOOTH",
"910.833 1859.33 OFFCURVE",
"902 1857.67 OFFCURVE",
"894 1855 CURVE SMOOTH",
"886 1852.33 OFFCURVE",
"878.667 1848.17 OFFCURVE",
"872 1842.5 CURVE SMOOTH",
"865.333 1836.83 OFFCURVE",
"858.667 1829.33 OFFCURVE",
"852 1820 CURVE",
"643 1549 LINE",
"822 1549 LINE SMOOTH",
"840.667 1549 OFFCURVE",
"856 1550.33 OFFCURVE",
"868 1553 CURVE SMOOTH",
"880 1555.67 OFFCURVE",
"892.667 1563 OFFCURVE",
"906 1575 CURVE SMOOTH"
);
}
);
width = 1616;
}
);
leftKerningGroup = C;
rightKerningGroup = O;
unicode = 00D3;
},
{
glyphname = Ocircumflex;
layers = (
{
layerId = "C25503A3-518C-4CE5-B03D-46F600126290";
name = Bold;
paths = (
{
closed = 1;
nodes = (
"75 0 LINE"
);
},
{
closed = 1;
nodes = (
"1540 793.667 OFFCURVE",
"1532.17 861 OFFCURVE",
"1516.5 925 CURVE SMOOTH",
"1500.83 989 OFFCURVE",
"1478 1048.33 OFFCURVE",
"1448 1103 CURVE SMOOTH",
"1418 1157.67 OFFCURVE",
"1381.5 1207.17 OFFCURVE",
"1338.5 1251.5 CURVE SMOOTH",
"1295.5 1295.83 OFFCURVE",
"1247 1333.5 OFFCURVE",
"1193 1364.5 CURVE SMOOTH",
"1139 1395.5 OFFCURVE",
"1079.67 1419.5 OFFCURVE",
"1015 1436.5 CURVE SMOOTH",
"950.333 1453.5 OFFCURVE",
"881.333 1462 OFFCURVE",
"808 1462 CURVE SMOOTH",
"698.667 1462 OFFCURVE",
"599 1443.5 OFFCURVE",
"509 1406.5 CURVE SMOOTH",
"419 1369.5 OFFCURVE",
"341.833 1318 OFFCURVE",
"277.5 1252 CURVE SMOOTH",
"213.167 1186 OFFCURVE",
"163.333 1107.83 OFFCURVE",
"128 1017.5 CURVE SMOOTH",
"92.6666 927.167 OFFCURVE",
"74.9999 829 OFFCURVE",
"74.9999 723 CURVE SMOOTH",
"74.9999 617 OFFCURVE",
"92.6666 518.833 OFFCURVE",
"128 428.5 CURVE SMOOTH",
"163.333 338.167 OFFCURVE",
"213.167 260 OFFCURVE",
"277.5 194 CURVE SMOOTH",
"341.833 128 OFFCURVE",
"419 76.5001 OFFCURVE",
"509 39.5001 CURVE SMOOTH",
"599 2.50006 OFFCURVE",
"698.667 -16 OFFCURVE",
"808 -16 CURVE SMOOTH",
"918 -16 OFFCURVE",
"1018 2.50006 OFFCURVE",
"1108 39.5001 CURVE SMOOTH",
"1198 76.5001 OFFCURVE",
"1275 128 OFFCURVE",
"1339 194 CURVE SMOOTH",
"1403 260 OFFCURVE",
"1452.5 338.167 OFFCURVE",
"1487.5 428.5 CURVE SMOOTH",
"1522.5 518.833 OFFCURVE",
"1540 617 OFFCURVE",
"1540 723 CURVE SMOOTH"
);
},
{
closed = 1;
nodes = (
"1265 643.667 OFFCURVE",
"1254.33 572.5 OFFCURVE",
"1233 509.5 CURVE SMOOTH",
"1211.67 446.5 OFFCURVE",
"1181.33 393.167 OFFCURVE",
"1142 349.5 CURVE SMOOTH",
"1102.67 305.833 OFFCURVE",
"1054.83 272.333 OFFCURVE",
"998.5 249 CURVE SMOOTH",
"942.167 225.667 OFFCURVE",
"878.667 214 OFFCURVE",
"808 214 CURVE SMOOTH",
"737.333 214 OFFCURVE",
"673.833 225.667 OFFCURVE",
"617.5 249 CURVE SMOOTH",
"561.167 272.333 OFFCURVE",
"513.167 305.833 OFFCURVE",
"473.5 349.5 CURVE SMOOTH",
"433.833 393.167 OFFCURVE",
"403.333 446.5 OFFCURVE",
"382 509.5 CURVE SMOOTH",
"360.667 572.5 OFFCURVE",
"350 643.667 OFFCURVE",
"350 723 CURVE SMOOTH",
"350 802.333 OFFCURVE",
"360.667 873.5 OFFCURVE",
"382 936.5 CURVE SMOOTH",
"403.333 999.5 OFFCURVE",
"433.833 1053 OFFCURVE",
"473.5 1097 CURVE SMOOTH",
"513.167 1141 OFFCURVE",
"561.167 1174.67 OFFCURVE",
"617.5 1198 CURVE SMOOTH",
"673.833 1221.33 OFFCURVE",
"737.333 1233 OFFCURVE",
"808 1233 CURVE SMOOTH",
"878.667 1233 OFFCURVE",
"942.167 1221.33 OFFCURVE",
"998.5 1198 CURVE SMOOTH",
"1054.83 1174.67 OFFCURVE",
"1102.67 1141 OFFCURVE",
"1142 1097 CURVE SMOOTH",
"1181.33 1053 OFFCURVE",
"1211.67 999.5 OFFCURVE",
"1233 936.5 CURVE SMOOTH",
"1254.33 873.5 OFFCURVE",
"1265 802.333 OFFCURVE",
"1265 723 CURVE SMOOTH"
);
},
{
closed = 1;
nodes = (
"1167 1549 LINE",
"926 1824 LINE",
"702 1824 LINE",
"461 1549 LINE",
"632 1549 LINE SMOOTH",
"642 1549 OFFCURVE",
"654.167 1550.83 OFFCURVE",
"668.5 1554.5 CURVE SMOOTH",
"682.833 1558.17 OFFCURVE",
"697.667 1569 OFFCURVE",
"713 1587 CURVE",
"795 1693 LINE",
"810 1715 LINE",
"812 1711.67 OFFCURVE",
"814.167 1708 OFFCURVE",
"816.5 1704 CURVE SMOOTH",
"818.833 1700 OFFCURVE",
"821.667 1696.33 OFFCURVE",
"825 1693 CURVE",
"907 1587 LINE",
"922.333 1569 OFFCURVE",
"937.167 1558.17 OFFCURVE",
"951.5 1554.5 CURVE SMOOTH",
"965.833 1550.83 OFFCURVE",
"978 1549 OFFCURVE",
"988 1549 CURVE SMOOTH"
);
}
);
width = 1616;
}
);
leftKerningGroup = C;
rightKerningGroup = O;
unicode = 00D4;
},
{
glyphname = Odieresis;
layers = (
{
layerId = "C25503A3-518C-4CE5-B03D-46F600126290";
name = Bold;
paths = (
{
closed = 1;
nodes = (
"75 0 LINE"
);
},
{
closed = 1;
nodes = (
"1540 793.667 OFFCURVE",
"1532.17 861 OFFCURVE",
"1516.5 925 CURVE SMOOTH",
"1500.83 989 OFFCURVE",
"1478 1048.33 OFFCURVE",
"1448 1103 CURVE SMOOTH",
"1418 1157.67 OFFCURVE",
"1381.5 1207.17 OFFCURVE",
"1338.5 1251.5 CURVE SMOOTH",
"1295.5 1295.83 OFFCURVE",
"1247 1333.5 OFFCURVE",
"1193 1364.5 CURVE SMOOTH",
"1139 1395.5 OFFCURVE",
"1079.67 1419.5 OFFCURVE",
"1015 1436.5 CURVE SMOOTH",
"950.333 1453.5 OFFCURVE",
"881.333 1462 OFFCURVE",
"808 1462 CURVE SMOOTH",
"698.667 1462 OFFCURVE",
"599 1443.5 OFFCURVE",
"509 1406.5 CURVE SMOOTH",
"419 1369.5 OFFCURVE",
"341.833 1318 OFFCURVE",
"277.5 1252 CURVE SMOOTH",
"213.167 1186 OFFCURVE",
"163.333 1107.83 OFFCURVE",
"128 1017.5 CURVE SMOOTH",
"92.6666 927.167 OFFCURVE",
"74.9999 829 OFFCURVE",
"74.9999 723 CURVE SMOOTH",
"74.9999 617 OFFCURVE",
"92.6666 518.833 OFFCURVE",
"128 428.5 CURVE SMOOTH",
"163.333 338.167 OFFCURVE",
"213.167 260 OFFCURVE",
"277.5 194 CURVE SMOOTH",
"341.833 128 OFFCURVE",
"419 76.5001 OFFCURVE",
"509 39.5001 CURVE SMOOTH",
"599 2.50006 OFFCURVE",
"698.667 -16 OFFCURVE",
"808 -16 CURVE SMOOTH",
"918 -16 OFFCURVE",
"1018 2.50006 OFFCURVE",
"1108 39.5001 CURVE SMOOTH",
"1198 76.5001 OFFCURVE",
"1275 128 OFFCURVE",
"1339 194 CURVE SMOOTH",
"1403 260 OFFCURVE",
"1452.5 338.167 OFFCURVE",
"1487.5 428.5 CURVE SMOOTH",
"1522.5 518.833 OFFCURVE",
"1540 617 OFFCURVE",
"1540 723 CURVE SMOOTH"
);
},
{
closed = 1;
nodes = (
"1265 643.667 OFFCURVE",
"1254.33 572.5 OFFCURVE",
"1233 509.5 CURVE SMOOTH",
"1211.67 446.5 OFFCURVE",
"1181.33 393.167 OFFCURVE",
"1142 349.5 CURVE SMOOTH",
"1102.67 305.833 OFFCURVE",
"1054.83 272.333 OFFCURVE",
"998.5 249 CURVE SMOOTH",
"942.167 225.667 OFFCURVE",
"878.667 214 OFFCURVE",
"808 214 CURVE SMOOTH",
"737.333 214 OFFCURVE",
"673.833 225.667 OFFCURVE",
"617.5 249 CURVE SMOOTH",
"561.167 272.333 OFFCURVE",
"513.167 305.833 OFFCURVE",
"473.5 349.5 CURVE SMOOTH",
"433.833 393.167 OFFCURVE",
"403.333 446.5 OFFCURVE",
"382 509.5 CURVE SMOOTH",
"360.667 572.5 OFFCURVE",
"350 643.667 OFFCURVE",
"350 723 CURVE SMOOTH",
"350 802.333 OFFCURVE",
"360.667 873.5 OFFCURVE",
"382 936.5 CURVE SMOOTH",
"403.333 999.5 OFFCURVE",
"433.833 1053 OFFCURVE",
"473.5 1097 CURVE SMOOTH",
"513.167 1141 OFFCURVE",
"561.167 1174.67 OFFCURVE",
"617.5 1198 CURVE SMOOTH",
"673.833 1221.33 OFFCURVE",
"737.333 1233 OFFCURVE",
"808 1233 CURVE SMOOTH",
"878.667 1233 OFFCURVE",
"942.167 1221.33 OFFCURVE",
"998.5 1198 CURVE SMOOTH",
"1054.83 1174.67 OFFCURVE",
"1102.67 1141 OFFCURVE",
"1142 1097 CURVE SMOOTH",
"1181.33 1053 OFFCURVE",
"1211.67 999.5 OFFCURVE",
"1233 936.5 CURVE SMOOTH",
"1254.33 873.5 OFFCURVE",
"1265 802.333 OFFCURVE",
"1265 723 CURVE SMOOTH"
);
},
{
closed = 1;
nodes = (
"724 1685 OFFCURVE",
"720.333 1702.17 OFFCURVE",
"713 1718.5 CURVE SMOOTH",
"705.667 1734.83 OFFCURVE",
"695.833 1749.17 OFFCURVE",
"683.5 1761.5 CURVE SMOOTH",
"671.167 1773.83 OFFCURVE",
"656.667 1783.67 OFFCURVE",
"640 1791 CURVE SMOOTH",
"623.333 1798.33 OFFCURVE",
"605.667 1802 OFFCURVE",
"587 1802 CURVE SMOOTH",
"569.667 1802 OFFCURVE",
"553.167 1798.33 OFFCURVE",
"537.5 1791 CURVE SMOOTH",
"521.833 1783.67 OFFCURVE",
"508 1773.83 OFFCURVE",
"496 1761.5 CURVE SMOOTH",
"484 1749.17 OFFCURVE",
"474.333 1734.83 OFFCURVE",
"467 1718.5 CURVE SMOOTH",
"459.667 1702.17 OFFCURVE",
"456 1685 OFFCURVE",
"456 1667 CURVE SMOOTH",
"456 1649 OFFCURVE",
"459.667 1632 OFFCURVE",
"467 1616 CURVE SMOOTH",
"474.333 1600 OFFCURVE",
"484 1586 OFFCURVE",
"496 1574 CURVE SMOOTH",
"508 1562 OFFCURVE",
"521.833 1552.67 OFFCURVE",
"537.5 1546 CURVE SMOOTH",
"553.167 1539.33 OFFCURVE",
"569.667 1536 OFFCURVE",
"587 1536 CURVE SMOOTH",
"605.667 1536 OFFCURVE",
"623.333 1539.33 OFFCURVE",
"640 1546 CURVE SMOOTH",
"656.667 1552.67 OFFCURVE",
"671.167 1562 OFFCURVE",
"683.5 1574 CURVE SMOOTH",
"695.833 1586 OFFCURVE",
"705.667 1600 OFFCURVE",
"713 1616 CURVE SMOOTH",
"720.333 1632 OFFCURVE",
"724 1649 OFFCURVE",
"724 1667 CURVE SMOOTH"
);
},
{
closed = 1;
nodes = (
"1164 1685 OFFCURVE",
"1160.5 1702.17 OFFCURVE",
"1153.5 1718.5 CURVE SMOOTH",
"1146.5 1734.83 OFFCURVE",
"1136.83 1749.17 OFFCURVE",
"1124.5 1761.5 CURVE SMOOTH",
"1112.17 1773.83 OFFCURVE",
"1097.83 1783.67 OFFCURVE",
"1081.5 1791 CURVE SMOOTH",
"1065.17 1798.33 OFFCURVE",
"1048 1802 OFFCURVE",
"1030 1802 CURVE SMOOTH",
"1011.33 1802 OFFCURVE",
"993.833 1798.33 OFFCURVE",
"977.5 1791 CURVE SMOOTH",
"961.167 1783.67 OFFCURVE",
"947 1773.83 OFFCURVE",
"935 1761.5 CURVE SMOOTH",
"923 1749.17 OFFCURVE",
"913.5 1734.83 OFFCURVE",
"906.5 1718.5 CURVE SMOOTH",
"899.5 1702.17 OFFCURVE",
"896 1685 OFFCURVE",
"896 1667 CURVE SMOOTH",
"896 1649 OFFCURVE",
"899.5 1632 OFFCURVE",
"906.5 1616 CURVE SMOOTH",
"913.5 1600 OFFCURVE",
"923 1586 OFFCURVE",
"935 1574 CURVE SMOOTH",
"947 1562 OFFCURVE",
"961.167 1552.67 OFFCURVE",
"977.5 1546 CURVE SMOOTH",
"993.833 1539.33 OFFCURVE",
"1011.33 1536 OFFCURVE",
"1030 1536 CURVE SMOOTH",
"1048 1536 OFFCURVE",
"1065.17 1539.33 OFFCURVE",
"1081.5 1546 CURVE SMOOTH",
"1097.83 1552.67 OFFCURVE",
"1112.17 1562 OFFCURVE",
"1124.5 1574 CURVE SMOOTH",
"1136.83 1586 OFFCURVE",
"1146.5 1600 OFFCURVE",
"1153.5 1616 CURVE SMOOTH",
"1160.5 1632 OFFCURVE",
"1164 1649 OFFCURVE",
"1164 1667 CURVE SMOOTH"
);
}
);
width = 1616;
}
);
leftKerningGroup = C;
rightKerningGroup = O;
unicode = 00D6;
},
{
glyphname = Ograve;
layers = (
{
layerId = "C25503A3-518C-4CE5-B03D-46F600126290";
name = Bold;
paths = (
{
closed = 1;
nodes = (
"75 0 LINE"
);
},
{
closed = 1;
nodes = (
"1540 793.667 OFFCURVE",
"1532.17 861 OFFCURVE",
"1516.5 925 CURVE SMOOTH",
"1500.83 989 OFFCURVE",
"1478 1048.33 OFFCURVE",
"1448 1103 CURVE SMOOTH",
"1418 1157.67 OFFCURVE",
"1381.5 1207.17 OFFCURVE",
"1338.5 1251.5 CURVE SMOOTH",
"1295.5 1295.83 OFFCURVE",
"1247 1333.5 OFFCURVE",
"1193 1364.5 CURVE SMOOTH",
"1139 1395.5 OFFCURVE",
"1079.67 1419.5 OFFCURVE",
"1015 1436.5 CURVE SMOOTH",
"950.333 1453.5 OFFCURVE",
"881.333 1462 OFFCURVE",
"808 1462 CURVE SMOOTH",
"698.667 1462 OFFCURVE",
"599 1443.5 OFFCURVE",
"509 1406.5 CURVE SMOOTH",
"419 1369.5 OFFCURVE",
"341.833 1318 OFFCURVE",
"277.5 1252 CURVE SMOOTH",
"213.167 1186 OFFCURVE",
"163.333 1107.83 OFFCURVE",
"128 1017.5 CURVE SMOOTH",
"92.6666 927.167 OFFCURVE",
"74.9999 829 OFFCURVE",
"74.9999 723 CURVE SMOOTH",
"74.9999 617 OFFCURVE",
"92.6666 518.833 OFFCURVE",
"128 428.5 CURVE SMOOTH",
"163.333 338.167 OFFCURVE",
"213.167 260 OFFCURVE",
"277.5 194 CURVE SMOOTH",
"341.833 128 OFFCURVE",
"419 76.5001 OFFCURVE",
"509 39.5001 CURVE SMOOTH",
"599 2.50006 OFFCURVE",
"698.667 -16 OFFCURVE",
"808 -16 CURVE SMOOTH",
"918 -16 OFFCURVE",
"1018 2.50006 OFFCURVE",
"1108 39.5001 CURVE SMOOTH",
"1198 76.5001 OFFCURVE",
"1275 128 OFFCURVE",
"1339 194 CURVE SMOOTH",
"1403 260 OFFCURVE",
"1452.5 338.167 OFFCURVE",
"1487.5 428.5 CURVE SMOOTH",
"1522.5 518.833 OFFCURVE",
"1540 617 OFFCURVE",
"1540 723 CURVE SMOOTH"
);
},
{
closed = 1;
nodes = (
"1265 643.667 OFFCURVE",
"1254.33 572.5 OFFCURVE",
"1233 509.5 CURVE SMOOTH",
"1211.67 446.5 OFFCURVE",
"1181.33 393.167 OFFCURVE",
"1142 349.5 CURVE SMOOTH",
"1102.67 305.833 OFFCURVE",
"1054.83 272.333 OFFCURVE",
"998.5 249 CURVE SMOOTH",
"942.167 225.667 OFFCURVE",
"878.667 214 OFFCURVE",
"808 214 CURVE SMOOTH",
"737.333 214 OFFCURVE",
"673.833 225.667 OFFCURVE",
"617.5 249 CURVE SMOOTH",
"561.167 272.333 OFFCURVE",
"513.167 305.833 OFFCURVE",
"473.5 349.5 CURVE SMOOTH",
"433.833 393.167 OFFCURVE",
"403.333 446.5 OFFCURVE",
"382 509.5 CURVE SMOOTH",
"360.667 572.5 OFFCURVE",
"350 643.667 OFFCURVE",
"350 723 CURVE SMOOTH",
"350 802.333 OFFCURVE",
"360.667 873.5 OFFCURVE",
"382 936.5 CURVE SMOOTH",
"403.333 999.5 OFFCURVE",
"433.833 1053 OFFCURVE",
"473.5 1097 CURVE SMOOTH",
"513.167 1141 OFFCURVE",
"561.167 1174.67 OFFCURVE",
"617.5 1198 CURVE SMOOTH",
"673.833 1221.33 OFFCURVE",
"737.333 1233 OFFCURVE",
"808 1233 CURVE SMOOTH",
"878.667 1233 OFFCURVE",
"942.167 1221.33 OFFCURVE",
"998.5 1198 CURVE SMOOTH",
"1054.83 1174.67 OFFCURVE",
"1102.67 1141 OFFCURVE",
"1142 1097 CURVE SMOOTH",
"1181.33 1053 OFFCURVE",
"1211.67 999.5 OFFCURVE",
"1233 936.5 CURVE SMOOTH",
"1254.33 873.5 OFFCURVE",
"1265 802.333 OFFCURVE",
"1265 723 CURVE SMOOTH"
);
},
{
closed = 1;
nodes = (
"387 1861 LINE",
"706 1573 LINE SMOOTH",
"719.333 1561.67 OFFCURVE",
"731.5 1554.83 OFFCURVE",
"742.5 1552.5 CURVE SMOOTH",
"753.5 1550.17 OFFCURVE",
"768.667 1549 OFFCURVE",
"788 1549 CURVE SMOOTH",
"967 1549 LINE",
"749 1820 LINE SMOOTH",
"741.667 1829.33 OFFCURVE",
"734.667 1836.67 OFFCURVE",
"728 1842 CURVE SMOOTH",
"721.333 1847.33 OFFCURVE",
"714.167 1851.5 OFFCURVE",
"706.5 1854.5 CURVE SMOOTH",
"698.833 1857.5 OFFCURVE",
"690.167 1859.33 OFFCURVE",
"680.5 1860 CURVE SMOOTH",
"670.833 1860.67 OFFCURVE",
"659.333 1861 OFFCURVE",
"646 1861 CURVE SMOOTH"
);
}
);
width = 1616;
}
);
leftKerningGroup = C;
rightKerningGroup = O;
unicode = 00D2;
},
{
glyphname = Oslash;
layers = (
{
layerId = "C25503A3-518C-4CE5-B03D-46F600126290";
name = Bold;
paths = (
{
closed = 1;
nodes = (
"1540 833.667 OFFCURVE",
"1521.17 935.167 OFFCURVE",
"1483.5 1027.5 CURVE SMOOTH",
"1445.83 1119.83 OFFCURVE",
"1392.33 1199.33 OFFCURVE",
"1323 1266 CURVE",
"1502 1512 LINE",
"1365 1512 LINE SMOOTH",
"1350.33 1512 OFFCURVE",
"1337.83 1510.83 OFFCURVE",
"1327.5 1508.5 CURVE SMOOTH",
"1317.17 1506.17 OFFCURVE",
"1308 1502.33 OFFCURVE",
"1300 1497 CURVE SMOOTH",
"1292 1491.67 OFFCURVE",
"1284.33 1484.83 OFFCURVE",
"1277 1476.5 CURVE SMOOTH",
"1269.67 1468.17 OFFCURVE",
"1261.67 1458 OFFCURVE",
"1253 1446 CURVE SMOOTH",
"1193 1364 LINE",
"1139 1395.33 OFFCURVE",
"1079.67 1419.5 OFFCURVE",
"1015 1436.5 CURVE SMOOTH",
"950.333 1453.5 OFFCURVE",
"881.333 1462 OFFCURVE",
"808 1462 CURVE SMOOTH",
"698.667 1462 OFFCURVE",
"599 1443.5 OFFCURVE",
"509 1406.5 CURVE SMOOTH",
"419 1369.5 OFFCURVE",
"341.833 1318 OFFCURVE",
"277.5 1252 CURVE SMOOTH",
"213.167 1186 OFFCURVE",
"163.333 1107.83 OFFCURVE",
"128 1017.5 CURVE SMOOTH",
"92.6666 927.167 OFFCURVE",
"74.9999 829 OFFCURVE",
"74.9999 723 CURVE SMOOTH",
"74.9999 605.667 OFFCURVE",
"95.9999 498.667 OFFCURVE",
"138 402 CURVE SMOOTH",
"180 305.333 OFFCURVE",
"239.333 223.666 OFFCURVE",
"316 157 CURVE",
"121 -111 LINE",
"227 -111 LINE SMOOTH",
"253 -111 OFFCURVE",
"279.333 -106 OFFCURVE",
"306 -95 CURVE SMOOTH",
"332.667 -84 OFFCURVE",
"355.667 -66 OFFCURVE",
"375 -39 CURVE SMOOTH",
"451 65.9998 LINE",
"503 39.3331 OFFCURVE",
"558.667 18.9998 OFFCURVE",
"618 4.9998 CURVE SMOOTH",
"677.333 -9 OFFCURVE",
"740.667 -16 OFFCURVE",
"808 -16 CURVE SMOOTH",
"918 -16 OFFCURVE",
"1018 2.4998 OFFCURVE",
"1108 39.4998 CURVE SMOOTH",
"1198 76.4998 OFFCURVE",
"1275 128 OFFCURVE",
"1339 194 CURVE SMOOTH",
"1403 260 OFFCURVE",
"1452.5 338.167 OFFCURVE",
"1487.5 428.5 CURVE SMOOTH",
"1522.5 518.833 OFFCURVE",
"1540 617 OFFCURVE",
"1540 723 CURVE SMOOTH"
);
},
{
closed = 1;
nodes = (
"350 802.333 OFFCURVE",
"360.667 873.5 OFFCURVE",
"382 936.5 CURVE SMOOTH",
"403.333 999.5 OFFCURVE",
"433.833 1053 OFFCURVE",
"473.5 1097 CURVE SMOOTH",
"513.167 1141 OFFCURVE",
"561.167 1174.67 OFFCURVE",
"617.5 1198 CURVE SMOOTH",
"673.833 1221.33 OFFCURVE",
"737.333 1233 OFFCURVE",
"808 1233 CURVE SMOOTH",
"901.333 1233 OFFCURVE",
"982.667 1212 OFFCURVE",
"1052 1170 CURVE",
"463 360 LINE",
"426.333 404 OFFCURVE",
"398.333 456.333 OFFCURVE",
"379 517 CURVE SMOOTH",
"359.667 577.666 OFFCURVE",
"350 646.333 OFFCURVE",
"350 723 CURVE SMOOTH"
);
},
{
closed = 1;
nodes = (
"1265 643.667 OFFCURVE",
"1254.33 572.5 OFFCURVE",
"1233 509.5 CURVE SMOOTH",
"1211.67 446.5 OFFCURVE",
"1181.33 393.167 OFFCURVE",
"1142 349.5 CURVE SMOOTH",
"1102.67 305.833 OFFCURVE",
"1054.83 272.333 OFFCURVE",
"998.5 249 CURVE SMOOTH",
"942.167 225.666 OFFCURVE",
"878.667 214 OFFCURVE",
"808 214 CURVE SMOOTH",
"727.333 214 OFFCURVE",
"655.333 229.333 OFFCURVE",
"592 260 CURVE",
"1172 1058 LINE",
"1202 1015.33 OFFCURVE",
"1225 966 OFFCURVE",
"1241 910 CURVE SMOOTH",
"1257 854 OFFCURVE",
"1265 791.666 OFFCURVE",
"1265 723 CURVE SMOOTH"
);
}
);
width = 1616;
}
);
leftKerningGroup = C;
rightKerningGroup = O;
unicode = 00D8;
},
{
glyphname = Otilde;
layers = (
{
layerId = "C25503A3-518C-4CE5-B03D-46F600126290";
name = Bold;
paths = (
{
closed = 1;
nodes = (
"75 0 LINE"
);
},
{
closed = 1;
nodes = (
"1540 793.667 OFFCURVE",
"1532.17 861 OFFCURVE",
"1516.5 925 CURVE SMOOTH",
"1500.83 989 OFFCURVE",
"1478 1048.33 OFFCURVE",
"1448 1103 CURVE SMOOTH",
"1418 1157.67 OFFCURVE",
"1381.5 1207.17 OFFCURVE",
"1338.5 1251.5 CURVE SMOOTH",
"1295.5 1295.83 OFFCURVE",
"1247 1333.5 OFFCURVE",
"1193 1364.5 CURVE SMOOTH",
"1139 1395.5 OFFCURVE",
"1079.67 1419.5 OFFCURVE",
"1015 1436.5 CURVE SMOOTH",
"950.333 1453.5 OFFCURVE",
"881.333 1462 OFFCURVE",
"808 1462 CURVE SMOOTH",
"698.667 1462 OFFCURVE",
"599 1443.5 OFFCURVE",
"509 1406.5 CURVE SMOOTH",
"419 1369.5 OFFCURVE",
"341.833 1318 OFFCURVE",
"277.5 1252 CURVE SMOOTH",
"213.167 1186 OFFCURVE",
"163.333 1107.83 OFFCURVE",
"128 1017.5 CURVE SMOOTH",
"92.6666 927.167 OFFCURVE",
"74.9999 829 OFFCURVE",
"74.9999 723 CURVE SMOOTH",
"74.9999 617 OFFCURVE",
"92.6666 518.833 OFFCURVE",
"128 428.5 CURVE SMOOTH",
"163.333 338.167 OFFCURVE",
"213.167 260 OFFCURVE",
"277.5 194 CURVE SMOOTH",
"341.833 128 OFFCURVE",
"419 76.5001 OFFCURVE",
"509 39.5001 CURVE SMOOTH",
"599 2.50006 OFFCURVE",
"698.667 -16 OFFCURVE",
"808 -16 CURVE SMOOTH",
"918 -16 OFFCURVE",
"1018 2.50006 OFFCURVE",
"1108 39.5001 CURVE SMOOTH",
"1198 76.5001 OFFCURVE",
"1275 128 OFFCURVE",
"1339 194 CURVE SMOOTH",
"1403 260 OFFCURVE",
"1452.5 338.167 OFFCURVE",
"1487.5 428.5 CURVE SMOOTH",
"1522.5 518.833 OFFCURVE",
"1540 617 OFFCURVE",
"1540 723 CURVE SMOOTH"
);
},
{
closed = 1;
nodes = (
"1265 643.667 OFFCURVE",
"1254.33 572.5 OFFCURVE",
"1233 509.5 CURVE SMOOTH",
"1211.67 446.5 OFFCURVE",
"1181.33 393.167 OFFCURVE",
"1142 349.5 CURVE SMOOTH",
"1102.67 305.833 OFFCURVE",
"1054.83 272.333 OFFCURVE",
"998.5 249 CURVE SMOOTH",
"942.167 225.667 OFFCURVE",
"878.667 214 OFFCURVE",
"808 214 CURVE SMOOTH",
"737.333 214 OFFCURVE",
"673.833 225.667 OFFCURVE",
"617.5 249 CURVE SMOOTH",
"561.167 272.333 OFFCURVE",
"513.167 305.833 OFFCURVE",
"473.5 349.5 CURVE SMOOTH",
"433.833 393.167 OFFCURVE",
"403.333 446.5 OFFCURVE",
"382 509.5 CURVE SMOOTH",
"360.667 572.5 OFFCURVE",
"350 643.667 OFFCURVE",
"350 723 CURVE SMOOTH",
"350 802.333 OFFCURVE",
"360.667 873.5 OFFCURVE",
"382 936.5 CURVE SMOOTH",
"403.333 999.5 OFFCURVE",
"433.833 1053 OFFCURVE",
"473.5 1097 CURVE SMOOTH",
"513.167 1141 OFFCURVE",
"561.167 1174.67 OFFCURVE",
"617.5 1198 CURVE SMOOTH",
"673.833 1221.33 OFFCURVE",
"737.333 1233 OFFCURVE",
"808 1233 CURVE SMOOTH",
"878.667 1233 OFFCURVE",
"942.167 1221.33 OFFCURVE",
"998.5 1198 CURVE SMOOTH",
"1054.83 1174.67 OFFCURVE",
"1102.67 1141 OFFCURVE",
"1142 1097 CURVE SMOOTH",
"1181.33 1053 OFFCURVE",
"1211.67 999.5 OFFCURVE",
"1233 936.5 CURVE SMOOTH",
"1254.33 873.5 OFFCURVE",
"1265 802.333 OFFCURVE",
"1265 723 CURVE SMOOTH"
);
},
{
closed = 1;
nodes = (
"917 1699 OFFCURVE",
"899.333 1704.33 OFFCURVE",
"882 1715 CURVE SMOOTH",
"864.667 1725.67 OFFCURVE",
"846 1737.17 OFFCURVE",
"826 1749.5 CURVE SMOOTH",
"806 1761.83 OFFCURVE",
"783.333 1773.33 OFFCURVE",
"758 1784 CURVE SMOOTH",
"732.667 1794.67 OFFCURVE",
"703 1800 OFFCURVE",
"669 1800 CURVE SMOOTH",
"635.667 1800 OFFCURVE",
"606.167 1792.83 OFFCURVE",
"580.5 1778.5 CURVE SMOOTH",
"554.833 1764.17 OFFCURVE",
"533.167 1745.17 OFFCURVE",
"515.5 1721.5 CURVE SMOOTH",
"497.833 1697.83 OFFCURVE",
"484.333 1670.5 OFFCURVE",
"475 1639.5 CURVE SMOOTH",
"465.667 1608.5 OFFCURVE",
"461 1576.67 OFFCURVE",
"461 1544 CURVE",
"614 1544 LINE",
"614 1554.67 OFFCURVE",
"615.667 1565.67 OFFCURVE",
"619 1577 CURVE SMOOTH",
"622.333 1588.33 OFFCURVE",
"627.333 1598.67 OFFCURVE",
"634 1608 CURVE SMOOTH",
"640.667 1617.33 OFFCURVE",
"649.333 1625 OFFCURVE",
"660 1631 CURVE SMOOTH",
"670.667 1637 OFFCURVE",
"683.667 1640 OFFCURVE",
"699 1640 CURVE SMOOTH",
"717 1640 OFFCURVE",
"734.5 1634.67 OFFCURVE",
"751.5 1624 CURVE SMOOTH",
"768.5 1613.33 OFFCURVE",
"787.333 1601.83 OFFCURVE",
"808 1589.5 CURVE SMOOTH",
"828.667 1577.17 OFFCURVE",
"851.5 1565.67 OFFCURVE",
"876.5 1555 CURVE SMOOTH",
"901.5 1544.33 OFFCURVE",
"931 1539 OFFCURVE",
"965 1539 CURVE SMOOTH",
"998.333 1539 OFFCURVE",
"1027.83 1546 OFFCURVE",
"1053.5 1560 CURVE SMOOTH",
"1079.17 1574 OFFCURVE",
"1100.83 1592.83 OFFCURVE",
"1118.5 1616.5 CURVE SMOOTH",
"1136.17 1640.17 OFFCURVE",
"1149.5 1667.17 OFFCURVE",
"1158.5 1697.5 CURVE SMOOTH",
"1167.5 1727.83 OFFCURVE",
"1172 1759.67 OFFCURVE",
"1172 1793 CURVE",
"1021 1793 LINE",
"1021 1782.33 OFFCURVE",
"1019.33 1771.5 OFFCURVE",
"1016 1760.5 CURVE SMOOTH",
"1012.67 1749.5 OFFCURVE",
"1007.5 1739.5 OFFCURVE",
"1000.5 1730.5 CURVE SMOOTH",
"993.5 1721.5 OFFCURVE",
"984.5 1714 OFFCURVE",
"973.5 1708 CURVE SMOOTH",
"962.5 1702 OFFCURVE",
"949.666 1699 OFFCURVE",
"935 1699 CURVE SMOOTH"
);
}
);
width = 1616;
}
);
leftKerningGroup = C;
rightKerningGroup = O;
unicode = 00D5;
},
{
glyphname = OE;
layers = (
{
layerId = "C25503A3-518C-4CE5-B03D-46F600126290";
name = Bold;
paths = (
{
closed = 1;
nodes = (
"2085 1446 LINE",
"1206 1446 LINE",
"1206 1260 LINE",
"1148 1323.33 OFFCURVE",
"1079.67 1372.83 OFFCURVE",
"1001 1408.5 CURVE SMOOTH",
"922.333 1444.17 OFFCURVE",
"834.333 1462 OFFCURVE",
"737 1462 CURVE SMOOTH",
"638.333 1462 OFFCURVE",
"548.5 1443.5 OFFCURVE",
"467.5 1406.5 CURVE SMOOTH",
"386.5 1369.5 OFFCURVE",
"317 1318 OFFCURVE",
"259 1252 CURVE SMOOTH",
"201 1186 OFFCURVE",
"156.167 1107.83 OFFCURVE",
"124.5 1017.5 CURVE SMOOTH",
"92.8333 927.167 OFFCURVE",
"76.9999 829 OFFCURVE",
"76.9999 723 CURVE SMOOTH",
"76.9999 617 OFFCURVE",
"92.8333 518.833 OFFCURVE",
"124.5 428.5 CURVE SMOOTH",
"156.167 338.167 OFFCURVE",
"201 260.167 OFFCURVE",
"259 194.5 CURVE SMOOTH",
"317 128.833 OFFCURVE",
"386.5 77.5001 OFFCURVE",
"467.5 40.5001 CURVE SMOOTH",
"548.5 3.50008 OFFCURVE",
"638.333 -15 OFFCURVE",
"737 -15 CURVE SMOOTH",
"834.333 -15 OFFCURVE",
"922.333 2.66675 OFFCURVE",
"1001 38 CURVE SMOOTH",
"1079.67 73.3334 OFFCURVE",
"1148 122.667 OFFCURVE",
"1206 186 CURVE",
"1206 7.62939 LINE",
"2085 7.62939 LINE",
"2086 215 LINE",
"1444 215 LINE",
"1444 624 LINE",
"1950 624 LINE",
"1950 831 LINE",
"1444 831 LINE",
"1444 1232 LINE",
"2085 1232 LINE"
);
},
{
closed = 1;
nodes = (
"1174 643.667 OFFCURVE",
"1164.67 572.167 OFFCURVE",
"1146 508.5 CURVE SMOOTH",
"1127.33 444.833 OFFCURVE",
"1100.33 390.667 OFFCURVE",
"1065 346 CURVE SMOOTH",
"1029.67 301.333 OFFCURVE",
"986.667 267 OFFCURVE",
"936 243 CURVE SMOOTH",
"885.333 219 OFFCURVE",
"828.333 207 OFFCURVE",
"765 207 CURVE SMOOTH",
"701 207 OFFCURVE",
"643.5 219 OFFCURVE",
"592.5 243 CURVE SMOOTH",
"541.5 267 OFFCURVE",
"498.333 301.333 OFFCURVE",
"463 346 CURVE SMOOTH",
"427.667 390.667 OFFCURVE",
"400.5 444.833 OFFCURVE",
"381.5 508.5 CURVE SMOOTH",
"362.5 572.167 OFFCURVE",
"353 643.667 OFFCURVE",
"353 723 CURVE SMOOTH",
"353 802.333 OFFCURVE",
"362.5 873.833 OFFCURVE",
"381.5 937.5 CURVE SMOOTH",
"400.5 1001.17 OFFCURVE",
"427.667 1055.5 OFFCURVE",
"463 1100.5 CURVE SMOOTH",
"498.333 1145.5 OFFCURVE",
"541.5 1180 OFFCURVE",
"592.5 1204 CURVE SMOOTH",
"643.5 1228 OFFCURVE",
"701 1240 OFFCURVE",
"765 1240 CURVE SMOOTH",
"828.333 1240 OFFCURVE",
"885.333 1228 OFFCURVE",
"936 1204 CURVE SMOOTH",
"986.667 1180 OFFCURVE",
"1029.67 1145.5 OFFCURVE",
"1065 1100.5 CURVE SMOOTH",
"1100.33 1055.5 OFFCURVE",
"1127.33 1001.17 OFFCURVE",
"1146 937.5 CURVE SMOOTH",
"1164.67 873.833 OFFCURVE",
"1174 802.333 OFFCURVE",
"1174 723 CURVE SMOOTH"
);
}
);
width = 2163;
}
);
leftKerningGroup = C;
rightKerningGroup = E;
unicode = 0152;
},
{
glyphname = P;
layers = (
{
layerId = "C25503A3-518C-4CE5-B03D-46F600126290";
name = Bold;
paths = (
{
closed = 1;
nodes = (
"430 509 LINE",
"631 509 LINE SMOOTH",
"725 509 OFFCURVE",
"807.167 520.667 OFFCURVE",
"877.5 544 CURVE SMOOTH",
"947.833 567.333 OFFCURVE",
"1006.33 600 OFFCURVE",
"1053 642 CURVE SMOOTH",
"1099.67 684 OFFCURVE",
"1134.67 734.167 OFFCURVE",
"1158 792.5 CURVE SMOOTH",
"1181.33 850.833 OFFCURVE",
"1193 915 OFFCURVE",
"1193 985 CURVE SMOOTH",
"1193 1052.33 OFFCURVE",
"1181.83 1114.33 OFFCURVE",
"1159.5 1171 CURVE SMOOTH",
"1137.17 1227.67 OFFCURVE",
"1103 1276.33 OFFCURVE",
"1057 1317 CURVE SMOOTH",
"1011 1357.67 OFFCURVE",
"952.667 1389.33 OFFCURVE",
"882 1412 CURVE SMOOTH",
"811.333 1434.67 OFFCURVE",
"727.667 1446 OFFCURVE",
"631 1446 CURVE SMOOTH",
"161 1446 LINE",
"161 0 LINE",
"430 0 LINE"
);
},
{
closed = 1;
nodes = (
"430 719 LINE",
"430 1238 LINE",
"631 1238 LINE SMOOTH",
"681 1238 OFFCURVE",
"724.333 1232.17 OFFCURVE",
"761 1220.5 CURVE SMOOTH",
"797.667 1208.83 OFFCURVE",
"828 1192 OFFCURVE",
"852 1170 CURVE SMOOTH",
"876 1148 OFFCURVE",
"894 1121.33 OFFCURVE",
"906 1090 CURVE SMOOTH",
"918 1058.67 OFFCURVE",
"924 1023.67 OFFCURVE",
"924 985 CURVE SMOOTH",
"924 944.333 OFFCURVE",
"918 907.5 OFFCURVE",
"906 874.5 CURVE SMOOTH",
"894 841.5 OFFCURVE",
"875.833 813.5 OFFCURVE",
"851.5 790.5 CURVE SMOOTH",
"827.167 767.5 OFFCURVE",
"796.667 749.833 OFFCURVE",
"760 737.5 CURVE SMOOTH",
"723.333 725.166 OFFCURVE",
"680.333 719 OFFCURVE",
"631 719 CURVE SMOOTH"
);
}
);
width = 1238;
}
);
leftKerningGroup = B;
rightKerningGroup = P;
unicode = 0050;
},
{
glyphname = Thorn;
layers = (
{
layerId = "C25503A3-518C-4CE5-B03D-46F600126290";
name = Bold;
paths = (
{
closed = 1;
nodes = (
"430 261 LINE",
"631 261 LINE SMOOTH",
"725 261 OFFCURVE",
"807.167 272.667 OFFCURVE",
"877.5 296 CURVE SMOOTH",
"947.833 319.333 OFFCURVE",
"1006.33 352 OFFCURVE",
"1053 394 CURVE SMOOTH",
"1099.67 436 OFFCURVE",
"1134.67 486.167 OFFCURVE",
"1158 544.5 CURVE SMOOTH",
"1181.33 602.833 OFFCURVE",
"1193 667 OFFCURVE",
"1193 737 CURVE SMOOTH",
"1193 804.333 OFFCURVE",
"1181.83 866.333 OFFCURVE",
"1159.5 923 CURVE SMOOTH",
"1137.17 979.667 OFFCURVE",
"1103 1028.33 OFFCURVE",
"1057 1069 CURVE SMOOTH",
"1011 1109.67 OFFCURVE",
"952.667 1141.33 OFFCURVE",
"882 1164 CURVE SMOOTH",
"811.333 1186.67 OFFCURVE",
"727.667 1198 OFFCURVE",
"631 1198 CURVE SMOOTH",
"430 1198 LINE",
"430 1446 LINE",
"161 1446 LINE",
"161 0 LINE",
"430 0 LINE"
);
},
{
closed = 1;
nodes = (
"430 471 LINE",
"430 990 LINE",
"631 990 LINE SMOOTH",
"681 990 OFFCURVE",
"724.333 984.167 OFFCURVE",
"761 972.5 CURVE SMOOTH",
"797.667 960.833 OFFCURVE",
"828 944 OFFCURVE",
"852 922 CURVE SMOOTH",
"876 900 OFFCURVE",
"894 873.333 OFFCURVE",
"906 842 CURVE SMOOTH",
"918 810.667 OFFCURVE",
"924 775.667 OFFCURVE",
"924 737 CURVE SMOOTH",
"924 696.333 OFFCURVE",
"918 659.5 OFFCURVE",
"906 626.5 CURVE SMOOTH",
"894 593.5 OFFCURVE",
"875.833 565.5 OFFCURVE",
"851.5 542.5 CURVE SMOOTH",
"827.167 519.5 OFFCURVE",
"796.667 501.833 OFFCURVE",
"760 489.5 CURVE SMOOTH",
"723.333 477.167 OFFCURVE",
"680.333 471 OFFCURVE",
"631 471 CURVE SMOOTH"
);
}
);
width = 1231;
}
);
leftKerningGroup = B;
rightKerningGroup = Thorn;
unicode = 00DE;
},
{
glyphname = Q;
lastChange = "2014-08-19 01:28:21 -0500";
layers = (
{
layerId = "C25503A3-518C-4CE5-B03D-46F600126290";
name = Bold;
paths = (
{
closed = 1;
nodes = (
"1578 -20 LINE",
"1351.15 206.854 LINE",
"1409.35 270.064 OFFCURVE",
"1455.25 343.839 OFFCURVE",
"1488 429 CURVE SMOOTH",
"1523 519 OFFCURVE",
"1540 617 OFFCURVE",
"1540 723 CURVE SMOOTH",
"1540 794 OFFCURVE",
"1532 861 OFFCURVE",
"1517 925 CURVE SMOOTH",
"1501 989 OFFCURVE",
"1478 1048 OFFCURVE",
"1448 1103 CURVE SMOOTH",
"1418 1158 OFFCURVE",
"1382 1207 OFFCURVE",
"1339 1252 CURVE SMOOTH",
"1296 1296 OFFCURVE",
"1247 1334 OFFCURVE",
"1193 1365 CURVE SMOOTH",
"1139 1396 OFFCURVE",
"1080 1420 OFFCURVE",
"1015 1437 CURVE SMOOTH",
"950 1454 OFFCURVE",
"881 1462 OFFCURVE",
"808 1462 CURVE SMOOTH",
"699 1462 OFFCURVE",
"599 1444 OFFCURVE",
"509 1407 CURVE SMOOTH",
"419 1370 OFFCURVE",
"342 1318 OFFCURVE",
"278 1252 CURVE SMOOTH",
"213 1186 OFFCURVE",
"163 1108 OFFCURVE",
"128 1018 CURVE SMOOTH",
"93 927 OFFCURVE",
"75 829 OFFCURVE",
"75 723 CURVE SMOOTH",
"75 617 OFFCURVE",
"93 519 OFFCURVE",
"128 429 CURVE SMOOTH",
"163 338 OFFCURVE",
"213 260 OFFCURVE",
"278 194 CURVE SMOOTH",
"342 128 OFFCURVE",
"419 77 OFFCURVE",
"509 40 CURVE SMOOTH",
"599 2.99999 OFFCURVE",
"699 -16 OFFCURVE",
"808 -16 CURVE SMOOTH",
"918 -16 OFFCURVE",
"1018 2.99999 OFFCURVE",
"1108 40 CURVE SMOOTH",
"1136.45 51.6953 OFFCURVE",
"1163.6 64.79 OFFCURVE",
"1189.45 79.3144 CURVE",
"1290 -20 LINE"
);
},
{
closed = 1;
nodes = (
"942 226 OFFCURVE",
"879 214 OFFCURVE",
"808 214 CURVE SMOOTH",
"737 214 OFFCURVE",
"674 226 OFFCURVE",
"618 249 CURVE SMOOTH",
"561 272 OFFCURVE",
"513 306 OFFCURVE",
"474 350 CURVE SMOOTH",
"434 393 OFFCURVE",
"403 447 OFFCURVE",
"382 510 CURVE SMOOTH",
"361 573 OFFCURVE",
"350 644 OFFCURVE",
"350 723 CURVE SMOOTH",
"350 802 OFFCURVE",
"361 874 OFFCURVE",
"382 937 CURVE SMOOTH",
"403 1000 OFFCURVE",
"434 1053 OFFCURVE",
"474 1097 CURVE SMOOTH",
"513 1141 OFFCURVE",
"561 1175 OFFCURVE",
"618 1198 CURVE SMOOTH",
"674 1221 OFFCURVE",
"737 1233 OFFCURVE",
"808 1233 CURVE SMOOTH",
"879 1233 OFFCURVE",
"942 1221 OFFCURVE",
"999 1198 CURVE SMOOTH",
"1055 1175 OFFCURVE",
"1103 1141 OFFCURVE",
"1142 1097 CURVE SMOOTH",
"1181 1053 OFFCURVE",
"1212 1000 OFFCURVE",
"1233 937 CURVE SMOOTH",
"1254 874 OFFCURVE",
"1265 802 OFFCURVE",
"1265 723 CURVE SMOOTH",
"1265 644 OFFCURVE",
"1254 573 OFFCURVE",
"1233 510 CURVE SMOOTH",
"1217.59 463.759 OFFCURVE",
"1196.78 422.366 OFFCURVE",
"1171.39 386.613 CURVE",
"1093 465 LINE",
"803 461 LINE",
"1011.98 254.593 LINE",
"999 249 LINE SMOOTH"
);
}
);
width = 1616;
}
);
leftKerningGroup = C;
rightKerningGroup = O;
unicode = 0051;
},
{
glyphname = R;
lastChange = "2014-08-18 22:57:29 -0500";
layers = (
{
layerId = "C25503A3-518C-4CE5-B03D-46F600126290";
name = Bold;
paths = (
{
closed = 1;
nodes = (
"161 1446 LINE",
"161 0 LINE",
"430 0 LINE",
"430 565 LINE",
"545 565 LINE SMOOTH",
"571.667 565 OFFCURVE",
"591.833 561.333 OFFCURVE",
"605.5 554 CURVE SMOOTH",
"619.167 546.667 OFFCURVE",
"631.667 534.333 OFFCURVE",
"643 517 CURVE SMOOTH",
"947 54 LINE",
"967.667 18 OFFCURVE",
"947 54 OFFCURVE",
"974 0 CURVE",
"1290 -6 LINE",
"928 534 LINE SMOOTH",
"904 570 OFFCURVE",
"874 597.667 OFFCURVE",
"840 617 CURVE",
"890.667 633 OFFCURVE",
"935.833 654.333 OFFCURVE",
"975.5 681 CURVE SMOOTH",
"1015.17 707.667 OFFCURVE",
"1048.5 738.667 OFFCURVE",
"1075.5 774 CURVE SMOOTH",
"1102.5 809.333 OFFCURVE",
"1123.17 848.667 OFFCURVE",
"1137.5 892 CURVE SMOOTH",
"1151.83 935.333 OFFCURVE",
"1159 981.333 OFFCURVE",
"1159 1030 CURVE SMOOTH",
"1159 1091.33 OFFCURVE",
"1148.33 1147.5 OFFCURVE",
"1127 1198.5 CURVE SMOOTH",
"1105.67 1249.5 OFFCURVE",
"1072.5 1293.33 OFFCURVE",
"1027.5 1330 CURVE SMOOTH",
"982.5 1366.67 OFFCURVE",
"924.833 1395.17 OFFCURVE",
"854.5 1415.5 CURVE SMOOTH",
"784.167 1435.83 OFFCURVE",
"700 1446 OFFCURVE",
"602 1446 CURVE SMOOTH"
);
},
{
closed = 1;
nodes = (
"701.333 1238 OFFCURVE",
"775.167 1218.33 OFFCURVE",
"823.5 1179 CURVE SMOOTH",
"871.833 1139.67 OFFCURVE",
"896 1083.33 OFFCURVE",
"896 1010 CURVE SMOOTH",
"896 973.333 OFFCURVE",
"890 939.667 OFFCURVE",
"878 909 CURVE SMOOTH",
"866 878.333 OFFCURVE",
"847.833 851.833 OFFCURVE",
"823.5 829.5 CURVE SMOOTH",
"799.167 807.167 OFFCURVE",
"768.167 789.667 OFFCURVE",
"730.5 777 CURVE SMOOTH",
"692.833 764.333 OFFCURVE",
"648.667 758 OFFCURVE",
"598 758 CURVE SMOOTH",
"430 758 LINE",
"430 1238 LINE",
"602 1238 LINE SMOOTH"
);
}
);
width = 1286;
}
);
leftKerningGroup = B;
rightKerningGroup = R;
unicode = 0052;
},
{
glyphname = S;
layers = (
{
layerId = "C25503A3-518C-4CE5-B03D-46F600126290";
name = Bold;
paths = (
{
closed = 1;
nodes = (
"998 1310 LINE",
"947.333 1358 OFFCURVE",
"886 1395.33 OFFCURVE",
"814 1422 CURVE SMOOTH",
"742 1448.67 OFFCURVE",
"663.333 1462 OFFCURVE",
"578 1462 CURVE SMOOTH",
"502 1462 OFFCURVE",
"434.667 1450.33 OFFCURVE",
"376 1427 CURVE SMOOTH",
"317.333 1403.67 OFFCURVE",
"268 1372.67 OFFCURVE",
"228 1334 CURVE SMOOTH",
"188 1295.33 OFFCURVE",
"157.5 1251 OFFCURVE",
"136.5 1201 CURVE SMOOTH",
"115.5 1151 OFFCURVE",
"105 1099.67 OFFCURVE",
"105 1047 CURVE SMOOTH",
"105 981 OFFCURVE",
"114.5 925.5 OFFCURVE",
"133.5 880.5 CURVE SMOOTH",
"152.5 835.5 OFFCURVE",
"177.667 798 OFFCURVE",
"209 768 CURVE SMOOTH",
"240.333 738 OFFCURVE",
"276 713.667 OFFCURVE",
"316 695 CURVE SMOOTH",
"356 676.333 OFFCURVE",
"396.667 660.333 OFFCURVE",
"438 647 CURVE SMOOTH",
"479.333 633.667 OFFCURVE",
"520 621.333 OFFCURVE",
"560 610 CURVE SMOOTH",
"600 598.667 OFFCURVE",
"635.667 584.833 OFFCURVE",
"667 568.5 CURVE SMOOTH",
"698.333 552.167 OFFCURVE",
"723.5 532 OFFCURVE",
"742.5 508 CURVE SMOOTH",
"761.5 484 OFFCURVE",
"771 453 OFFCURVE",
"771 415 CURVE SMOOTH",
"771 347 OFFCURVE",
"750 294.833 OFFCURVE",
"708 258.5 CURVE SMOOTH",
"666 222.167 OFFCURVE",
"606.667 204 OFFCURVE",
"530 204 CURVE SMOOTH",
"480 204 OFFCURVE",
"437.167 210.833 OFFCURVE",
"401.5 224.5 CURVE SMOOTH",
"365.833 238.167 OFFCURVE",
"334.667 253.333 OFFCURVE",
"308 270 CURVE SMOOTH",
"281.333 286.667 OFFCURVE",
"258.333 301.833 OFFCURVE",
"239 315.5 CURVE SMOOTH",
"219.667 329.167 OFFCURVE",
"201.667 336 OFFCURVE",
"185 336 CURVE SMOOTH",
"173 336 OFFCURVE",
"161.667 332.833 OFFCURVE",
"151 326.5 CURVE SMOOTH",
"140.333 320.167 OFFCURVE",
"131.667 312.333 OFFCURVE",
"125 303 CURVE",
"46 174 LINE",
"74 145.333 OFFCURVE",
"106 119.333 OFFCURVE",
"142 96 CURVE SMOOTH",
"178 72.6667 OFFCURVE",
"216.5 52.6667 OFFCURVE",
"257.5 36 CURVE SMOOTH",
"298.5 19.3334 OFFCURVE",
"341.333 6.50006 OFFCURVE",
"386 -2 CURVE SMOOTH",
"430.667 -11 OFFCURVE",
"476 -16 OFFCURVE",
"522 -16 CURVE SMOOTH",
"602 -16 OFFCURVE",
"673 -4 OFFCURVE",
"735 20.5001 CURVE SMOOTH",
"797 44.8334 OFFCURVE",
"849.5 78.1667 OFFCURVE",
"892.5 120.5 CURVE SMOOTH",
"935.5 162.833 OFFCURVE",
"968.167 212.5 OFFCURVE",
"990.5 269.5 CURVE SMOOTH",
"1012.83 326.5 OFFCURVE",
"1024 387.667 OFFCURVE",
"1024 453 CURVE SMOOTH",
"1024 513 OFFCURVE",
"1014.5 564 OFFCURVE",
"995.5 606 CURVE SMOOTH",
"976.5 648 OFFCURVE",
"951.333 683.5 OFFCURVE",
"920 712.5 CURVE SMOOTH",
"888.667 741.5 OFFCURVE",
"853 765.5 OFFCURVE",
"813 784.5 CURVE SMOOTH",
"773 803.5 OFFCURVE",
"732 820.167 OFFCURVE",
"690 834.5 CURVE SMOOTH",
"648 848.833 OFFCURVE",
"607 862.333 OFFCURVE",
"567 875 CURVE SMOOTH",
"527 887.667 OFFCURVE",
"491.333 902 OFFCURVE",
"460 918 CURVE SMOOTH",
"428.667 934 OFFCURVE",
"403.5 953.333 OFFCURVE",
"384.5 976 CURVE SMOOTH",
"365.5 998.667 OFFCURVE",
"356 1027 OFFCURVE",
"356 1061 CURVE SMOOTH",
"356 1087.67 OFFCURVE",
"360.667 1112.17 OFFCURVE",
"370 1134.5 CURVE SMOOTH",
"379.333 1156.83 OFFCURVE",
"393.5 1176 OFFCURVE",
"412.5 1192 CURVE SMOOTH",
"431.5 1208 OFFCURVE",
"455 1220.5 OFFCURVE",
"483 1229.5 CURVE SMOOTH",
"511 1238.5 OFFCURVE",
"543.667 1243 OFFCURVE",
"581 1243 CURVE SMOOTH",
"622.333 1243 OFFCURVE",
"658.167 1237.83 OFFCURVE",
"688.5 1227.5 CURVE SMOOTH",
"718.833 1217.17 OFFCURVE",
"745.333 1205.67 OFFCURVE",
"768 1193 CURVE SMOOTH",
"790.667 1180.33 OFFCURVE",
"810.167 1168.83 OFFCURVE",
"826.5 1158.5 CURVE SMOOTH",
"842.833 1148.17 OFFCURVE",
"858 1143 OFFCURVE",
"872 1143 CURVE SMOOTH",
"885.333 1143 OFFCURVE",
"896.5 1146.17 OFFCURVE",
"905.5 1152.5 CURVE SMOOTH",
"914.5 1158.83 OFFCURVE",
"923 1169 OFFCURVE",
"931 1183 CURVE SMOOTH"
);
}
);
width = 1097;
}
);
leftKerningGroup = S;
rightKerningGroup = S;
unicode = 0053;
},
{
glyphname = T;
layers = (
{
layerId = "C25503A3-518C-4CE5-B03D-46F600126290";
name = Bold;
paths = (
{
closed = 1;
nodes = (
"1171 1446 LINE",
"30 1446 LINE",
"30 1225 LINE",
"466 1225 LINE",
"466 0 LINE",
"735 0 LINE",
"735 1225 LINE",
"1171 1225 LINE"
);
}
);
width = 1200;
}
);
leftKerningGroup = T;
rightKerningGroup = T;
unicode = 0054;
},
{
glyphname = U;
layers = (
{
layerId = "C25503A3-518C-4CE5-B03D-46F600126290";
name = Bold;
paths = (
{
closed = 1;
nodes = (
"691 217 OFFCURVE",
"644.5 225.667 OFFCURVE",
"603.5 243 CURVE SMOOTH",
"562.5 260.333 OFFCURVE",
"527.833 284.833 OFFCURVE",
"499.5 316.5 CURVE SMOOTH",
"471.167 348.167 OFFCURVE",
"449.5 386.333 OFFCURVE",
"434.5 431 CURVE SMOOTH",
"419.5 475.667 OFFCURVE",
"412 525.667 OFFCURVE",
"412 581 CURVE SMOOTH",
"412 1446 LINE",
"143 1446 LINE",
"143 580 LINE SMOOTH",
"143 494 OFFCURVE",
"156.833 414.5 OFFCURVE",
"184.5 341.5 CURVE SMOOTH",
"212.167 268.5 OFFCURVE",
"251.833 205.5 OFFCURVE",
"303.5 152.5 CURVE SMOOTH",
"355.167 99.5 OFFCURVE",
"418 58.1667 OFFCURVE",
"492 28.5 CURVE SMOOTH",
"566 -1 OFFCURVE",
"649.667 -16 OFFCURVE",
"743 -16 CURVE SMOOTH",
"835.667 -16 OFFCURVE",
"919 -1 OFFCURVE",
"993 28.5 CURVE SMOOTH",
"1067 58.1667 OFFCURVE",
"1129.83 99.5 OFFCURVE",
"1181.5 152.5 CURVE SMOOTH",
"1233.17 205.5 OFFCURVE",
"1272.83 268.5 OFFCURVE",
"1300.5 341.5 CURVE SMOOTH",
"1328.17 414.5 OFFCURVE",
"1342 494 OFFCURVE",
"1342 580 CURVE SMOOTH",
"1342 1446 LINE",
"1073 1446 LINE",
"1073 580 LINE SMOOTH",
"1073 524.667 OFFCURVE",
"1065.5 474.667 OFFCURVE",
"1050.5 430 CURVE SMOOTH",
"1035.5 385.333 OFFCURVE",
"1014 347.333 OFFCURVE",
"986 316 CURVE SMOOTH",
"958 284.667 OFFCURVE",
"923.5 260.333 OFFCURVE",
"882.5 243 CURVE SMOOTH",
"841.5 225.667 OFFCURVE",
"795 217 OFFCURVE",
"743 217 CURVE SMOOTH"
);
}
);
width = 1485;
}
);
leftKerningGroup = U;
rightKerningGroup = U;
unicode = 0055;
},
{
glyphname = Uacute;
layers = (
{
layerId = "C25503A3-518C-4CE5-B03D-46F600126290";
name = Bold;
paths = (
{
closed = 1;
nodes = (
"143 0 LINE"
);
},
{
closed = 1;
nodes = (
"691 217 OFFCURVE",
"644.5 225.667 OFFCURVE",
"603.5 243 CURVE SMOOTH",
"562.5 260.333 OFFCURVE",
"527.833 284.833 OFFCURVE",
"499.5 316.5 CURVE SMOOTH",
"471.167 348.167 OFFCURVE",
"449.5 386.333 OFFCURVE",
"434.5 431 CURVE SMOOTH",
"419.5 475.667 OFFCURVE",
"412 525.667 OFFCURVE",
"412 581 CURVE SMOOTH",
"412 1446 LINE",
"143 1446 LINE",
"143 580 LINE SMOOTH",
"143 494 OFFCURVE",
"156.833 414.5 OFFCURVE",
"184.5 341.5 CURVE SMOOTH",
"212.167 268.5 OFFCURVE",
"251.833 205.5 OFFCURVE",
"303.5 152.5 CURVE SMOOTH",
"355.167 99.5 OFFCURVE",
"418 58.1667 OFFCURVE",
"492 28.5 CURVE SMOOTH",
"566 -1 OFFCURVE",
"649.667 -16 OFFCURVE",
"743 -16 CURVE SMOOTH",
"835.667 -16 OFFCURVE",
"919 -1 OFFCURVE",
"993 28.5 CURVE SMOOTH",
"1067 58.1667 OFFCURVE",
"1129.83 99.5 OFFCURVE",
"1181.5 152.5 CURVE SMOOTH",
"1233.17 205.5 OFFCURVE",
"1272.83 268.5 OFFCURVE",
"1300.5 341.5 CURVE SMOOTH",
"1328.17 414.5 OFFCURVE",
"1342 494 OFFCURVE",
"1342 580 CURVE SMOOTH",
"1342 1446 LINE",
"1073 1446 LINE",
"1073 580 LINE SMOOTH",
"1073 524.667 OFFCURVE",
"1065.5 474.667 OFFCURVE",
"1050.5 430 CURVE SMOOTH",
"1035.5 385.333 OFFCURVE",
"1014 347.333 OFFCURVE",
"986 316 CURVE SMOOTH",
"958 284.667 OFFCURVE",
"923.5 260.333 OFFCURVE",
"882.5 243 CURVE SMOOTH",
"841.5 225.667 OFFCURVE",
"795 217 OFFCURVE",
"743 217 CURVE SMOOTH"
);
},
{
closed = 1;
nodes = (
"1163 1861 LINE",
"888 1861 LINE SMOOTH",
"874.667 1861 OFFCURVE",
"863.167 1860.67 OFFCURVE",
"853.5 1860 CURVE SMOOTH",
"843.833 1859.33 OFFCURVE",
"835 1857.67 OFFCURVE",
"827 1855 CURVE SMOOTH",
"819 1852.33 OFFCURVE",
"811.667 1848.17 OFFCURVE",
"805 1842.5 CURVE SMOOTH",
"798.333 1836.83 OFFCURVE",
"791.667 1829.33 OFFCURVE",
"785 1820 CURVE",
"576 1549 LINE",
"755 1549 LINE SMOOTH",
"773.667 1549 OFFCURVE",
"789 1550.33 OFFCURVE",
"801 1553 CURVE SMOOTH",
"813 1555.67 OFFCURVE",
"825.667 1563 OFFCURVE",
"839 1575 CURVE SMOOTH"
);
}
);
width = 1485;
}
);
leftKerningGroup = U;
rightKerningGroup = U;
unicode = 00DA;
},
{
glyphname = Ucircumflex;
layers = (
{
layerId = "C25503A3-518C-4CE5-B03D-46F600126290";
name = Bold;
paths = (
{
closed = 1;
nodes = (
"143 0 LINE"
);
},
{
closed = 1;
nodes = (
"691 217 OFFCURVE",
"644.5 225.667 OFFCURVE",
"603.5 243 CURVE SMOOTH",
"562.5 260.333 OFFCURVE",
"527.833 284.833 OFFCURVE",
"499.5 316.5 CURVE SMOOTH",
"471.167 348.167 OFFCURVE",
"449.5 386.333 OFFCURVE",
"434.5 431 CURVE SMOOTH",
"419.5 475.667 OFFCURVE",
"412 525.667 OFFCURVE",
"412 581 CURVE SMOOTH",
"412 1446 LINE",
"143 1446 LINE",
"143 580 LINE SMOOTH",
"143 494 OFFCURVE",
"156.833 414.5 OFFCURVE",
"184.5 341.5 CURVE SMOOTH",
"212.167 268.5 OFFCURVE",
"251.833 205.5 OFFCURVE",
"303.5 152.5 CURVE SMOOTH",
"355.167 99.5 OFFCURVE",
"418 58.1667 OFFCURVE",
"492 28.5 CURVE SMOOTH",
"566 -1 OFFCURVE",
"649.667 -16 OFFCURVE",
"743 -16 CURVE SMOOTH",
"835.667 -16 OFFCURVE",
"919 -1 OFFCURVE",
"993 28.5 CURVE SMOOTH",
"1067 58.1667 OFFCURVE",
"1129.83 99.5 OFFCURVE",
"1181.5 152.5 CURVE SMOOTH",
"1233.17 205.5 OFFCURVE",
"1272.83 268.5 OFFCURVE",
"1300.5 341.5 CURVE SMOOTH",
"1328.17 414.5 OFFCURVE",
"1342 494 OFFCURVE",
"1342 580 CURVE SMOOTH",
"1342 1446 LINE",
"1073 1446 LINE",
"1073 580 LINE SMOOTH",
"1073 524.667 OFFCURVE",
"1065.5 474.667 OFFCURVE",
"1050.5 430 CURVE SMOOTH",
"1035.5 385.333 OFFCURVE",
"1014 347.333 OFFCURVE",
"986 316 CURVE SMOOTH",
"958 284.667 OFFCURVE",
"923.5 260.333 OFFCURVE",
"882.5 243 CURVE SMOOTH",
"841.5 225.667 OFFCURVE",
"795 217 OFFCURVE",
"743 217 CURVE SMOOTH"
);
},
{
closed = 1;
nodes = (
"1100 1549 LINE",
"859 1824 LINE",
"635 1824 LINE",
"394 1549 LINE",
"565 1549 LINE SMOOTH",
"575 1549 OFFCURVE",
"587.167 1550.83 OFFCURVE",
"601.5 1554.5 CURVE SMOOTH",
"615.833 1558.17 OFFCURVE",
"630.667 1569 OFFCURVE",
"646 1587 CURVE",
"728 1693 LINE",
"743 1715 LINE",
"745 1711.67 OFFCURVE",
"747.167 1708 OFFCURVE",
"749.5 1704 CURVE SMOOTH",
"751.833 1700 OFFCURVE",
"754.667 1696.33 OFFCURVE",
"758 1693 CURVE",
"840 1587 LINE",
"855.333 1569 OFFCURVE",
"870.167 1558.17 OFFCURVE",
"884.5 1554.5 CURVE SMOOTH",
"898.833 1550.83 OFFCURVE",
"911 1549 OFFCURVE",
"921 1549 CURVE SMOOTH"
);
}
);
width = 1485;
}
);
leftKerningGroup = U;
rightKerningGroup = U;
unicode = 00DB;
},
{
glyphname = Udieresis;
layers = (
{
layerId = "C25503A3-518C-4CE5-B03D-46F600126290";
name = Bold;
paths = (
{
closed = 1;
nodes = (
"143 0 LINE"
);
},
{
closed = 1;
nodes = (
"691 217 OFFCURVE",
"644.5 225.667 OFFCURVE",
"603.5 243 CURVE SMOOTH",
"562.5 260.333 OFFCURVE",
"527.833 284.833 OFFCURVE",
"499.5 316.5 CURVE SMOOTH",
"471.167 348.167 OFFCURVE",
"449.5 386.333 OFFCURVE",
"434.5 431 CURVE SMOOTH",
"419.5 475.667 OFFCURVE",
"412 525.667 OFFCURVE",
"412 581 CURVE SMOOTH",
"412 1446 LINE",
"143 1446 LINE",
"143 580 LINE SMOOTH",
"143 494 OFFCURVE",
"156.833 414.5 OFFCURVE",
"184.5 341.5 CURVE SMOOTH",
"212.167 268.5 OFFCURVE",
"251.833 205.5 OFFCURVE",
"303.5 152.5 CURVE SMOOTH",
"355.167 99.5 OFFCURVE",
"418 58.1667 OFFCURVE",
"492 28.5 CURVE SMOOTH",
"566 -1 OFFCURVE",
"649.667 -16 OFFCURVE",
"743 -16 CURVE SMOOTH",
"835.667 -16 OFFCURVE",
"919 -1 OFFCURVE",
"993 28.5 CURVE SMOOTH",
"1067 58.1667 OFFCURVE",
"1129.83 99.5 OFFCURVE",
"1181.5 152.5 CURVE SMOOTH",
"1233.17 205.5 OFFCURVE",
"1272.83 268.5 OFFCURVE",
"1300.5 341.5 CURVE SMOOTH",
"1328.17 414.5 OFFCURVE",
"1342 494 OFFCURVE",
"1342 580 CURVE SMOOTH",
"1342 1446 LINE",
"1073 1446 LINE",
"1073 580 LINE SMOOTH",
"1073 524.667 OFFCURVE",
"1065.5 474.667 OFFCURVE",
"1050.5 430 CURVE SMOOTH",
"1035.5 385.333 OFFCURVE",
"1014 347.333 OFFCURVE",
"986 316 CURVE SMOOTH",
"958 284.667 OFFCURVE",
"923.5 260.333 OFFCURVE",
"882.5 243 CURVE SMOOTH",
"841.5 225.667 OFFCURVE",
"795 217 OFFCURVE",
"743 217 CURVE SMOOTH"
);
},
{
closed = 1;
nodes = (
"657 1685 OFFCURVE",
"653.333 1702.17 OFFCURVE",
"646 1718.5 CURVE SMOOTH",
"638.667 1734.83 OFFCURVE",
"628.833 1749.17 OFFCURVE",
"616.5 1761.5 CURVE SMOOTH",
"604.167 1773.83 OFFCURVE",
"589.667 1783.67 OFFCURVE",
"573 1791 CURVE SMOOTH",
"556.333 1798.33 OFFCURVE",
"538.667 1802 OFFCURVE",
"520 1802 CURVE SMOOTH",
"502.667 1802 OFFCURVE",
"486.167 1798.33 OFFCURVE",
"470.5 1791 CURVE SMOOTH",
"454.833 1783.67 OFFCURVE",
"441 1773.83 OFFCURVE",
"429 1761.5 CURVE SMOOTH",
"417 1749.17 OFFCURVE",
"407.333 1734.83 OFFCURVE",
"400 1718.5 CURVE SMOOTH",
"392.667 1702.17 OFFCURVE",
"389 1685 OFFCURVE",
"389 1667 CURVE SMOOTH",
"389 1649 OFFCURVE",
"392.667 1632 OFFCURVE",
"400 1616 CURVE SMOOTH",
"407.333 1600 OFFCURVE",
"417 1586 OFFCURVE",
"429 1574 CURVE SMOOTH",
"441 1562 OFFCURVE",
"454.833 1552.67 OFFCURVE",
"470.5 1546 CURVE SMOOTH",
"486.167 1539.33 OFFCURVE",
"502.667 1536 OFFCURVE",
"520 1536 CURVE SMOOTH",
"538.667 1536 OFFCURVE",
"556.333 1539.33 OFFCURVE",
"573 1546 CURVE SMOOTH",
"589.667 1552.67 OFFCURVE",
"604.167 1562 OFFCURVE",
"616.5 1574 CURVE SMOOTH",
"628.833 1586 OFFCURVE",
"638.667 1600 OFFCURVE",
"646 1616 CURVE SMOOTH",
"653.333 1632 OFFCURVE",
"657 1649 OFFCURVE",
"657 1667 CURVE SMOOTH"
);
},
{
closed = 1;
nodes = (
"1097 1685 OFFCURVE",
"1093.5 1702.17 OFFCURVE",
"1086.5 1718.5 CURVE SMOOTH",
"1079.5 1734.83 OFFCURVE",
"1069.83 1749.17 OFFCURVE",
"1057.5 1761.5 CURVE SMOOTH",
"1045.17 1773.83 OFFCURVE",
"1030.83 1783.67 OFFCURVE",
"1014.5 1791 CURVE SMOOTH",
"998.167 1798.33 OFFCURVE",
"981 1802 OFFCURVE",
"963 1802 CURVE SMOOTH",
"944.333 1802 OFFCURVE",
"926.833 1798.33 OFFCURVE",
"910.5 1791 CURVE SMOOTH",
"894.167 1783.67 OFFCURVE",
"880 1773.83 OFFCURVE",
"868 1761.5 CURVE SMOOTH",
"856 1749.17 OFFCURVE",
"846.5 1734.83 OFFCURVE",
"839.5 1718.5 CURVE SMOOTH",
"832.5 1702.17 OFFCURVE",
"829 1685 OFFCURVE",
"829 1667 CURVE SMOOTH",
"829 1649 OFFCURVE",
"832.5 1632 OFFCURVE",
"839.5 1616 CURVE SMOOTH",
"846.5 1600 OFFCURVE",
"856 1586 OFFCURVE",
"868 1574 CURVE SMOOTH",
"880 1562 OFFCURVE",
"894.167 1552.67 OFFCURVE",
"910.5 1546 CURVE SMOOTH",
"926.833 1539.33 OFFCURVE",
"944.333 1536 OFFCURVE",
"963 1536 CURVE SMOOTH",
"981 1536 OFFCURVE",
"998.167 1539.33 OFFCURVE",
"1014.5 1546 CURVE SMOOTH",
"1030.83 1552.67 OFFCURVE",
"1045.17 1562 OFFCURVE",
"1057.5 1574 CURVE SMOOTH",
"1069.83 1586 OFFCURVE",
"1079.5 1600 OFFCURVE",
"1086.5 1616 CURVE SMOOTH",
"1093.5 1632 OFFCURVE",
"1097 1649 OFFCURVE",
"1097 1667 CURVE SMOOTH"
);
}
);
width = 1485;
}
);
leftKerningGroup = U;
rightKerningGroup = U;
unicode = 00DC;
},
{
glyphname = Ugrave;
layers = (
{
layerId = "C25503A3-518C-4CE5-B03D-46F600126290";
name = Bold;
paths = (
{
closed = 1;
nodes = (
"143 0 LINE"
);
},
{
closed = 1;
nodes = (
"691 217 OFFCURVE",
"644.5 225.667 OFFCURVE",
"603.5 243 CURVE SMOOTH",
"562.5 260.333 OFFCURVE",
"527.833 284.833 OFFCURVE",
"499.5 316.5 CURVE SMOOTH",
"471.167 348.167 OFFCURVE",
"449.5 386.333 OFFCURVE",
"434.5 431 CURVE SMOOTH",
"419.5 475.667 OFFCURVE",
"412 525.667 OFFCURVE",
"412 581 CURVE SMOOTH",
"412 1446 LINE",
"143 1446 LINE",
"143 580 LINE SMOOTH",
"143 494 OFFCURVE",
"156.833 414.5 OFFCURVE",
"184.5 341.5 CURVE SMOOTH",
"212.167 268.5 OFFCURVE",
"251.833 205.5 OFFCURVE",
"303.5 152.5 CURVE SMOOTH",
"355.167 99.5 OFFCURVE",
"418 58.1667 OFFCURVE",
"492 28.5 CURVE SMOOTH",
"566 -1 OFFCURVE",
"649.667 -16 OFFCURVE",
"743 -16 CURVE SMOOTH",
"835.667 -16 OFFCURVE",
"919 -1 OFFCURVE",
"993 28.5 CURVE SMOOTH",
"1067 58.1667 OFFCURVE",
"1129.83 99.5 OFFCURVE",
"1181.5 152.5 CURVE SMOOTH",
"1233.17 205.5 OFFCURVE",
"1272.83 268.5 OFFCURVE",
"1300.5 341.5 CURVE SMOOTH",
"1328.17 414.5 OFFCURVE",
"1342 494 OFFCURVE",
"1342 580 CURVE SMOOTH",
"1342 1446 LINE",
"1073 1446 LINE",
"1073 580 LINE SMOOTH",
"1073 524.667 OFFCURVE",
"1065.5 474.667 OFFCURVE",
"1050.5 430 CURVE SMOOTH",
"1035.5 385.333 OFFCURVE",
"1014 347.333 OFFCURVE",
"986 316 CURVE SMOOTH",
"958 284.667 OFFCURVE",
"923.5 260.333 OFFCURVE",
"882.5 243 CURVE SMOOTH",
"841.5 225.667 OFFCURVE",
"795 217 OFFCURVE",
"743 217 CURVE SMOOTH"
);
},
{
closed = 1;
nodes = (
"320 1861 LINE",
"639 1573 LINE SMOOTH",
"652.333 1561.67 OFFCURVE",
"664.5 1554.83 OFFCURVE",
"675.5 1552.5 CURVE SMOOTH",
"686.5 1550.17 OFFCURVE",
"701.667 1549 OFFCURVE",
"721 1549 CURVE SMOOTH",
"900 1549 LINE",
"682 1820 LINE SMOOTH",
"674.667 1829.33 OFFCURVE",
"667.667 1836.67 OFFCURVE",
"661 1842 CURVE SMOOTH",
"654.333 1847.33 OFFCURVE",
"647.167 1851.5 OFFCURVE",
"639.5 1854.5 CURVE SMOOTH",
"631.833 1857.5 OFFCURVE",
"623.167 1859.33 OFFCURVE",
"613.5 1860 CURVE SMOOTH",
"603.833 1860.67 OFFCURVE",
"592.333 1861 OFFCURVE",
"579 1861 CURVE SMOOTH"
);
}
);
width = 1485;
}
);
leftKerningGroup = U;
rightKerningGroup = U;
unicode = 00D9;
},
{
glyphname = V;
layers = (
{
layerId = "C25503A3-518C-4CE5-B03D-46F600126290";
name = Bold;
paths = (
{
closed = 1;
nodes = (
"-11 1446 LINE",
"573 0 LINE",
"816 0 LINE",
"1400 1446 LINE",
"1183 1446 LINE SMOOTH",
"1160.33 1446 OFFCURVE",
"1141.17 1439.67 OFFCURVE",
"1125.5 1427 CURVE SMOOTH",
"1109.83 1414.33 OFFCURVE",
"1099.33 1400.33 OFFCURVE",
"1094 1385 CURVE SMOOTH",
"755 503 LINE SMOOTH",
"743.667 474.333 OFFCURVE",
"733.167 442.833 OFFCURVE",
"723.5 408.5 CURVE SMOOTH",
"713.833 374.167 OFFCURVE",
"705.333 338.333 OFFCURVE",
"698 301 CURVE",
"688.667 338.333 OFFCURVE",
"678.833 374.167 OFFCURVE",
"668.5 408.5 CURVE SMOOTH",
"658.167 442.833 OFFCURVE",
"647.333 474.333 OFFCURVE",
"636 503 CURVE SMOOTH",
"295 1385 LINE SMOOTH",
"287.667 1403 OFFCURVE",
"276.667 1417.67 OFFCURVE",
"262 1429 CURVE SMOOTH",
"247.334 1440.33 OFFCURVE",
"228.334 1446 OFFCURVE",
"205 1446 CURVE SMOOTH"
);
}
);
width = 1389;
}
);
leftKerningGroup = V;
rightKerningGroup = V;
unicode = 0056;
},
{
glyphname = W;
layers = (
{
layerId = "C25503A3-518C-4CE5-B03D-46F600126290";
name = Bold;
paths = (
{
closed = 1;
nodes = (
"17 1446 LINE",
"465 0 LINE",
"709 0 LINE",
"1028 988 LINE SMOOTH",
"1032 1000.67 OFFCURVE",
"1036.17 1014.33 OFFCURVE",
"1040.5 1029 CURVE SMOOTH",
"1044.83 1043.67 OFFCURVE",
"1048.67 1059 OFFCURVE",
"1052 1075 CURVE",
"1056 1059 OFFCURVE",
"1060 1043.67 OFFCURVE",
"1064 1029 CURVE SMOOTH",
"1068 1014.33 OFFCURVE",
"1072.33 1000.67 OFFCURVE",
"1077 988 CURVE",
"1393 -6 LINE",
"1636 -6 LINE",
"2085 1446 LINE",
"1874 1446 LINE SMOOTH",
"1851.33 1446 OFFCURVE",
"1831.83 1440 OFFCURVE",
"1815.5 1428 CURVE SMOOTH",
"1799.17 1416 OFFCURVE",
"1789 1401.67 OFFCURVE",
"1785 1385 CURVE",
"1539 520 LINE SMOOTH",
"1528.33 477.333 OFFCURVE",
"1518.67 429.667 OFFCURVE",
"1510 377 CURVE",
"1498.67 431 OFFCURVE",
"1486 478.667 OFFCURVE",
"1472 520 CURVE SMOOTH",
"1189 1385 LINE",
"1181.67 1403 OFFCURVE",
"1170.67 1417.67 OFFCURVE",
"1156 1429 CURVE SMOOTH",
"1141.33 1440.33 OFFCURVE",
"1122.33 1446 OFFCURVE",
"1099 1446 CURVE SMOOTH",
"1020 1446 LINE SMOOTH",
"997.333 1446 OFFCURVE",
"978.167 1439.67 OFFCURVE",
"962.5 1427 CURVE SMOOTH",
"946.833 1414.33 OFFCURVE",
"936.333 1400.33 OFFCURVE",
"931 1385 CURVE SMOOTH",
"647 520 LINE SMOOTH",
"639.667 498.667 OFFCURVE",
"632.833 475.5 OFFCURVE",
"626.5 450.5 CURVE SMOOTH",
"620.167 425.5 OFFCURVE",
"614.333 399 OFFCURVE",
"609 371 CURVE",
"603.667 399 OFFCURVE",
"598.5 425.5 OFFCURVE",
"593.5 450.5 CURVE SMOOTH",
"588.5 475.5 OFFCURVE",
"583.333 498.667 OFFCURVE",
"578 520 CURVE SMOOTH",
"332 1385 LINE SMOOTH",
"326.667 1403.67 OFFCURVE",
"316.167 1418.5 OFFCURVE",
"300.5 1429.5 CURVE SMOOTH",
"284.833 1440.5 OFFCURVE",
"265.333 1446 OFFCURVE",
"242 1446 CURVE SMOOTH"
);
}
);
width = 2102;
}
);
leftKerningGroup = W;
rightKerningGroup = W;
unicode = 0057;
},
{
glyphname = X;
layers = (
{
layerId = "C25503A3-518C-4CE5-B03D-46F600126290";
name = Bold;
paths = (
{
closed = 1;
nodes = (
"483 744 LINE",
"3 0 LINE",
"254 0 LINE SMOOTH",
"270.667 0 OFFCURVE",
"284.167 4.83333 OFFCURVE",
"294.5 14.5 CURVE SMOOTH",
"304.833 24.1667 OFFCURVE",
"314 34.6667 OFFCURVE",
"322 46 CURVE",
"643 558 LINE SMOOTH",
"651 571.333 OFFCURVE",
"657.333 585.333 OFFCURVE",
"662 600 CURVE",
"997 46 LINE",
"1003.67 34 OFFCURVE",
"1012.5 23.3333 OFFCURVE",
"1023.5 14 CURVE SMOOTH",
"1034.5 4.66667 OFFCURVE",
"1049.33 0 OFFCURVE",
"1068 0 CURVE SMOOTH",
"1336 0 LINE",
"858 755 LINE",
"1323 1446 LINE",
"1066 1446 LINE SMOOTH",
"1052.67 1446 OFFCURVE",
"1041.67 1443 OFFCURVE",
"1033 1437 CURVE SMOOTH",
"1024.33 1431 OFFCURVE",
"1016.33 1421.67 OFFCURVE",
"1009 1409 CURVE",
"707 934 LINE SMOOTH",
"701.667 925.333 OFFCURVE",
"697 916.833 OFFCURVE",
"693 908.5 CURVE SMOOTH",
"689 900.167 OFFCURVE",
"685.333 892 OFFCURVE",
"682 884 CURVE",
"354 1414 LINE SMOOTH",
"346.667 1425.33 OFFCURVE",
"338.833 1433.5 OFFCURVE",
"330.5 1438.5 CURVE SMOOTH",
"322.167 1443.5 OFFCURVE",
"308.667 1446 OFFCURVE",
"290 1446 CURVE SMOOTH",
"22 1446 LINE"
);
}
);
width = 1341;
}
);
leftKerningGroup = X;
rightKerningGroup = X;
unicode = 0058;
},
{
glyphname = Y;
layers = (
{
layerId = "C25503A3-518C-4CE5-B03D-46F600126290";
name = Bold;
paths = (
{
closed = 1;
nodes = (
"782 560 LINE",
"1309 1446 LINE",
"1071 1446 LINE SMOOTH",
"1048.33 1446 OFFCURVE",
"1029.67 1439.67 OFFCURVE",
"1015 1427 CURVE SMOOTH",
"1000.33 1414.33 OFFCURVE",
"989.333 1400.67 OFFCURVE",
"982 1386 CURVE",
"719 903 LINE SMOOTH",
"704.333 874.333 OFFCURVE",
"691.333 847.333 OFFCURVE",
"680 822 CURVE SMOOTH",
"668.667 796.667 OFFCURVE",
"658.667 771.333 OFFCURVE",
"650 746 CURVE",
"640.667 770.667 OFFCURVE",
"630.167 795.667 OFFCURVE",
"618.5 821 CURVE SMOOTH",
"606.833 846.333 OFFCURVE",
"593.333 873.667 OFFCURVE",
"578 903 CURVE SMOOTH",
"314 1386 LINE SMOOTH",
"304.667 1403.33 OFFCURVE",
"293.167 1417.67 OFFCURVE",
"279.5 1429 CURVE SMOOTH",
"265.833 1440.33 OFFCURVE",
"247.333 1446 OFFCURVE",
"224 1446 CURVE SMOOTH",
"-13 1446 LINE",
"514 560 LINE",
"514 0 LINE",
"782 0 LINE"
);
}
);
width = 1296;
}
);
leftKerningGroup = Y;
rightKerningGroup = Y;
unicode = 0059;
},
{
glyphname = Yacute;
layers = (
{
layerId = "C25503A3-518C-4CE5-B03D-46F600126290";
name = Bold;
paths = (
{
closed = 1;
nodes = (
"0 0 LINE"
);
},
{
closed = 1;
nodes = (
"782 560 LINE",
"1309 1446 LINE",
"1071 1446 LINE SMOOTH",
"1048.33 1446 OFFCURVE",
"1029.67 1439.67 OFFCURVE",
"1015 1427 CURVE SMOOTH",
"1000.33 1414.33 OFFCURVE",
"989.333 1400.67 OFFCURVE",
"982 1386 CURVE",
"719 903 LINE SMOOTH",
"704.333 874.333 OFFCURVE",
"691.333 847.333 OFFCURVE",
"680 822 CURVE SMOOTH",
"668.667 796.667 OFFCURVE",
"658.667 771.333 OFFCURVE",
"650 746 CURVE",
"640.667 770.667 OFFCURVE",
"630.167 795.667 OFFCURVE",
"618.5 821 CURVE SMOOTH",
"606.833 846.333 OFFCURVE",
"593.333 873.667 OFFCURVE",
"578 903 CURVE SMOOTH",
"314 1386 LINE SMOOTH",
"304.667 1403.33 OFFCURVE",
"293.167 1417.67 OFFCURVE",
"279.5 1429 CURVE SMOOTH",
"265.833 1440.33 OFFCURVE",
"247.333 1446 OFFCURVE",
"224 1446 CURVE SMOOTH",
"-13 1446 LINE",
"514 560 LINE",
"514 0 LINE",
"782 0 LINE"
);
},
{
closed = 1;
nodes = (
"1071 1861 LINE",
"796 1861 LINE SMOOTH",
"782.667 1861 OFFCURVE",
"771.167 1860.67 OFFCURVE",
"761.5 1860 CURVE SMOOTH",
"751.833 1859.33 OFFCURVE",
"743 1857.67 OFFCURVE",
"735 1855 CURVE SMOOTH",
"727 1852.33 OFFCURVE",
"719.667 1848.17 OFFCURVE",
"713 1842.5 CURVE SMOOTH",
"706.333 1836.83 OFFCURVE",
"699.667 1829.33 OFFCURVE",
"693 1820 CURVE",
"484 1549 LINE",
"663 1549 LINE SMOOTH",
"681.667 1549 OFFCURVE",
"697 1550.33 OFFCURVE",
"709 1553 CURVE SMOOTH",
"721 1555.67 OFFCURVE",
"733.667 1563 OFFCURVE",
"747 1575 CURVE SMOOTH"
);
}
);
width = 1296;
}
);
leftKerningGroup = Y;
rightKerningGroup = Y;
unicode = 00DD;
},
{
glyphname = Ydieresis;
layers = (
{
layerId = "C25503A3-518C-4CE5-B03D-46F600126290";
name = Bold;
paths = (
{
closed = 1;
nodes = (
"0 0 LINE"
);
},
{
closed = 1;
nodes = (
"782 560 LINE",
"1309 1446 LINE",
"1071 1446 LINE SMOOTH",
"1048.33 1446 OFFCURVE",
"1029.67 1439.67 OFFCURVE",
"1015 1427 CURVE SMOOTH",
"1000.33 1414.33 OFFCURVE",
"989.333 1400.67 OFFCURVE",
"982 1386 CURVE",
"719 903 LINE SMOOTH",
"704.333 874.333 OFFCURVE",
"691.333 847.333 OFFCURVE",
"680 822 CURVE SMOOTH",
"668.667 796.667 OFFCURVE",
"658.667 771.333 OFFCURVE",
"650 746 CURVE",
"640.667 770.667 OFFCURVE",
"630.167 795.667 OFFCURVE",
"618.5 821 CURVE SMOOTH",
"606.833 846.333 OFFCURVE",
"593.333 873.667 OFFCURVE",
"578 903 CURVE SMOOTH",
"314 1386 LINE SMOOTH",
"304.667 1403.33 OFFCURVE",
"293.167 1417.67 OFFCURVE",
"279.5 1429 CURVE SMOOTH",
"265.833 1440.33 OFFCURVE",
"247.333 1446 OFFCURVE",
"224 1446 CURVE SMOOTH",
"-13 1446 LINE",
"514 560 LINE",
"514 0 LINE",
"782 0 LINE"
);
},
{
closed = 1;
nodes = (
"564 1685 OFFCURVE",
"560.333 1702.17 OFFCURVE",
"553 1718.5 CURVE SMOOTH",
"545.667 1734.83 OFFCURVE",
"535.833 1749.17 OFFCURVE",
"523.5 1761.5 CURVE SMOOTH",
"511.167 1773.83 OFFCURVE",
"496.667 1783.67 OFFCURVE",
"480 1791 CURVE SMOOTH",
"463.333 1798.33 OFFCURVE",
"445.667 1802 OFFCURVE",
"427 1802 CURVE SMOOTH",
"409.667 1802 OFFCURVE",
"393.167 1798.33 OFFCURVE",
"377.5 1791 CURVE SMOOTH",
"361.833 1783.67 OFFCURVE",
"348 1773.83 OFFCURVE",
"336 1761.5 CURVE SMOOTH",
"324 1749.17 OFFCURVE",
"314.333 1734.83 OFFCURVE",
"307 1718.5 CURVE SMOOTH",
"299.667 1702.17 OFFCURVE",
"296 1685 OFFCURVE",
"296 1667 CURVE SMOOTH",
"296 1649 OFFCURVE",
"299.667 1632 OFFCURVE",
"307 1616 CURVE SMOOTH",
"314.333 1600 OFFCURVE",
"324 1586 OFFCURVE",
"336 1574 CURVE SMOOTH",
"348 1562 OFFCURVE",
"361.833 1552.67 OFFCURVE",
"377.5 1546 CURVE SMOOTH",
"393.167 1539.33 OFFCURVE",
"409.667 1536 OFFCURVE",
"427 1536 CURVE SMOOTH",
"445.667 1536 OFFCURVE",
"463.333 1539.33 OFFCURVE",
"480 1546 CURVE SMOOTH",
"496.667 1552.67 OFFCURVE",
"511.167 1562 OFFCURVE",
"523.5 1574 CURVE SMOOTH",
"535.833 1586 OFFCURVE",
"545.667 1600 OFFCURVE",
"553 1616 CURVE SMOOTH",
"560.333 1632 OFFCURVE",
"564 1649 OFFCURVE",
"564 1667 CURVE SMOOTH"
);
},
{
closed = 1;
nodes = (
"1004 1685 OFFCURVE",
"1000.5 1702.17 OFFCURVE",
"993.5 1718.5 CURVE SMOOTH",
"986.5 1734.83 OFFCURVE",
"976.833 1749.17 OFFCURVE",
"964.5 1761.5 CURVE SMOOTH",
"952.167 1773.83 OFFCURVE",
"937.833 1783.67 OFFCURVE",
"921.5 1791 CURVE SMOOTH",
"905.167 1798.33 OFFCURVE",
"888 1802 OFFCURVE",
"870 1802 CURVE SMOOTH",
"851.333 1802 OFFCURVE",
"833.833 1798.33 OFFCURVE",
"817.5 1791 CURVE SMOOTH",
"801.167 1783.67 OFFCURVE",
"787 1773.83 OFFCURVE",
"775 1761.5 CURVE SMOOTH",
"763 1749.17 OFFCURVE",
"753.5 1734.83 OFFCURVE",
"746.5 1718.5 CURVE SMOOTH",
"739.5 1702.17 OFFCURVE",
"736 1685 OFFCURVE",
"736 1667 CURVE SMOOTH",
"736 1649 OFFCURVE",
"739.5 1632 OFFCURVE",
"746.5 1616 CURVE SMOOTH",
"753.5 1600 OFFCURVE",
"763 1586 OFFCURVE",
"775 1574 CURVE SMOOTH",
"787 1562 OFFCURVE",
"801.167 1552.67 OFFCURVE",
"817.5 1546 CURVE SMOOTH",
"833.833 1539.33 OFFCURVE",
"851.333 1536 OFFCURVE",
"870 1536 CURVE SMOOTH",
"888 1536 OFFCURVE",
"905.167 1539.33 OFFCURVE",
"921.5 1546 CURVE SMOOTH",
"937.833 1552.67 OFFCURVE",
"952.167 1562 OFFCURVE",
"964.5 1574 CURVE SMOOTH",
"976.833 1586 OFFCURVE",
"986.5 1600 OFFCURVE",
"993.5 1616 CURVE SMOOTH",
"1000.5 1632 OFFCURVE",
"1004 1649 OFFCURVE",
"1004 1667 CURVE SMOOTH"
);
}
);
width = 1296;
}
);
leftKerningGroup = Y;
rightKerningGroup = Y;
unicode = 0178;
},
{
glyphname = Z;
layers = (
{
layerId = "C25503A3-518C-4CE5-B03D-46F600126290";
name = Bold;
paths = (
{
closed = 1;
nodes = (
"1157 1446 LINE",
"87 1446 LINE",
"87 1232 LINE",
"809 1232 LINE",
"65 179 LINE SMOOTH",
"57.6667 168.333 OFFCURVE",
"51.6667 156.833 OFFCURVE",
"47 144.5 CURVE SMOOTH",
"42.3333 132.167 OFFCURVE",
"40 119.333 OFFCURVE",
"40 106 CURVE SMOOTH",
"40 0 LINE",
"1140 0 LINE",
"1140 215 LINE",
"389 215 LINE",
"1131 1263 LINE SMOOTH",
"1148.33 1288.33 OFFCURVE",
"1157 1316.33 OFFCURVE",
"1157 1347 CURVE SMOOTH"
);
}
);
width = 1211;
}
);
leftKerningGroup = Z;
rightKerningGroup = Z;
unicode = 005A;
},
{
glyphname = a;
lastChange = "2014-08-19 18:28:05 -0500";
layers = (
{
layerId = "C25503A3-518C-4CE5-B03D-46F600126290";
name = Bold;
paths = (
{
closed = 1;
nodes = (
"905 0 LINE",
"905 648 LINE SMOOTH",
"905 706 OFFCURVE",
"896.5 759.333 OFFCURVE",
"879.5 808 CURVE SMOOTH",
"862.5 856.667 OFFCURVE",
"837.667 898.5 OFFCURVE",
"805 933.5 CURVE SMOOTH",
"772.333 968.5 OFFCURVE",
"732.333 995.833 OFFCURVE",
"685 1015.5 CURVE SMOOTH",
"637.667 1035.17 OFFCURVE",
"584 1045 OFFCURVE",
"524 1045 CURVE SMOOTH",
"358 1045 OFFCURVE",
"216 991 OFFCURVE",
"98 883 CURVE",
"142 804 LINE",
"149.333 792 OFFCURVE",
"159 781.5 OFFCURVE",
"171 772.5 CURVE SMOOTH",
"183 763.5 OFFCURVE",
"197.667 759 OFFCURVE",
"215 759 CURVE SMOOTH",
"235 759 OFFCURVE",
"253.167 763.667 OFFCURVE",
"269.5 773 CURVE SMOOTH",
"285.833 782.333 OFFCURVE",
"304 792.833 OFFCURVE",
"324 804.5 CURVE SMOOTH",
"344 816.167 OFFCURVE",
"367.167 826.667 OFFCURVE",
"393.5 836 CURVE SMOOTH",
"419.833 845.333 OFFCURVE",
"453 850 OFFCURVE",
"493 850 CURVE SMOOTH",
"548.333 850 OFFCURVE",
"590.667 833.5 OFFCURVE",
"620 800.5 CURVE SMOOTH",
"649.333 767.5 OFFCURVE",
"664 716.667 OFFCURVE",
"664 648 CURVE SMOOTH",
"664 630 LINE",
"547 627 OFFCURVE",
"449 616 OFFCURVE",
"370 596 CURVE SMOOTH",
"291 576 OFFCURVE",
"228 551 OFFCURVE",
"181 521 CURVE SMOOTH",
"134 490 OFFCURVE",
"100 456 OFFCURVE",
"79 419 CURVE SMOOTH",
"59 381 OFFCURVE",
"49 343 OFFCURVE",
"48.9999 262 CURVE SMOOTH",
"49 216 OFFCURVE",
"56.3333 175.667 OFFCURVE",
"70.9999 141 CURVE SMOOTH",
"85.6666 106.333 OFFCURVE",
"106.333 77.3333 OFFCURVE",
"133 54 CURVE SMOOTH",
"159.667 30.6667 OFFCURVE",
"191.333 13.1667 OFFCURVE",
"228 1.5 CURVE SMOOTH",
"264.667 -10 OFFCURVE",
"304.667 -16 OFFCURVE",
"348 -16 CURVE SMOOTH",
"384.667 -16 OFFCURVE",
"418.167 -13 OFFCURVE",
"448.5 -7 CURVE SMOOTH",
"478.833 -1 OFFCURVE",
"507.333 8 OFFCURVE",
"534 20 CURVE SMOOTH",
"560.667 32 OFFCURVE",
"586.333 46.8333 OFFCURVE",
"611 64.5 CURVE SMOOTH",
"635.667 82.1667 OFFCURVE",
"661 102.667 OFFCURVE",
"687 126 CURVE",
"709 53 LINE",
"716.333 31.6667 OFFCURVE",
"726.333 17.5 OFFCURVE",
"739 10.5 CURVE SMOOTH",
"751.667 3.5 OFFCURVE",
"769.667 0 OFFCURVE",
"793 0 CURVE SMOOTH"
);
},
{
closed = 1;
nodes = (
"382.667 154 OFFCURVE",
"349.167 163.333 OFFCURVE",
"323.5 182 CURVE SMOOTH",
"297.833 200.667 OFFCURVE",
"285 274 OFFCURVE",
"285 317 CURVE SMOOTH",
"285 339 OFFCURVE",
"291 359 OFFCURVE",
"304 378 CURVE SMOOTH",
"317 397 OFFCURVE",
"338 413 OFFCURVE",
"367 427 CURVE SMOOTH",
"396 441 OFFCURVE",
"435 453 OFFCURVE",
"484 462 CURVE SMOOTH",
"532 471 OFFCURVE",
"592 477 OFFCURVE",
"664 480 CURVE",
"664 265 LINE",
"628.667 227.667 OFFCURVE",
"592.5 199.833 OFFCURVE",
"555.5 181.5 CURVE SMOOTH",
"518.5 163.167 OFFCURVE",
"474.667 154 OFFCURVE",
"424 154 CURVE SMOOTH"
);
}
);
width = 1015;
}
);
leftKerningGroup = a;
rightKerningGroup = a;
unicode = 0061;
},
{
glyphname = aacute;
lastChange = "2014-08-19 18:28:14 -0500";
layers = (
{
layerId = "C25503A3-518C-4CE5-B03D-46F600126290";
name = Bold;
paths = (
{
closed = 1;
nodes = (
"847 1462 LINE",
"607 1462 LINE SMOOTH",
"580.333 1462 OFFCURVE",
"560.333 1457.5 OFFCURVE",
"547 1448.5 CURVE SMOOTH",
"533.667 1439.5 OFFCURVE",
"522 1426.33 OFFCURVE",
"512 1409 CURVE SMOOTH",
"370 1166 LINE",
"518 1166 LINE SMOOTH",
"536.667 1166 OFFCURVE",
"551.833 1168.5 OFFCURVE",
"563.5 1173.5 CURVE SMOOTH",
"575.167 1178.5 OFFCURVE",
"587.333 1187.67 OFFCURVE",
"600 1201 CURVE SMOOTH"
);
},
{
closed = 1;
nodes = (
"905 0 LINE",
"905 648 LINE SMOOTH",
"905 706 OFFCURVE",
"896.5 759.333 OFFCURVE",
"879.5 808 CURVE SMOOTH",
"862.5 856.667 OFFCURVE",
"837.667 898.5 OFFCURVE",
"805 933.5 CURVE SMOOTH",
"772.333 968.5 OFFCURVE",
"732.333 995.833 OFFCURVE",
"685 1015.5 CURVE SMOOTH",
"637.667 1035.17 OFFCURVE",
"584 1045 OFFCURVE",
"524 1045 CURVE SMOOTH",
"358 1045 OFFCURVE",
"216 991 OFFCURVE",
"98 883 CURVE",
"142 804 LINE",
"149.333 792 OFFCURVE",
"159 781.5 OFFCURVE",
"171 772.5 CURVE SMOOTH",
"183 763.5 OFFCURVE",
"197.667 759 OFFCURVE",
"215 759 CURVE SMOOTH",
"235 759 OFFCURVE",
"253.167 763.667 OFFCURVE",
"269.5 773 CURVE SMOOTH",
"285.833 782.333 OFFCURVE",
"304 792.833 OFFCURVE",
"324 804.5 CURVE SMOOTH",
"344 816.167 OFFCURVE",
"367.167 826.667 OFFCURVE",
"393.5 836 CURVE SMOOTH",
"419.833 845.333 OFFCURVE",
"453 850 OFFCURVE",
"493 850 CURVE SMOOTH",
"548.333 850 OFFCURVE",
"590.667 833.5 OFFCURVE",
"620 800.5 CURVE SMOOTH",
"649.333 767.5 OFFCURVE",
"664 716.667 OFFCURVE",
"664 648 CURVE SMOOTH",
"664 630 LINE",
"547 627 OFFCURVE",
"449 616 OFFCURVE",
"370 596 CURVE SMOOTH",
"291 576 OFFCURVE",
"228 551 OFFCURVE",
"181 521 CURVE SMOOTH",
"134 490 OFFCURVE",
"100 456 OFFCURVE",
"79 419 CURVE SMOOTH",
"59 381 OFFCURVE",
"49 343 OFFCURVE",
"49 262 CURVE SMOOTH",
"49 216 OFFCURVE",
"56.333 175.667 OFFCURVE",
"71 141 CURVE SMOOTH",
"85.667 106.333 OFFCURVE",
"106.333 77.333 OFFCURVE",
"133 54 CURVE SMOOTH",
"159.667 30.667 OFFCURVE",
"191.333 13.167 OFFCURVE",
"228 1.5 CURVE SMOOTH",
"264.667 -10 OFFCURVE",
"304.667 -16 OFFCURVE",
"348 -16 CURVE SMOOTH",
"384.667 -16 OFFCURVE",
"418.167 -13 OFFCURVE",
"448.5 -7 CURVE SMOOTH",
"478.833 -1 OFFCURVE",
"507.333 8 OFFCURVE",
"534 20 CURVE SMOOTH",
"560.667 32 OFFCURVE",
"586.333 46.833 OFFCURVE",
"611 64.5 CURVE SMOOTH",
"635.667 82.167 OFFCURVE",
"661 102.667 OFFCURVE",
"687 126 CURVE",
"709 53 LINE",
"716.333 31.667 OFFCURVE",
"726.333 17.5 OFFCURVE",
"739 10.5 CURVE SMOOTH",
"751.667 3.5 OFFCURVE",
"769.667 0 OFFCURVE",
"793 0 CURVE SMOOTH"
);
},
{
closed = 1;
nodes = (
"382.667 154 OFFCURVE",
"349.167 163.333 OFFCURVE",
"323.5 182 CURVE SMOOTH",
"297.833 200.667 OFFCURVE",
"285 274 OFFCURVE",
"285 317 CURVE SMOOTH",
"285 339 OFFCURVE",
"291 359 OFFCURVE",
"304 378 CURVE SMOOTH",
"317 397 OFFCURVE",
"338 413 OFFCURVE",
"367 427 CURVE SMOOTH",
"396 441 OFFCURVE",
"435 453 OFFCURVE",
"484 462 CURVE SMOOTH",
"532 471 OFFCURVE",
"592 477 OFFCURVE",
"664 480 CURVE",
"664 265 LINE",
"628.667 227.667 OFFCURVE",
"592.5 199.833 OFFCURVE",
"555.5 181.5 CURVE SMOOTH",
"518.5 163.167 OFFCURVE",
"474.667 154 OFFCURVE",
"424 154 CURVE SMOOTH"
);
}
);
width = 1015;
}
);
leftKerningGroup = a;
rightKerningGroup = a;
unicode = 00E1;
},
{
glyphname = acircumflex;
layers = (
{
layerId = "C25503A3-518C-4CE5-B03D-46F600126290";
name = Bold;
paths = (
{
closed = 1;
nodes = (
"49 0 LINE"
);
},
{
closed = 1;
nodes = (
"905 0 LINE",
"905 648 LINE SMOOTH",
"905 706 OFFCURVE",
"896.5 759.333 OFFCURVE",
"879.5 808 CURVE SMOOTH",
"862.5 856.667 OFFCURVE",
"837.667 898.5 OFFCURVE",
"805 933.5 CURVE SMOOTH",
"772.333 968.5 OFFCURVE",
"732.333 995.833 OFFCURVE",
"685 1015.5 CURVE SMOOTH",
"637.667 1035.17 OFFCURVE",
"584 1045 OFFCURVE",
"524 1045 CURVE SMOOTH",
"358 1045 OFFCURVE",
"216 991 OFFCURVE",
"98 883 CURVE",
"142 804 LINE",
"149.333 792 OFFCURVE",
"159 781.5 OFFCURVE",
"171 772.5 CURVE SMOOTH",
"183 763.5 OFFCURVE",
"197.667 759 OFFCURVE",
"215 759 CURVE SMOOTH",
"235 759 OFFCURVE",
"253.167 763.667 OFFCURVE",
"269.5 773 CURVE SMOOTH",
"285.833 782.333 OFFCURVE",
"304 792.833 OFFCURVE",
"324 804.5 CURVE SMOOTH",
"344 816.167 OFFCURVE",
"367.167 826.667 OFFCURVE",
"393.5 836 CURVE SMOOTH",
"419.833 845.333 OFFCURVE",
"453 850 OFFCURVE",
"493 850 CURVE SMOOTH",
"548.333 850 OFFCURVE",
"590.667 833.5 OFFCURVE",
"620 800.5 CURVE SMOOTH",
"649.333 767.5 OFFCURVE",
"664 716.667 OFFCURVE",
"664 648 CURVE SMOOTH",
"664 588 LINE",
"546.667 585.333 OFFCURVE",
"448.667 574 OFFCURVE",
"370 554 CURVE SMOOTH",
"291.333 534 OFFCURVE",
"228.333 508.833 OFFCURVE",
"181 478.5 CURVE SMOOTH",
"133.667 448.167 OFFCURVE",
"99.8333 414.167 OFFCURVE",
"79.4999 376.5 CURVE SMOOTH",
"59.1666 338.833 OFFCURVE",
"48.9999 300.667 OFFCURVE",
"48.9999 262 CURVE SMOOTH",
"48.9999 216 OFFCURVE",
"56.3333 175.667 OFFCURVE",
"70.9999 141 CURVE SMOOTH",
"85.6666 106.333 OFFCURVE",
"106.333 77.3333 OFFCURVE",
"133 54 CURVE SMOOTH",
"159.667 30.6667 OFFCURVE",
"191.333 13.1667 OFFCURVE",
"228 1.5 CURVE SMOOTH",
"264.667 -10 OFFCURVE",
"304.667 -16 OFFCURVE",
"348 -16 CURVE SMOOTH",
"384.667 -16 OFFCURVE",
"418.167 -13 OFFCURVE",
"448.5 -7 CURVE SMOOTH",
"478.833 -1 OFFCURVE",
"507.333 8 OFFCURVE",
"534 20 CURVE SMOOTH",
"560.667 32 OFFCURVE",
"586.333 46.8333 OFFCURVE",
"611 64.5 CURVE SMOOTH",
"635.667 82.1667 OFFCURVE",
"661 102.667 OFFCURVE",
"687 126 CURVE",
"709 53 LINE",
"716.333 31.6667 OFFCURVE",
"726.333 17.5 OFFCURVE",
"739 10.5 CURVE SMOOTH",
"751.667 3.5 OFFCURVE",
"769.667 0 OFFCURVE",
"793 0 CURVE SMOOTH"
);
},
{
closed = 1;
nodes = (
"382.667 154 OFFCURVE",
"349.167 163.333 OFFCURVE",
"323.5 182 CURVE SMOOTH",
"297.833 200.667 OFFCURVE",
"285 231.667 OFFCURVE",
"285 275 CURVE SMOOTH",
"285 297 OFFCURVE",
"291.333 317.333 OFFCURVE",
"304 336 CURVE SMOOTH",
"316.667 354.667 OFFCURVE",
"337.667 371 OFFCURVE",
"367 385 CURVE SMOOTH",
"396.333 399 OFFCURVE",
"435.167 410.5 OFFCURVE",
"483.5 419.5 CURVE SMOOTH",
"531.833 428.5 OFFCURVE",
"592 434.667 OFFCURVE",
"664 438 CURVE",
"664 265 LINE",
"628.667 227.667 OFFCURVE",
"592.5 199.833 OFFCURVE",
"555.5 181.5 CURVE SMOOTH",
"518.5 163.167 OFFCURVE",
"474.667 154 OFFCURVE",
"424 154 CURVE SMOOTH"
);
},
{
closed = 1;
nodes = (
"846 1168 LINE",
"617 1446 LINE",
"385 1446 LINE",
"156 1168 LINE",
"327 1168 LINE SMOOTH",
"337 1168 OFFCURVE",
"347 1170 OFFCURVE",
"357 1174 CURVE SMOOTH",
"367 1178 OFFCURVE",
"376 1184.33 OFFCURVE",
"384 1193 CURVE SMOOTH",
"484 1297 LINE SMOOTH",
"490.667 1303.67 OFFCURVE",
"497.667 1311.67 OFFCURVE",
"505 1321 CURVE",
"511.667 1311.67 OFFCURVE",
"518.667 1303.67 OFFCURVE",
"526 1297 CURVE",
"624 1193 LINE SMOOTH",
"633.333 1183.67 OFFCURVE",
"642.833 1177.17 OFFCURVE",
"652.5 1173.5 CURVE SMOOTH",
"662.167 1169.83 OFFCURVE",
"671.667 1168 OFFCURVE",
"681 1168 CURVE SMOOTH"
);
}
);
width = 1015;
}
);
leftKerningGroup = a;
rightKerningGroup = a;
unicode = 00E2;
},
{
glyphname = adieresis;
lastChange = "2014-08-19 18:28:41 -0500";
layers = (
{
layerId = "C25503A3-518C-4CE5-B03D-46F600126290";
name = Bold;
paths = (
{
closed = 1;
nodes = (
"437 1311.33 OFFCURVE",
"433.333 1329.5 OFFCURVE",
"426 1346.5 CURVE SMOOTH",
"418.667 1363.5 OFFCURVE",
"408.5 1378.33 OFFCURVE",
"395.5 1391 CURVE SMOOTH",
"382.5 1403.67 OFFCURVE",
"367.5 1413.67 OFFCURVE",
"350.5 1421 CURVE SMOOTH",
"333.5 1428.33 OFFCURVE",
"315.333 1432 OFFCURVE",
"296 1432 CURVE SMOOTH",
"278 1432 OFFCURVE",
"260.833 1428.33 OFFCURVE",
"244.5 1421 CURVE SMOOTH",
"228.167 1413.67 OFFCURVE",
"213.833 1403.67 OFFCURVE",
"201.5 1391 CURVE SMOOTH",
"189.167 1378.33 OFFCURVE",
"179.333 1363.5 OFFCURVE",
"172 1346.5 CURVE SMOOTH",
"164.667 1329.5 OFFCURVE",
"161 1311.33 OFFCURVE",
"161 1292 CURVE SMOOTH",
"161 1273.33 OFFCURVE",
"164.667 1255.83 OFFCURVE",
"172 1239.5 CURVE SMOOTH",
"179.333 1223.17 OFFCURVE",
"189.167 1209 OFFCURVE",
"201.5 1197 CURVE SMOOTH",
"213.833 1185 OFFCURVE",
"228.167 1175.5 OFFCURVE",
"244.5 1168.5 CURVE SMOOTH",
"260.833 1161.5 OFFCURVE",
"278 1158 OFFCURVE",
"296 1158 CURVE SMOOTH",
"315.333 1158 OFFCURVE",
"333.5 1161.5 OFFCURVE",
"350.5 1168.5 CURVE SMOOTH",
"367.5 1175.5 OFFCURVE",
"382.5 1185 OFFCURVE",
"395.5 1197 CURVE SMOOTH",
"408.5 1209 OFFCURVE",
"418.667 1223.17 OFFCURVE",
"426 1239.5 CURVE SMOOTH",
"433.333 1255.83 OFFCURVE",
"437 1273.33 OFFCURVE",
"437 1292 CURVE SMOOTH"
);
},
{
closed = 1;
nodes = (
"841 1311.33 OFFCURVE",
"837.333 1329.5 OFFCURVE",
"830 1346.5 CURVE SMOOTH",
"822.667 1363.5 OFFCURVE",
"812.833 1378.33 OFFCURVE",
"800.5 1391 CURVE SMOOTH",
"788.167 1403.67 OFFCURVE",
"773.5 1413.67 OFFCURVE",
"756.5 1421 CURVE SMOOTH",
"739.5 1428.33 OFFCURVE",
"721.333 1432 OFFCURVE",
"702 1432 CURVE SMOOTH",
"683.333 1432 OFFCURVE",
"665.667 1428.33 OFFCURVE",
"649 1421 CURVE SMOOTH",
"632.333 1413.67 OFFCURVE",
"617.833 1403.67 OFFCURVE",
"605.5 1391 CURVE SMOOTH",
"593.167 1378.33 OFFCURVE",
"583.333 1363.5 OFFCURVE",
"576 1346.5 CURVE SMOOTH",
"568.667 1329.5 OFFCURVE",
"565 1311.33 OFFCURVE",
"565 1292 CURVE SMOOTH",
"565 1273.33 OFFCURVE",
"568.667 1255.83 OFFCURVE",
"576 1239.5 CURVE SMOOTH",
"583.333 1223.17 OFFCURVE",
"593.167 1209 OFFCURVE",
"605.5 1197 CURVE SMOOTH",
"617.833 1185 OFFCURVE",
"632.333 1175.5 OFFCURVE",
"649 1168.5 CURVE SMOOTH",
"665.667 1161.5 OFFCURVE",
"683.333 1158 OFFCURVE",
"702 1158 CURVE SMOOTH",
"721.333 1158 OFFCURVE",
"739.5 1161.5 OFFCURVE",
"756.5 1168.5 CURVE SMOOTH",
"773.5 1175.5 OFFCURVE",
"788.167 1185 OFFCURVE",
"800.5 1197 CURVE SMOOTH",
"812.833 1209 OFFCURVE",
"822.667 1223.17 OFFCURVE",
"830 1239.5 CURVE SMOOTH",
"837.333 1255.83 OFFCURVE",
"841 1273.33 OFFCURVE",
"841 1292 CURVE SMOOTH"
);
},
{
closed = 1;
nodes = (
"905 0 LINE",
"905 648 LINE SMOOTH",
"905 706 OFFCURVE",
"896.5 759.333 OFFCURVE",
"879.5 808 CURVE SMOOTH",
"862.5 856.667 OFFCURVE",
"837.667 898.5 OFFCURVE",
"805 933.5 CURVE SMOOTH",
"772.333 968.5 OFFCURVE",
"732.333 995.833 OFFCURVE",
"685 1015.5 CURVE SMOOTH",
"637.667 1035.17 OFFCURVE",
"584 1045 OFFCURVE",
"524 1045 CURVE SMOOTH",
"358 1045 OFFCURVE",
"216 991 OFFCURVE",
"98 883 CURVE",
"142 804 LINE",
"149.333 792 OFFCURVE",
"159 781.5 OFFCURVE",
"171 772.5 CURVE SMOOTH",
"183 763.5 OFFCURVE",
"197.667 759 OFFCURVE",
"215 759 CURVE SMOOTH",
"235 759 OFFCURVE",
"253.167 763.667 OFFCURVE",
"269.5 773 CURVE SMOOTH",
"285.833 782.333 OFFCURVE",
"304 792.833 OFFCURVE",
"324 804.5 CURVE SMOOTH",
"344 816.167 OFFCURVE",
"367.167 826.667 OFFCURVE",
"393.5 836 CURVE SMOOTH",
"419.833 845.333 OFFCURVE",
"453 850 OFFCURVE",
"493 850 CURVE SMOOTH",
"548.333 850 OFFCURVE",
"590.667 833.5 OFFCURVE",
"620 800.5 CURVE SMOOTH",
"649.333 767.5 OFFCURVE",
"664 716.667 OFFCURVE",
"664 648 CURVE SMOOTH",
"664 630 LINE",
"547 627 OFFCURVE",
"449 616 OFFCURVE",
"370 596 CURVE SMOOTH",
"291 576 OFFCURVE",
"228 551 OFFCURVE",
"181 521 CURVE SMOOTH",
"134 490 OFFCURVE",
"100 456 OFFCURVE",
"79 419 CURVE SMOOTH",
"59 381 OFFCURVE",
"49 343 OFFCURVE",
"49 262 CURVE SMOOTH",
"49 216 OFFCURVE",
"56.333 175.667 OFFCURVE",
"71 141 CURVE SMOOTH",
"85.667 106.333 OFFCURVE",
"106.333 77.333 OFFCURVE",
"133 54 CURVE SMOOTH",
"159.667 30.667 OFFCURVE",
"191.333 13.167 OFFCURVE",
"228 1.5 CURVE SMOOTH",
"264.667 -10 OFFCURVE",
"304.667 -16 OFFCURVE",
"348 -16 CURVE SMOOTH",
"384.667 -16 OFFCURVE",
"418.167 -13 OFFCURVE",
"448.5 -7 CURVE SMOOTH",
"478.833 -1 OFFCURVE",
"507.333 8 OFFCURVE",
"534 20 CURVE SMOOTH",
"560.667 32 OFFCURVE",
"586.333 46.833 OFFCURVE",
"611 64.5 CURVE SMOOTH",
"635.667 82.167 OFFCURVE",
"661 102.667 OFFCURVE",
"687 126 CURVE",
"709 53 LINE",
"716.333 31.667 OFFCURVE",
"726.333 17.5 OFFCURVE",
"739 10.5 CURVE SMOOTH",
"751.667 3.5 OFFCURVE",
"769.667 0 OFFCURVE",
"793 0 CURVE SMOOTH"
);
},
{
closed = 1;
nodes = (
"382.667 154 OFFCURVE",
"349.167 163.333 OFFCURVE",
"323.5 182 CURVE SMOOTH",
"297.833 200.667 OFFCURVE",
"285 274 OFFCURVE",
"285 317 CURVE SMOOTH",
"285 339 OFFCURVE",
"291 359 OFFCURVE",
"304 378 CURVE SMOOTH",
"317 397 OFFCURVE",
"338 413 OFFCURVE",
"367 427 CURVE SMOOTH",
"396 441 OFFCURVE",
"435 453 OFFCURVE",
"484 462 CURVE SMOOTH",
"532 471 OFFCURVE",
"592 477 OFFCURVE",
"664 480 CURVE",
"664 265 LINE",
"628.667 227.667 OFFCURVE",
"592.5 199.833 OFFCURVE",
"555.5 181.5 CURVE SMOOTH",
"518.5 163.167 OFFCURVE",
"474.667 154 OFFCURVE",
"424 154 CURVE SMOOTH"
);
}
);
width = 1015;
}
);
leftKerningGroup = a;
rightKerningGroup = a;
unicode = 00E4;
},
{
glyphname = agrave;
lastChange = "2014-08-19 18:28:51 -0500";
layers = (
{
layerId = "C25503A3-518C-4CE5-B03D-46F600126290";
name = Bold;
paths = (
{
closed = 1;
nodes = (
"181 1462 LINE",
"428 1201 LINE SMOOTH",
"440 1187.67 OFFCURVE",
"451.833 1178.5 OFFCURVE",
"463.5 1173.5 CURVE SMOOTH",
"475.167 1168.5 OFFCURVE",
"490.333 1166 OFFCURVE",
"509 1166 CURVE SMOOTH",
"650 1166 LINE",
"507 1409 LINE",
"497.667 1426.33 OFFCURVE",
"486.333 1439.5 OFFCURVE",
"473 1448.5 CURVE SMOOTH",
"459.667 1457.5 OFFCURVE",
"439.333 1462 OFFCURVE",
"412 1462 CURVE SMOOTH"
);
},
{
closed = 1;
nodes = (
"905 0 LINE",
"905 648 LINE SMOOTH",
"905 706 OFFCURVE",
"896.5 759.333 OFFCURVE",
"879.5 808 CURVE SMOOTH",
"862.5 856.667 OFFCURVE",
"837.667 898.5 OFFCURVE",
"805 933.5 CURVE SMOOTH",
"772.333 968.5 OFFCURVE",
"732.333 995.833 OFFCURVE",
"685 1015.5 CURVE SMOOTH",
"637.667 1035.17 OFFCURVE",
"584 1045 OFFCURVE",
"524 1045 CURVE SMOOTH",
"358 1045 OFFCURVE",
"216 991 OFFCURVE",
"98 883 CURVE",
"142 804 LINE",
"149.333 792 OFFCURVE",
"159 781.5 OFFCURVE",
"171 772.5 CURVE SMOOTH",
"183 763.5 OFFCURVE",
"197.667 759 OFFCURVE",
"215 759 CURVE SMOOTH",
"235 759 OFFCURVE",
"253.167 763.667 OFFCURVE",
"269.5 773 CURVE SMOOTH",
"285.833 782.333 OFFCURVE",
"304 792.833 OFFCURVE",
"324 804.5 CURVE SMOOTH",
"344 816.167 OFFCURVE",
"367.167 826.667 OFFCURVE",
"393.5 836 CURVE SMOOTH",
"419.833 845.333 OFFCURVE",
"453 850 OFFCURVE",
"493 850 CURVE SMOOTH",
"548.333 850 OFFCURVE",
"590.667 833.5 OFFCURVE",
"620 800.5 CURVE SMOOTH",
"649.333 767.5 OFFCURVE",
"664 716.667 OFFCURVE",
"664 648 CURVE SMOOTH",
"664 630 LINE",
"547 627 OFFCURVE",
"449 616 OFFCURVE",
"370 596 CURVE SMOOTH",
"291 576 OFFCURVE",
"228 551 OFFCURVE",
"181 521 CURVE SMOOTH",
"134 490 OFFCURVE",
"100 456 OFFCURVE",
"79 419 CURVE SMOOTH",
"59 381 OFFCURVE",
"49 343 OFFCURVE",
"49 262 CURVE SMOOTH",
"49 216 OFFCURVE",
"56.333 175.667 OFFCURVE",
"71 141 CURVE SMOOTH",
"85.667 106.333 OFFCURVE",
"106.333 77.333 OFFCURVE",
"133 54 CURVE SMOOTH",
"159.667 30.667 OFFCURVE",
"191.333 13.167 OFFCURVE",
"228 1.5 CURVE SMOOTH",
"264.667 -10 OFFCURVE",
"304.667 -16 OFFCURVE",
"348 -16 CURVE SMOOTH",
"384.667 -16 OFFCURVE",
"418.167 -13 OFFCURVE",
"448.5 -7 CURVE SMOOTH",
"478.833 -1 OFFCURVE",
"507.333 8 OFFCURVE",
"534 20 CURVE SMOOTH",
"560.667 32 OFFCURVE",
"586.333 46.833 OFFCURVE",
"611 64.5 CURVE SMOOTH",
"635.667 82.167 OFFCURVE",
"661 102.667 OFFCURVE",
"687 126 CURVE",
"709 53 LINE",
"716.333 31.667 OFFCURVE",
"726.333 17.5 OFFCURVE",
"739 10.5 CURVE SMOOTH",
"751.667 3.5 OFFCURVE",
"769.667 0 OFFCURVE",
"793 0 CURVE SMOOTH"
);
},
{
closed = 1;
nodes = (
"382.667 154 OFFCURVE",
"349.167 163.333 OFFCURVE",
"323.5 182 CURVE SMOOTH",
"297.833 200.667 OFFCURVE",
"285 274 OFFCURVE",
"285 317 CURVE SMOOTH",
"285 339 OFFCURVE",
"291 359 OFFCURVE",
"304 378 CURVE SMOOTH",
"317 397 OFFCURVE",
"338 413 OFFCURVE",
"367 427 CURVE SMOOTH",
"396 441 OFFCURVE",
"435 453 OFFCURVE",
"484 462 CURVE SMOOTH",
"532 471 OFFCURVE",
"592 477 OFFCURVE",
"664 480 CURVE",
"664 265 LINE",
"628.667 227.667 OFFCURVE",
"592.5 199.833 OFFCURVE",
"555.5 181.5 CURVE SMOOTH",
"518.5 163.167 OFFCURVE",
"474.667 154 OFFCURVE",
"424 154 CURVE SMOOTH"
);
}
);
width = 1015;
}
);
leftKerningGroup = a;
rightKerningGroup = a;
unicode = 00E0;
},
{
glyphname = aring;
lastChange = "2014-08-19 18:29:01 -0500";
layers = (
{
layerId = "C25503A3-518C-4CE5-B03D-46F600126290";
name = Bold;
paths = (
{
closed = 1;
nodes = (
"279 1295 OFFCURVE",
"285 1267.67 OFFCURVE",
"297 1243 CURVE SMOOTH",
"309 1218.33 OFFCURVE",
"325.167 1197.17 OFFCURVE",
"345.5 1179.5 CURVE SMOOTH",
"365.833 1161.83 OFFCURVE",
"389.333 1148.17 OFFCURVE",
"416 1138.5 CURVE SMOOTH",
"442.667 1128.83 OFFCURVE",
"470.667 1124 OFFCURVE",
"500 1124 CURVE SMOOTH",
"530 1124 OFFCURVE",
"558.667 1128.83 OFFCURVE",
"586 1138.5 CURVE SMOOTH",
"613.333 1148.17 OFFCURVE",
"637.333 1161.83 OFFCURVE",
"658 1179.5 CURVE SMOOTH",
"678.667 1197.17 OFFCURVE",
"695.167 1218.33 OFFCURVE",
"707.5 1243 CURVE SMOOTH",
"719.833 1267.67 OFFCURVE",
"726 1295 OFFCURVE",
"726 1325 CURVE SMOOTH",
"726 1355.67 OFFCURVE",
"719.833 1383.67 OFFCURVE",
"707.5 1409 CURVE SMOOTH",
"695.167 1434.33 OFFCURVE",
"678.667 1456 OFFCURVE",
"658 1474 CURVE SMOOTH",
"637.333 1492 OFFCURVE",
"613.333 1506 OFFCURVE",
"586 1516 CURVE SMOOTH",
"558.667 1526 OFFCURVE",
"530 1531 OFFCURVE",
"500 1531 CURVE SMOOTH",
"470.667 1531 OFFCURVE",
"442.667 1526 OFFCURVE",
"416 1516 CURVE SMOOTH",
"389.333 1506 OFFCURVE",
"365.833 1492 OFFCURVE",
"345.5 1474 CURVE SMOOTH",
"325.167 1456 OFFCURVE",
"309 1434.33 OFFCURVE",
"297 1409 CURVE SMOOTH",
"285 1383.67 OFFCURVE",
"279 1355.67 OFFCURVE",
"279 1325 CURVE SMOOTH"
);
},
{
closed = 1;
nodes = (
"413 1353 OFFCURVE",
"420.833 1375.17 OFFCURVE",
"436.5 1391.5 CURVE SMOOTH",
"452.167 1407.83 OFFCURVE",
"474.667 1416 OFFCURVE",
"504 1416 CURVE SMOOTH",
"530.667 1416 OFFCURVE",
"552 1407.83 OFFCURVE",
"568 1391.5 CURVE SMOOTH",
"584 1375.17 OFFCURVE",
"592 1353 OFFCURVE",
"592 1325 CURVE SMOOTH",
"592 1299.67 OFFCURVE",
"584 1278.5 OFFCURVE",
"568 1261.5 CURVE SMOOTH",
"552 1244.5 OFFCURVE",
"530.667 1236 OFFCURVE",
"504 1236 CURVE SMOOTH",
"474.667 1236 OFFCURVE",
"452.167 1244.5 OFFCURVE",
"436.5 1261.5 CURVE SMOOTH",
"420.833 1278.5 OFFCURVE",
"413 1299.67 OFFCURVE",
"413 1325 CURVE SMOOTH"
);
},
{
closed = 1;
nodes = (
"905 0 LINE",
"905 648 LINE SMOOTH",
"905 706 OFFCURVE",
"896.5 759.333 OFFCURVE",
"879.5 808 CURVE SMOOTH",
"862.5 856.667 OFFCURVE",
"837.667 898.5 OFFCURVE",
"805 933.5 CURVE SMOOTH",
"772.333 968.5 OFFCURVE",
"732.333 995.833 OFFCURVE",
"685 1015.5 CURVE SMOOTH",
"637.667 1035.17 OFFCURVE",
"584 1045 OFFCURVE",
"524 1045 CURVE SMOOTH",
"358 1045 OFFCURVE",
"216 991 OFFCURVE",
"98 883 CURVE",
"142 804 LINE",
"149.333 792 OFFCURVE",
"159 781.5 OFFCURVE",
"171 772.5 CURVE SMOOTH",
"183 763.5 OFFCURVE",
"197.667 759 OFFCURVE",
"215 759 CURVE SMOOTH",
"235 759 OFFCURVE",
"253.167 763.667 OFFCURVE",
"269.5 773 CURVE SMOOTH",
"285.833 782.333 OFFCURVE",
"304 792.833 OFFCURVE",
"324 804.5 CURVE SMOOTH",
"344 816.167 OFFCURVE",
"367.167 826.667 OFFCURVE",
"393.5 836 CURVE SMOOTH",
"419.833 845.333 OFFCURVE",
"453 850 OFFCURVE",
"493 850 CURVE SMOOTH",
"548.333 850 OFFCURVE",
"590.667 833.5 OFFCURVE",
"620 800.5 CURVE SMOOTH",
"649.333 767.5 OFFCURVE",
"664 716.667 OFFCURVE",
"664 648 CURVE SMOOTH",
"664 630 LINE",
"547 627 OFFCURVE",
"449 616 OFFCURVE",
"370 596 CURVE SMOOTH",
"291 576 OFFCURVE",
"228 551 OFFCURVE",
"181 521 CURVE SMOOTH",
"134 490 OFFCURVE",
"100 456 OFFCURVE",
"79 419 CURVE SMOOTH",
"59 381 OFFCURVE",
"49 343 OFFCURVE",
"49 262 CURVE SMOOTH",
"49 216 OFFCURVE",
"56.333 175.667 OFFCURVE",
"71 141 CURVE SMOOTH",
"85.667 106.333 OFFCURVE",
"106.333 77.333 OFFCURVE",
"133 54 CURVE SMOOTH",
"159.667 30.667 OFFCURVE",
"191.333 13.167 OFFCURVE",
"228 1.5 CURVE SMOOTH",
"264.667 -10 OFFCURVE",
"304.667 -16 OFFCURVE",
"348 -16 CURVE SMOOTH",
"384.667 -16 OFFCURVE",
"418.167 -13 OFFCURVE",
"448.5 -7 CURVE SMOOTH",
"478.833 -1 OFFCURVE",
"507.333 8 OFFCURVE",
"534 20 CURVE SMOOTH",
"560.667 32 OFFCURVE",
"586.333 46.833 OFFCURVE",
"611 64.5 CURVE SMOOTH",
"635.667 82.167 OFFCURVE",
"661 102.667 OFFCURVE",
"687 126 CURVE",
"709 53 LINE",
"716.333 31.667 OFFCURVE",
"726.333 17.5 OFFCURVE",
"739 10.5 CURVE SMOOTH",
"751.667 3.5 OFFCURVE",
"769.667 0 OFFCURVE",
"793 0 CURVE SMOOTH"
);
},
{
closed = 1;
nodes = (
"382.667 154 OFFCURVE",
"349.167 163.333 OFFCURVE",
"323.5 182 CURVE SMOOTH",
"297.833 200.667 OFFCURVE",
"285 274 OFFCURVE",
"285 317 CURVE SMOOTH",
"285 339 OFFCURVE",
"291 359 OFFCURVE",
"304 378 CURVE SMOOTH",
"317 397 OFFCURVE",
"338 413 OFFCURVE",
"367 427 CURVE SMOOTH",
"396 441 OFFCURVE",
"435 453 OFFCURVE",
"484 462 CURVE SMOOTH",
"532 471 OFFCURVE",
"592 477 OFFCURVE",
"664 480 CURVE",
"664 265 LINE",
"628.667 227.667 OFFCURVE",
"592.5 199.833 OFFCURVE",
"555.5 181.5 CURVE SMOOTH",
"518.5 163.167 OFFCURVE",
"474.667 154 OFFCURVE",
"424 154 CURVE SMOOTH"
);
}
);
width = 1015;
}
);
leftKerningGroup = a;
rightKerningGroup = a;
unicode = 00E5;
},
{
glyphname = atilde;
lastChange = "2014-08-19 18:29:08 -0500";
layers = (
{
layerId = "C25503A3-518C-4CE5-B03D-46F600126290";
name = Bold;
paths = (
{
closed = 1;
nodes = (
"594.667 1359 OFFCURVE",
"580.333 1363.33 OFFCURVE",
"565 1372 CURVE SMOOTH",
"549.667 1380.67 OFFCURVE",
"533 1390 OFFCURVE",
"515 1400 CURVE SMOOTH",
"497 1410 OFFCURVE",
"477.5 1419.33 OFFCURVE",
"456.5 1428 CURVE SMOOTH",
"435.5 1436.67 OFFCURVE",
"413 1441 OFFCURVE",
"389 1441 CURVE SMOOTH",
"359.667 1441 OFFCURVE",
"332.5 1435 OFFCURVE",
"307.5 1423 CURVE SMOOTH",
"282.5 1411 OFFCURVE",
"260.667 1394.17 OFFCURVE",
"242 1372.5 CURVE SMOOTH",
"223.333 1350.83 OFFCURVE",
"208.833 1324.83 OFFCURVE",
"198.5 1294.5 CURVE SMOOTH",
"188.167 1264.17 OFFCURVE",
"183 1230.33 OFFCURVE",
"183 1193 CURVE",
"336 1193 LINE",
"336 1221 OFFCURVE",
"341.5 1240.83 OFFCURVE",
"352.5 1252.5 CURVE SMOOTH",
"363.5 1264.17 OFFCURVE",
"378.667 1270 OFFCURVE",
"398 1270 CURVE SMOOTH",
"411.333 1270 OFFCURVE",
"425.833 1265.67 OFFCURVE",
"441.5 1257 CURVE SMOOTH",
"457.167 1248.33 OFFCURVE",
"474 1239 OFFCURVE",
"492 1229 CURVE SMOOTH",
"510 1219 OFFCURVE",
"529.333 1209.67 OFFCURVE",
"550 1201 CURVE SMOOTH",
"570.667 1192.33 OFFCURVE",
"593 1188 OFFCURVE",
"617 1188 CURVE SMOOTH",
"647 1188 OFFCURVE",
"674.5 1193.83 OFFCURVE",
"699.5 1205.5 CURVE SMOOTH",
"724.5 1217.17 OFFCURVE",
"746 1233.83 OFFCURVE",
"764 1255.5 CURVE SMOOTH",
"782 1277.17 OFFCURVE",
"796.167 1303.17 OFFCURVE",
"806.5 1333.5 CURVE SMOOTH",
"816.833 1363.83 OFFCURVE",
"822 1397.67 OFFCURVE",
"822 1435 CURVE",
"672 1435 LINE",
"672 1406.33 OFFCURVE",
"666.333 1386.5 OFFCURVE",
"655 1375.5 CURVE SMOOTH",
"643.667 1364.5 OFFCURVE",
"628 1359 OFFCURVE",
"608 1359 CURVE SMOOTH"
);
},
{
closed = 1;
nodes = (
"905 0 LINE",
"905 648 LINE SMOOTH",
"905 706 OFFCURVE",
"896.5 759.333 OFFCURVE",
"879.5 808 CURVE SMOOTH",
"862.5 856.667 OFFCURVE",
"837.667 898.5 OFFCURVE",
"805 933.5 CURVE SMOOTH",
"772.333 968.5 OFFCURVE",
"732.333 995.833 OFFCURVE",
"685 1015.5 CURVE SMOOTH",
"637.667 1035.17 OFFCURVE",
"584 1045 OFFCURVE",
"524 1045 CURVE SMOOTH",
"358 1045 OFFCURVE",
"216 991 OFFCURVE",
"98 883 CURVE",
"142 804 LINE",
"149.333 792 OFFCURVE",
"159 781.5 OFFCURVE",
"171 772.5 CURVE SMOOTH",
"183 763.5 OFFCURVE",
"197.667 759 OFFCURVE",
"215 759 CURVE SMOOTH",
"235 759 OFFCURVE",
"253.167 763.667 OFFCURVE",
"269.5 773 CURVE SMOOTH",
"285.833 782.333 OFFCURVE",
"304 792.833 OFFCURVE",
"324 804.5 CURVE SMOOTH",
"344 816.167 OFFCURVE",
"367.167 826.667 OFFCURVE",
"393.5 836 CURVE SMOOTH",
"419.833 845.333 OFFCURVE",
"453 850 OFFCURVE",
"493 850 CURVE SMOOTH",
"548.333 850 OFFCURVE",
"590.667 833.5 OFFCURVE",
"620 800.5 CURVE SMOOTH",
"649.333 767.5 OFFCURVE",
"664 716.667 OFFCURVE",
"664 648 CURVE SMOOTH",
"664 630 LINE",
"547 627 OFFCURVE",
"449 616 OFFCURVE",
"370 596 CURVE SMOOTH",
"291 576 OFFCURVE",
"228 551 OFFCURVE",
"181 521 CURVE SMOOTH",
"134 490 OFFCURVE",
"100 456 OFFCURVE",
"79 419 CURVE SMOOTH",
"59 381 OFFCURVE",
"49 343 OFFCURVE",
"49 262 CURVE SMOOTH",
"49 216 OFFCURVE",
"56.333 175.667 OFFCURVE",
"71 141 CURVE SMOOTH",
"85.667 106.333 OFFCURVE",
"106.333 77.333 OFFCURVE",
"133 54 CURVE SMOOTH",
"159.667 30.667 OFFCURVE",
"191.333 13.167 OFFCURVE",
"228 1.5 CURVE SMOOTH",
"264.667 -10 OFFCURVE",
"304.667 -16 OFFCURVE",
"348 -16 CURVE SMOOTH",
"384.667 -16 OFFCURVE",
"418.167 -13 OFFCURVE",
"448.5 -7 CURVE SMOOTH",
"478.833 -1 OFFCURVE",
"507.333 8 OFFCURVE",
"534 20 CURVE SMOOTH",
"560.667 32 OFFCURVE",
"586.333 46.833 OFFCURVE",
"611 64.5 CURVE SMOOTH",
"635.667 82.167 OFFCURVE",
"661 102.667 OFFCURVE",
"687 126 CURVE",
"709 53 LINE",
"716.333 31.667 OFFCURVE",
"726.333 17.5 OFFCURVE",
"739 10.5 CURVE SMOOTH",
"751.667 3.5 OFFCURVE",
"769.667 0 OFFCURVE",
"793 0 CURVE SMOOTH"
);
},
{
closed = 1;
nodes = (
"382.667 154 OFFCURVE",
"349.167 163.333 OFFCURVE",
"323.5 182 CURVE SMOOTH",
"297.833 200.667 OFFCURVE",
"285 274 OFFCURVE",
"285 317 CURVE SMOOTH",
"285 339 OFFCURVE",
"291 359 OFFCURVE",
"304 378 CURVE SMOOTH",
"317 397 OFFCURVE",
"338 413 OFFCURVE",
"367 427 CURVE SMOOTH",
"396 441 OFFCURVE",
"435 453 OFFCURVE",
"484 462 CURVE SMOOTH",
"532 471 OFFCURVE",
"592 477 OFFCURVE",
"664 480 CURVE",
"664 265 LINE",
"628.667 227.667 OFFCURVE",
"592.5 199.833 OFFCURVE",
"555.5 181.5 CURVE SMOOTH",
"518.5 163.167 OFFCURVE",
"474.667 154 OFFCURVE",
"424 154 CURVE SMOOTH"
);
}
);
width = 1015;
}
);
leftKerningGroup = a;
rightKerningGroup = a;
unicode = 00E3;
},
{
glyphname = ae;
layers = (
{
layerId = "C25503A3-518C-4CE5-B03D-46F600126290";
name = Bold;
paths = (
{
closed = 1;
nodes = (
"1067.33 1042 OFFCURVE",
"1000.67 1027.5 OFFCURVE",
"944 998.5 CURVE SMOOTH",
"887.333 969.5 OFFCURVE",
"840 930 OFFCURVE",
"802 880 CURVE",
"776 931.333 OFFCURVE",
"738.333 971.667 OFFCURVE",
"689 1001 CURVE SMOOTH",
"639.667 1030.33 OFFCURVE",
"576.667 1045 OFFCURVE",
"500 1045 CURVE SMOOTH",
"421.333 1045 OFFCURVE",
"349.833 1031.5 OFFCURVE",
"285.5 1004.5 CURVE SMOOTH",
"221.167 977.5 OFFCURVE",
"159.333 937 OFFCURVE",
"100 883 CURVE",
"144 804 LINE",
"151.333 792 OFFCURVE",
"161 781.5 OFFCURVE",
"173 772.5 CURVE SMOOTH",
"185 763.5 OFFCURVE",
"199.667 759 OFFCURVE",
"217 759 CURVE SMOOTH",
"237 759 OFFCURVE",
"255.167 764.167 OFFCURVE",
"271.5 774.5 CURVE SMOOTH",
"287.833 784.833 OFFCURVE",
"306 796 OFFCURVE",
"326 808 CURVE SMOOTH",
"346 820 OFFCURVE",
"369.167 831.167 OFFCURVE",
"395.5 841.5 CURVE SMOOTH",
"421.833 851.833 OFFCURVE",
"455 857 OFFCURVE",
"495 857 CURVE SMOOTH",
"550.333 857 OFFCURVE",
"592.667 839.333 OFFCURVE",
"622 804 CURVE SMOOTH",
"651.333 768.667 OFFCURVE",
"666 716.667 OFFCURVE",
"666 648 CURVE SMOOTH",
"666 613 LINE",
"588 611 OFFCURVE",
"518.667 604.833 OFFCURVE",
"458 594.5 CURVE SMOOTH",
"397.333 584.167 OFFCURVE",
"344.167 570.833 OFFCURVE",
"298.5 554.5 CURVE SMOOTH",
"252.833 538.167 OFFCURVE",
"214.333 519.167 OFFCURVE",
"183 497.5 CURVE SMOOTH",
"151.667 475.833 OFFCURVE",
"126.167 452.833 OFFCURVE",
"106.5 428.5 CURVE SMOOTH",
"86.8334 404.167 OFFCURVE",
"72.6667 378.833 OFFCURVE",
"64 352.5 CURVE SMOOTH",
"55.3334 326.167 OFFCURVE",
"51 300.333 OFFCURVE",
"51 275 CURVE SMOOTH",
"51 227.667 OFFCURVE",
"58.5001 185.833 OFFCURVE",
"73.5001 149.5 CURVE SMOOTH",
"88.5001 113.167 OFFCURVE",
"110 82.8333 OFFCURVE",
"138 58.4999 CURVE SMOOTH",
"166 34.1666 OFFCURVE",
"200 15.6666 OFFCURVE",
"240 2.99994 CURVE SMOOTH",
"280 -10 OFFCURVE",
"324.667 -16 OFFCURVE",
"374 -16 CURVE SMOOTH",
"414.667 -16 OFFCURVE",
"455 -12 OFFCURVE",
"495 -5 CURVE SMOOTH",
"535 3.16661 OFFCURVE",
"572.667 15.1666 OFFCURVE",
"608 31.4999 CURVE SMOOTH",
"643.333 47.8333 OFFCURVE",
"675.833 68.8333 OFFCURVE",
"705.5 94.4999 CURVE SMOOTH",
"735.167 120.167 OFFCURVE",
"760 151 OFFCURVE",
"780 187 CURVE",
"820.667 117.667 OFFCURVE",
"872.5 66.6666 OFFCURVE",
"935.5 33.9999 CURVE SMOOTH",
"998.5 1.33327 OFFCURVE",
"1066.33 -15 OFFCURVE",
"1139 -15 CURVE SMOOTH",
"1173.67 -15 OFFCURVE",
"1209.33 -12 OFFCURVE",
"1246 -7 CURVE SMOOTH",
"1282.67 -2 OFFCURVE",
"1318.67 7.49994 OFFCURVE",
"1354 20.4999 CURVE SMOOTH",
"1389.33 33.4999 OFFCURVE",
"1423.5 50.8333 OFFCURVE",
"1456.5 72.4999 CURVE SMOOTH",
"1489.5 94.1666 OFFCURVE",
"1519.67 121 OFFCURVE",
"1547 153 CURVE",
"1480 237 LINE",
"1470.67 252.333 OFFCURVE",
"1454 260 OFFCURVE",
"1430 260 CURVE SMOOTH",
"1416 260 OFFCURVE",
"1402.83 255.667 OFFCURVE",
"1390.5 247 CURVE SMOOTH",
"1378.17 238.333 OFFCURVE",
"1362.67 228.667 OFFCURVE",
"1344 218 CURVE SMOOTH",
"1325.33 207.333 OFFCURVE",
"1301.67 197.667 OFFCURVE",
"1273 189 CURVE SMOOTH",
"1244.33 180.333 OFFCURVE",
"1207.33 176 OFFCURVE",
"1162 176 CURVE SMOOTH",
"1089.33 176 OFFCURVE",
"1029.83 199.167 OFFCURVE",
"983.5 245.5 CURVE SMOOTH",
"937.167 291.833 OFFCURVE",
"909.333 364 OFFCURVE",
"900 462 CURVE",
"1499 462 LINE SMOOTH",
"1510.33 462 OFFCURVE",
"1519.5 463.5 OFFCURVE",
"1526.5 466.5 CURVE SMOOTH",
"1533.5 469.5 OFFCURVE",
"1539 474.5 OFFCURVE",
"1543 481.5 CURVE SMOOTH",
"1547 488.5 OFFCURVE",
"1549.83 498.167 OFFCURVE",
"1551.5 510.5 CURVE SMOOTH",
"1553.17 522.833 OFFCURVE",
"1554 538.333 OFFCURVE",
"1554 557 CURVE SMOOTH",
"1554 631.667 OFFCURVE",
"1543.5 699 OFFCURVE",
"1522.5 759 CURVE SMOOTH",
"1501.5 819 OFFCURVE",
"1472.67 870 OFFCURVE",
"1436 912 CURVE SMOOTH",
"1399.33 954 OFFCURVE",
"1356 986.167 OFFCURVE",
"1306 1008.5 CURVE SMOOTH",
"1256 1030.83 OFFCURVE",
"1202 1042 OFFCURVE",
"1144 1042 CURVE SMOOTH"
);
},
{
closed = 1;
nodes = (
"666 416 LINE SMOOTH",
"666 370 OFFCURVE",
"660 330.333 OFFCURVE",
"648 297 CURVE SMOOTH",
"636 263.667 OFFCURVE",
"619.667 236.5 OFFCURVE",
"599 215.5 CURVE SMOOTH",
"578.333 194.5 OFFCURVE",
"553.833 179 OFFCURVE",
"525.5 169 CURVE SMOOTH",
"497.167 159 OFFCURVE",
"466.667 154 OFFCURVE",
"434 154 CURVE SMOOTH",
"388 154 OFFCURVE",
"352.167 164.667 OFFCURVE",
"326.5 186 CURVE SMOOTH",
"300.833 207.333 OFFCURVE",
"288 241 OFFCURVE",
"288 287 CURVE SMOOTH",
"288 309 OFFCURVE",
"294.167 330 OFFCURVE",
"306.5 350 CURVE SMOOTH",
"318.833 370 OFFCURVE",
"339.667 387.667 OFFCURVE",
"369 403 CURVE SMOOTH",
"398.333 418.333 OFFCURVE",
"437.167 431.167 OFFCURVE",
"485.5 441.5 CURVE SMOOTH",
"533.833 451.833 OFFCURVE",
"594 458.667 OFFCURVE",
"666 462 CURVE"
);
},
{
closed = 1;
nodes = (
"1168 865 OFFCURVE",
"1197.5 858 OFFCURVE",
"1222.5 844 CURVE SMOOTH",
"1247.5 830 OFFCURVE",
"1268.33 811.167 OFFCURVE",
"1285 787.5 CURVE SMOOTH",
"1301.67 763.833 OFFCURVE",
"1314 736.667 OFFCURVE",
"1322 706 CURVE SMOOTH",
"1330 675.333 OFFCURVE",
"1334 643.667 OFFCURVE",
"1334 611 CURVE",
"901 611 LINE",
"909.667 691.667 OFFCURVE",
"933.167 754.167 OFFCURVE",
"971.5 798.5 CURVE SMOOTH",
"1009.83 842.833 OFFCURVE",
"1064 865 OFFCURVE",
"1134 865 CURVE SMOOTH"
);
}
);
width = 1619;
}
);
leftKerningGroup = a;
rightKerningGroup = e;
unicode = 00E6;
},
{
glyphname = b;
layers = (
{
layerId = "C25503A3-518C-4CE5-B03D-46F600126290";
name = Bold;
paths = (
{
closed = 1;
nodes = (
"122 0 LINE",
"285 0 LINE SMOOTH",
"301.667 0 OFFCURVE",
"314.833 3.66667 OFFCURVE",
"324.5 11 CURVE SMOOTH",
"334.167 18.3333 OFFCURVE",
"341 30.6667 OFFCURVE",
"345 48 CURVE",
"356 117 LINE",
"372.667 97 OFFCURVE",
"390.167 78.8333 OFFCURVE",
"408.5 62.5 CURVE SMOOTH",
"426.833 46.1667 OFFCURVE",
"446.833 32.3333 OFFCURVE",
"468.5 21 CURVE SMOOTH",
"490.167 9.66667 OFFCURVE",
"514.167 0.833328 OFFCURVE",
"540.5 -6 CURVE SMOOTH",
"566.833 -12 OFFCURVE",
"596 -15 OFFCURVE",
"628 -15 CURVE SMOOTH",
"694 -15 OFFCURVE",
"754 -2 OFFCURVE",
"808 25 CURVE SMOOTH",
"862 51.6667 OFFCURVE",
"908.167 89.1667 OFFCURVE",
"946.5 137.5 CURVE SMOOTH",
"984.833 185.833 OFFCURVE",
"1014.33 244 OFFCURVE",
"1035 312 CURVE SMOOTH",
"1055.67 380 OFFCURVE",
"1066 455.667 OFFCURVE",
"1066 539 CURVE SMOOTH",
"1066 616.333 OFFCURVE",
"1057 686 OFFCURVE",
"1039 748 CURVE SMOOTH",
"1021 810 OFFCURVE",
"995.167 862.833 OFFCURVE",
"961.5 906.5 CURVE SMOOTH",
"927.833 950.167 OFFCURVE",
"887.167 983.667 OFFCURVE",
"839.5 1007 CURVE SMOOTH",
"791.833 1030.33 OFFCURVE",
"738.333 1042 OFFCURVE",
"679 1042 CURVE SMOOTH",
"614.333 1042 OFFCURVE",
"556.833 1029.17 OFFCURVE",
"506.5 1003.5 CURVE SMOOTH",
"456.167 977.833 OFFCURVE",
"410.333 943 OFFCURVE",
"369 899 CURVE",
"369 1486 LINE",
"122 1486 LINE"
);
},
{
closed = 1;
nodes = (
"664 850 OFFCURVE",
"717.667 824.833 OFFCURVE",
"755 774.5 CURVE SMOOTH",
"792.333 724.167 OFFCURVE",
"811 642.667 OFFCURVE",
"811 530 CURVE SMOOTH",
"811 467.333 OFFCURVE",
"805.333 413.5 OFFCURVE",
"794 368.5 CURVE SMOOTH",
"782.667 323.5 OFFCURVE",
"766.333 286.5 OFFCURVE",
"745 257.5 CURVE SMOOTH",
"723.667 228.5 OFFCURVE",
"697.833 207.167 OFFCURVE",
"667.5 193.5 CURVE SMOOTH",
"637.167 179.833 OFFCURVE",
"603 173 OFFCURVE",
"565 173 CURVE SMOOTH",
"528.333 173 OFFCURVE",
"493.5 179.833 OFFCURVE",
"460.5 193.5 CURVE SMOOTH",
"427.5 207.167 OFFCURVE",
"397 231.333 OFFCURVE",
"369 266 CURVE",
"369 726 LINE",
"401 765.333 OFFCURVE",
"434.667 795.833 OFFCURVE",
"470 817.5 CURVE SMOOTH",
"505.333 839.167 OFFCURVE",
"546.667 850 OFFCURVE",
"594 850 CURVE SMOOTH"
);
}
);
width = 1135;
}
);
leftKerningGroup = b;
rightKerningGroup = b;
unicode = 0062;
},
{
glyphname = c;
layers = (
{
layerId = "C25503A3-518C-4CE5-B03D-46F600126290";
name = Bold;
paths = (
{
closed = 1;
nodes = (
"922 899 LINE",
"876 945 OFFCURVE",
"824.167 980.333 OFFCURVE",
"766.5 1005 CURVE SMOOTH",
"708.833 1029.67 OFFCURVE",
"641.667 1042 OFFCURVE",
"565 1042 CURVE SMOOTH",
"484.333 1042 OFFCURVE",
"413 1028.67 OFFCURVE",
"351 1002 CURVE SMOOTH",
"289 975.333 OFFCURVE",
"237 938.5 OFFCURVE",
"195 891.5 CURVE SMOOTH",
"153 844.5 OFFCURVE",
"121.167 788.833 OFFCURVE",
"99.4999 724.5 CURVE SMOOTH",
"77.8333 660.167 OFFCURVE",
"66.9999 590.333 OFFCURVE",
"66.9999 515 CURVE SMOOTH",
"66.9999 431 OFFCURVE",
"79.1666 356.167 OFFCURVE",
"103.5 290.5 CURVE SMOOTH",
"127.833 224.833 OFFCURVE",
"161 169.333 OFFCURVE",
"203 124 CURVE SMOOTH",
"245 78.6666 OFFCURVE",
"294 44.1666 OFFCURVE",
"350 20.4999 CURVE SMOOTH",
"406 -3 OFFCURVE",
"465.667 -15 OFFCURVE",
"529 -15 CURVE SMOOTH",
"565 -15 OFFCURVE",
"601.167 -12 OFFCURVE",
"637.5 -7 CURVE SMOOTH",
"673.833 -2 OFFCURVE",
"709.167 7.49994 OFFCURVE",
"743.5 20.4999 CURVE SMOOTH",
"777.833 33.4999 OFFCURVE",
"811 50.8333 OFFCURVE",
"843 72.4999 CURVE SMOOTH",
"875 94.1666 OFFCURVE",
"904.667 121 OFFCURVE",
"932 153 CURVE",
"861 243 LINE",
"851 258.333 OFFCURVE",
"836 266 OFFCURVE",
"816 266 CURVE SMOOTH",
"800.667 266 OFFCURVE",
"786.833 261.167 OFFCURVE",
"774.5 251.5 CURVE SMOOTH",
"762.167 241.833 OFFCURVE",
"747.667 231.167 OFFCURVE",
"731 219.5 CURVE SMOOTH",
"714.333 207.833 OFFCURVE",
"693.833 197.167 OFFCURVE",
"669.5 187.5 CURVE SMOOTH",
"645.167 177.833 OFFCURVE",
"613.333 173 OFFCURVE",
"574 173 CURVE SMOOTH",
"534.667 173 OFFCURVE",
"499.333 180.5 OFFCURVE",
"468 195.5 CURVE SMOOTH",
"436.667 210.5 OFFCURVE",
"410 232.5 OFFCURVE",
"388 261.5 CURVE SMOOTH",
"366 290.5 OFFCURVE",
"349.167 326.333 OFFCURVE",
"337.5 369 CURVE SMOOTH",
"325.833 411.667 OFFCURVE",
"320 460.333 OFFCURVE",
"320 515 CURVE SMOOTH",
"320 567.667 OFFCURVE",
"325.333 614.833 OFFCURVE",
"336 656.5 CURVE SMOOTH",
"346.667 698.167 OFFCURVE",
"362.833 733.667 OFFCURVE",
"384.5 763 CURVE SMOOTH",
"406.167 792.333 OFFCURVE",
"433.333 814.833 OFFCURVE",
"466 830.5 CURVE SMOOTH",
"498.667 846.167 OFFCURVE",
"536.667 854 OFFCURVE",
"580 854 CURVE SMOOTH",
"614 854 OFFCURVE",
"642.5 850.167 OFFCURVE",
"665.5 842.5 CURVE SMOOTH",
"688.5 834.833 OFFCURVE",
"708.333 826.167 OFFCURVE",
"725 816.5 CURVE SMOOTH",
"741.667 806.833 OFFCURVE",
"756 798.167 OFFCURVE",
"768 790.5 CURVE SMOOTH",
"780 782.833 OFFCURVE",
"792.333 779 OFFCURVE",
"805 779 CURVE SMOOTH",
"818.333 779 OFFCURVE",
"828.5 781.667 OFFCURVE",
"835.5 787 CURVE SMOOTH",
"842.5 792.333 OFFCURVE",
"849.667 799.667 OFFCURVE",
"857 809 CURVE"
);
}
);
width = 964;
}
);
leftKerningGroup = c;
rightKerningGroup = c;
unicode = 0063;
},
{
glyphname = ccedilla;
layers = (
{
layerId = "C25503A3-518C-4CE5-B03D-46F600126290";
name = Bold;
paths = (
{
closed = 1;
nodes = (
"403.667 -234 OFFCURVE",
"394 -242 OFFCURVE",
"390 -257 CURVE SMOOTH",
"368 -334 LINE",
"390.667 -341 OFFCURVE",
"414 -347 OFFCURVE",
"438 -351 CURVE SMOOTH",
"462 -354 OFFCURVE",
"487.667 -356 OFFCURVE",
"515 -356 CURVE SMOOTH",
"551 -356 OFFCURVE",
"583.833 -353 OFFCURVE",
"613.5 -346 CURVE SMOOTH",
"643.167 -339 OFFCURVE",
"668.833 -330 OFFCURVE",
"690.5 -317 CURVE SMOOTH",
"712.167 -304 OFFCURVE",
"728.833 -289 OFFCURVE",
"740.5 -271 CURVE SMOOTH",
"752.167 -253 OFFCURVE",
"758 -233 OFFCURVE",
"758 -210 CURVE SMOOTH",
"758 -175 OFFCURVE",
"745.5 -146 OFFCURVE",
"720.5 -121 CURVE SMOOTH",
"695.5 -96 OFFCURVE",
"651.667 -76 OFFCURVE",
"589 -61 CURVE",
"602 -11 LINE",
"662 -5 OFFCURVE",
"720.667 10.5 OFFCURVE",
"778 35.5 CURVE SMOOTH",
"835.333 60.5 OFFCURVE",
"886.667 99.6667 OFFCURVE",
"932 153 CURVE",
"861 243 LINE",
"851 258.333 OFFCURVE",
"836 266 OFFCURVE",
"816 266 CURVE SMOOTH",
"800.667 266 OFFCURVE",
"786.833 261.167 OFFCURVE",
"774.5 251.5 CURVE SMOOTH",
"762.167 241.833 OFFCURVE",
"747.667 231.167 OFFCURVE",
"731 219.5 CURVE SMOOTH",
"714.333 207.833 OFFCURVE",
"693.833 197.167 OFFCURVE",
"669.5 187.5 CURVE SMOOTH",
"645.167 177.833 OFFCURVE",
"613.333 173 OFFCURVE",
"574 173 CURVE SMOOTH",
"534.667 173 OFFCURVE",
"499.333 180.5 OFFCURVE",
"468 195.5 CURVE SMOOTH",
"436.667 210.5 OFFCURVE",
"410 232.5 OFFCURVE",
"388 261.5 CURVE SMOOTH",
"366 290.5 OFFCURVE",
"349.167 326.333 OFFCURVE",
"337.5 369 CURVE SMOOTH",
"325.833 411.667 OFFCURVE",
"320 460.333 OFFCURVE",
"320 515 CURVE SMOOTH",
"320 567.667 OFFCURVE",
"325.333 614.833 OFFCURVE",
"336 656.5 CURVE SMOOTH",
"346.667 698.167 OFFCURVE",
"362.833 733.667 OFFCURVE",
"384.5 763 CURVE SMOOTH",
"406.167 792.333 OFFCURVE",
"433.333 814.833 OFFCURVE",
"466 830.5 CURVE SMOOTH",
"498.667 846.167 OFFCURVE",
"536.667 854 OFFCURVE",
"580 854 CURVE SMOOTH",
"614 854 OFFCURVE",
"642.5 850.167 OFFCURVE",
"665.5 842.5 CURVE SMOOTH",
"688.5 834.833 OFFCURVE",
"708.333 826.167 OFFCURVE",
"725 816.5 CURVE SMOOTH",
"741.667 806.833 OFFCURVE",
"756 798.167 OFFCURVE",
"768 790.5 CURVE SMOOTH",
"780 782.833 OFFCURVE",
"792.333 779 OFFCURVE",
"805 779 CURVE SMOOTH",
"818.333 779 OFFCURVE",
"828.5 781.667 OFFCURVE",
"835.5 787 CURVE SMOOTH",
"842.5 792.333 OFFCURVE",
"849.667 799.667 OFFCURVE",
"857 809 CURVE",
"922 899 LINE",
"876 945 OFFCURVE",
"824.167 980.333 OFFCURVE",
"766.5 1005 CURVE SMOOTH",
"708.833 1029.67 OFFCURVE",
"641.667 1042 OFFCURVE",
"565 1042 CURVE SMOOTH",
"484.333 1042 OFFCURVE",
"413 1028.67 OFFCURVE",
"351 1002 CURVE SMOOTH",
"289 975.333 OFFCURVE",
"237 938.5 OFFCURVE",
"195 891.5 CURVE SMOOTH",
"153 844.5 OFFCURVE",
"121.167 788.833 OFFCURVE",
"99.5001 724.5 CURVE SMOOTH",
"77.8334 660.167 OFFCURVE",
"67 590.333 OFFCURVE",
"67 515 CURVE SMOOTH",
"67 438.333 OFFCURVE",
"77.1667 369.333 OFFCURVE",
"97.5001 308 CURVE SMOOTH",
"117.833 246.667 OFFCURVE",
"145.667 193.833 OFFCURVE",
"181 149.5 CURVE SMOOTH",
"216.333 105.167 OFFCURVE",
"258 69.5001 OFFCURVE",
"306 42.5001 CURVE SMOOTH",
"354 15.5001 OFFCURVE",
"406 -2 OFFCURVE",
"462 -10 CURVE",
"418 -141 LINE",
"468 -148 OFFCURVE",
"505 -156 OFFCURVE",
"529 -165 CURVE SMOOTH",
"553 -173 OFFCURVE",
"565 -187 OFFCURVE",
"565 -206 CURVE SMOOTH",
"565 -218 OFFCURVE",
"559.5 -228 OFFCURVE",
"548.5 -237 CURVE SMOOTH",
"537.5 -245 OFFCURVE",
"521 -249 OFFCURVE",
"499 -249 CURVE SMOOTH",
"477.667 -249 OFFCURVE",
"461.333 -247 OFFCURVE",
"450 -242 CURVE SMOOTH",
"438.667 -237 OFFCURVE",
"428.333 -234 OFFCURVE",
"419 -234 CURVE SMOOTH"
);
}
);
width = 966;
}
);
leftKerningGroup = c;
rightKerningGroup = c;
unicode = 00E7;
},
{
glyphname = d;
layers = (
{
layerId = "C25503A3-518C-4CE5-B03D-46F600126290";
name = Bold;
paths = (
{
closed = 1;
nodes = (
"1013 0 LINE",
"1013 1486 LINE",
"766 1486 LINE",
"766 944 LINE",
"734 974.667 OFFCURVE",
"697.667 999.167 OFFCURVE",
"657 1017.5 CURVE SMOOTH",
"616.333 1035.83 OFFCURVE",
"567.333 1045 OFFCURVE",
"510 1045 CURVE SMOOTH",
"442.667 1045 OFFCURVE",
"382 1031.5 OFFCURVE",
"328 1004.5 CURVE SMOOTH",
"274 977.5 OFFCURVE",
"227.667 940 OFFCURVE",
"189 892 CURVE SMOOTH",
"150.333 844 OFFCURVE",
"120.667 787.333 OFFCURVE",
"100 722 CURVE SMOOTH",
"79.3333 656.667 OFFCURVE",
"69 586 OFFCURVE",
"69 510 CURVE SMOOTH",
"69 426 OFFCURVE",
"78.1667 351.333 OFFCURVE",
"96.5 286 CURVE SMOOTH",
"114.833 220.667 OFFCURVE",
"140.833 165.833 OFFCURVE",
"174.5 121.5 CURVE SMOOTH",
"208.167 77.1667 OFFCURVE",
"248.333 43.3333 OFFCURVE",
"295 20 CURVE SMOOTH",
"341.667 -3 OFFCURVE",
"393 -15 OFFCURVE",
"449 -15 CURVE SMOOTH",
"485 -15 OFFCURVE",
"518.5 -11 OFFCURVE",
"549.5 -4 CURVE SMOOTH",
"580.5 4.16667 OFFCURVE",
"609.5 15 OFFCURVE",
"636.5 29 CURVE SMOOTH",
"663.5 43 OFFCURVE",
"688.667 59.6667 OFFCURVE",
"712 79 CURVE SMOOTH",
"735.333 98.3333 OFFCURVE",
"757.667 120 OFFCURVE",
"779 144 CURVE",
"800 45 LINE",
"808.667 15 OFFCURVE",
"829.333 0 OFFCURVE",
"862 0 CURVE SMOOTH"
);
},
{
closed = 1;
nodes = (
"501 181 OFFCURVE",
"472 186.833 OFFCURVE",
"446 198.5 CURVE SMOOTH",
"420 210.167 OFFCURVE",
"398 229.167 OFFCURVE",
"380 255.5 CURVE SMOOTH",
"362 281.833 OFFCURVE",
"348.167 315.833 OFFCURVE",
"338.5 357.5 CURVE SMOOTH",
"328.833 399.167 OFFCURVE",
"324 450 OFFCURVE",
"324 510 CURVE SMOOTH",
"324 569.333 OFFCURVE",
"329.667 620.833 OFFCURVE",
"341 664.5 CURVE SMOOTH",
"352.333 708.167 OFFCURVE",
"368.667 744.167 OFFCURVE",
"390 772.5 CURVE SMOOTH",
"411.333 800.833 OFFCURVE",
"437 822 OFFCURVE",
"467 836 CURVE SMOOTH",
"497 850 OFFCURVE",
"530.667 857 OFFCURVE",
"568 857 CURVE SMOOTH",
"606 857 OFFCURVE",
"641.5 850 OFFCURVE",
"674.5 836 CURVE SMOOTH",
"707.5 822 OFFCURVE",
"738 798 OFFCURVE",
"766 764 CURVE",
"766 304 LINE",
"734 264.667 OFFCURVE",
"700 234.333 OFFCURVE",
"664 213 CURVE SMOOTH",
"628 191.667 OFFCURVE",
"584.333 181 OFFCURVE",
"533 181 CURVE SMOOTH"
);
}
);
width = 1135;
}
);
leftKerningGroup = d;
rightKerningGroup = d;
unicode = 0064;
},
{
glyphname = eth;
layers = (
{
layerId = "C25503A3-518C-4CE5-B03D-46F600126290";
name = Bold;
paths = (
{
closed = 1;
nodes = (
"431 984 LINE",
"628 1112 LINE",
"684.667 1074 OFFCURVE",
"729.667 1029.67 OFFCURVE",
"763 979 CURVE SMOOTH",
"796.333 928.333 OFFCURVE",
"820 867.667 OFFCURVE",
"834 797 CURVE",
"752 886.333 OFFCURVE",
"647.667 931 OFFCURVE",
"521 931 CURVE SMOOTH",
"451.667 931 OFFCURVE",
"388.833 918.667 OFFCURVE",
"332.5 894 CURVE SMOOTH",
"276.167 869.333 OFFCURVE",
"228.167 836.167 OFFCURVE",
"188.5 794.5 CURVE SMOOTH",
"148.833 752.833 OFFCURVE",
"118.167 704.333 OFFCURVE",
"96.5 649 CURVE SMOOTH",
"74.8333 593.667 OFFCURVE",
"64 535.333 OFFCURVE",
"64 474 CURVE SMOOTH",
"64 397.333 OFFCURVE",
"76.5 328.833 OFFCURVE",
"101.5 268.5 CURVE SMOOTH",
"126.5 208.167 OFFCURVE",
"160.667 157 OFFCURVE",
"204 115 CURVE SMOOTH",
"247.333 72.9999 OFFCURVE",
"298.667 40.8333 OFFCURVE",
"358 18.4999 CURVE SMOOTH",
"417.333 -4 OFFCURVE",
"481.667 -15 OFFCURVE",
"551 -15 CURVE SMOOTH",
"633.667 -15 OFFCURVE",
"707 -1 OFFCURVE",
"771 26.9999 CURVE SMOOTH",
"835 54.9999 OFFCURVE",
"888.667 95.8333 OFFCURVE",
"932 149.5 CURVE SMOOTH",
"975.333 203.167 OFFCURVE",
"1008.17 268.5 OFFCURVE",
"1030.5 345.5 CURVE SMOOTH",
"1052.83 422.5 OFFCURVE",
"1064 510 OFFCURVE",
"1064 608 CURVE SMOOTH",
"1064 676.667 OFFCURVE",
"1058.17 740.667 OFFCURVE",
"1046.5 800 CURVE SMOOTH",
"1034.83 859.333 OFFCURVE",
"1018 914 OFFCURVE",
"996 964 CURVE SMOOTH",
"974 1014 OFFCURVE",
"947.667 1059.83 OFFCURVE",
"917 1101.5 CURVE SMOOTH",
"886.333 1143.17 OFFCURVE",
"852 1181 OFFCURVE",
"814 1215 CURVE",
"895 1261 LINE",
"909 1270.33 OFFCURVE",
"918 1281.83 OFFCURVE",
"922 1295.5 CURVE SMOOTH",
"926 1309.17 OFFCURVE",
"923.333 1323.33 OFFCURVE",
"914 1338 CURVE SMOOTH",
"865 1418 LINE",
"689 1305 LINE",
"633.667 1337 OFFCURVE",
"574.833 1363.33 OFFCURVE",
"512.5 1384 CURVE SMOOTH",
"450.167 1404.67 OFFCURVE",
"385.333 1420.67 OFFCURVE",
"318 1432 CURVE",
"290 1347 LINE",
"284 1331 OFFCURVE",
"281.167 1316.5 OFFCURVE",
"281.5 1303.5 CURVE SMOOTH",
"281.833 1290.5 OFFCURVE",
"284.5 1279.17 OFFCURVE",
"289.5 1269.5 CURVE SMOOTH",
"294.5 1259.83 OFFCURVE",
"301.333 1251.83 OFFCURVE",
"310 1245.5 CURVE SMOOTH",
"318.667 1239.17 OFFCURVE",
"328.333 1234.67 OFFCURVE",
"339 1232 CURVE SMOOTH",
"365 1224.67 OFFCURVE",
"389.833 1217.33 OFFCURVE",
"413.5 1210 CURVE SMOOTH",
"437.167 1202.67 OFFCURVE",
"459.667 1194.67 OFFCURVE",
"481 1186 CURVE",
"406 1143 LINE SMOOTH",
"389.333 1133.67 OFFCURVE",
"379 1121.67 OFFCURVE",
"375 1107 CURVE SMOOTH",
"371 1092.33 OFFCURVE",
"374 1077.33 OFFCURVE",
"384 1062 CURVE"
);
},
{
closed = 1;
nodes = (
"523 173 OFFCURVE",
"490.833 179.5 OFFCURVE",
"460.5 192.5 CURVE SMOOTH",
"430.167 205.5 OFFCURVE",
"403.833 224.666 OFFCURVE",
"381.5 250 CURVE SMOOTH",
"359.167 275.333 OFFCURVE",
"341.5 306.5 OFFCURVE",
"328.5 343.5 CURVE SMOOTH",
"315.5 380.5 OFFCURVE",
"309 423.333 OFFCURVE",
"309 472 CURVE SMOOTH",
"309 510 OFFCURVE",
"314.667 545.333 OFFCURVE",
"326 578 CURVE SMOOTH",
"337.333 610.666 OFFCURVE",
"354 639.333 OFFCURVE",
"376 664 CURVE SMOOTH",
"398 688.666 OFFCURVE",
"425.333 708 OFFCURVE",
"458 722 CURVE SMOOTH",
"490.667 736 OFFCURVE",
"528.333 743 OFFCURVE",
"571 743 CURVE SMOOTH",
"605 743 OFFCURVE",
"635.833 738.333 OFFCURVE",
"663.5 729 CURVE SMOOTH",
"691.167 719.666 OFFCURVE",
"715.667 706.833 OFFCURVE",
"737 690.5 CURVE SMOOTH",
"758.333 674.166 OFFCURVE",
"776.667 655 OFFCURVE",
"792 633 CURVE SMOOTH",
"807.333 611 OFFCURVE",
"820.333 587.666 OFFCURVE",
"831 563 CURVE",
"829 491.666 OFFCURVE",
"820.833 431.333 OFFCURVE",
"806.5 382 CURVE SMOOTH",
"792.167 332.666 OFFCURVE",
"773 292.5 OFFCURVE",
"749 261.5 CURVE SMOOTH",
"725 230.5 OFFCURVE",
"696.667 208 OFFCURVE",
"664 194 CURVE SMOOTH",
"631.333 180 OFFCURVE",
"595.667 173 OFFCURVE",
"557 173 CURVE SMOOTH"
);
}
);
width = 1141;
}
);
leftKerningGroup = eth;
rightKerningGroup = eth;
unicode = 00F0;
},
{
glyphname = e;
lastChange = "2014-08-19 19:13:46 -0500";
layers = (
{
layerId = "C25503A3-518C-4CE5-B03D-46F600126290";
name = Bold;
paths = (
{
closed = 1;
nodes = (
"482.333 1042 OFFCURVE",
"413.5 1028.67 OFFCURVE",
"352.5 1002 CURVE SMOOTH",
"291.5 975.333 OFFCURVE",
"239.833 939.167 OFFCURVE",
"197.5 893.5 CURVE SMOOTH",
"155.167 847.833 OFFCURVE",
"122.667 794.167 OFFCURVE",
"100 732.5 CURVE SMOOTH",
"77.3333 670.833 OFFCURVE",
"66 605 OFFCURVE",
"66 535 CURVE SMOOTH",
"66 445 OFFCURVE",
"79 365.833 OFFCURVE",
"105 297.5 CURVE SMOOTH",
"131 229.167 OFFCURVE",
"166.667 171.833 OFFCURVE",
"212 125.5 CURVE SMOOTH",
"257.333 79.1666 OFFCURVE",
"310.667 44.1666 OFFCURVE",
"372 20.4999 CURVE SMOOTH",
"433.333 -3 OFFCURVE",
"499.667 -15 OFFCURVE",
"571 -15 CURVE SMOOTH",
"607 -15 OFFCURVE",
"644.167 -12 OFFCURVE",
"682.5 -7 CURVE SMOOTH",
"720.833 -2 OFFCURVE",
"758.5 7.49994 OFFCURVE",
"795.5 20.4999 CURVE SMOOTH",
"832.5 33.4999 OFFCURVE",
"868 50.8333 OFFCURVE",
"902 72.4999 CURVE SMOOTH",
"936 94.1666 OFFCURVE",
"966.667 121 OFFCURVE",
"994 153 CURVE",
"923 243 LINE",
"913 258.333 OFFCURVE",
"897.667 266 OFFCURVE",
"877 266 CURVE SMOOTH",
"861.667 266 OFFCURVE",
"845.833 261.333 OFFCURVE",
"829.5 252 CURVE SMOOTH",
"813.167 242.667 OFFCURVE",
"794.167 232.333 OFFCURVE",
"772.5 221 CURVE SMOOTH",
"750.833 209.667 OFFCURVE",
"725.5 199.333 OFFCURVE",
"696.5 190 CURVE SMOOTH",
"667.5 180.667 OFFCURVE",
"633 176 OFFCURVE",
"593 176 CURVE SMOOTH",
"553 176 OFFCURVE",
"516.5 182.167 OFFCURVE",
"483.5 194.5 CURVE SMOOTH",
"450.5 206.833 OFFCURVE",
"417 224 OFFCURVE",
"393 249 CURVE SMOOTH",
"369 274 OFFCURVE",
"354 310 OFFCURVE",
"340 342 CURVE SMOOTH",
"331 362 OFFCURVE",
"316 408 OFFCURVE",
"312 461 CURVE",
"947 461 LINE SMOOTH",
"970 461 OFFCURVE",
"985 468 OFFCURVE",
"993 481 CURVE SMOOTH",
"1001 494 OFFCURVE",
"1005 519 OFFCURVE",
"1005 556 CURVE SMOOTH",
"1005 630 OFFCURVE",
"993.833 716.833 OFFCURVE",
"971.5 774.5 CURVE SMOOTH",
"949.167 832.167 OFFCURVE",
"918.333 880.833 OFFCURVE",
"879 920.5 CURVE SMOOTH",
"839.667 960.167 OFFCURVE",
"792.667 990.333 OFFCURVE",
"738 1011 CURVE SMOOTH",
"683.333 1031.67 OFFCURVE",
"623.667 1042 OFFCURVE",
"559 1042 CURVE SMOOTH"
);
},
{
closed = 1;
nodes = (
"600.667 865 OFFCURVE",
"632.833 858.833 OFFCURVE",
"660.5 846.5 CURVE SMOOTH",
"688.167 834.167 OFFCURVE",
"711 817.333 OFFCURVE",
"729 796 CURVE SMOOTH",
"747 774.667 OFFCURVE",
"760.5 749.833 OFFCURVE",
"769.5 721.5 CURVE SMOOTH",
"778.5 693.167 OFFCURVE",
"783 642 OFFCURVE",
"783 610 CURVE",
"317 610 LINE",
"328 685 OFFCURVE",
"354.333 763.333 OFFCURVE",
"395 804 CURVE SMOOTH",
"435.667 844.667 OFFCURVE",
"492 865 OFFCURVE",
"564 865 CURVE SMOOTH"
);
}
);
width = 1068;
}
);
leftKerningGroup = c;
rightKerningGroup = e;
unicode = 0065;
},
{
glyphname = eacute;
lastChange = "2014-08-19 19:14:06 -0500";
layers = (
{
layerId = "C25503A3-518C-4CE5-B03D-46F600126290";
name = Bold;
paths = (
{
closed = 1;
nodes = (
"911 1462 LINE",
"671 1462 LINE SMOOTH",
"644.333 1462 OFFCURVE",
"624.333 1457.5 OFFCURVE",
"611 1448.5 CURVE SMOOTH",
"597.667 1439.5 OFFCURVE",
"586 1426.33 OFFCURVE",
"576 1409 CURVE SMOOTH",
"434 1166 LINE",
"582 1166 LINE SMOOTH",
"600.667 1166 OFFCURVE",
"615.833 1168.5 OFFCURVE",
"627.5 1173.5 CURVE SMOOTH",
"639.167 1178.5 OFFCURVE",
"651.333 1187.67 OFFCURVE",
"664 1201 CURVE SMOOTH"
);
},
{
closed = 1;
nodes = (
"482.333 1042 OFFCURVE",
"413.5 1028.67 OFFCURVE",
"352.5 1002 CURVE SMOOTH",
"291.5 975.333 OFFCURVE",
"239.833 939.167 OFFCURVE",
"197.5 893.5 CURVE SMOOTH",
"155.167 847.833 OFFCURVE",
"122.667 794.167 OFFCURVE",
"100 732.5 CURVE SMOOTH",
"77.333 670.833 OFFCURVE",
"66 605 OFFCURVE",
"66 535 CURVE SMOOTH",
"66 445 OFFCURVE",
"79 365.833 OFFCURVE",
"105 297.5 CURVE SMOOTH",
"131 229.167 OFFCURVE",
"166.667 171.833 OFFCURVE",
"212 125.5 CURVE SMOOTH",
"257.333 79.167 OFFCURVE",
"310.667 44.167 OFFCURVE",
"372 20.5 CURVE SMOOTH",
"433.333 -3 OFFCURVE",
"499.667 -15 OFFCURVE",
"571 -15 CURVE SMOOTH",
"607 -15 OFFCURVE",
"644.167 -12 OFFCURVE",
"682.5 -7 CURVE SMOOTH",
"720.833 -2 OFFCURVE",
"758.5 7.5 OFFCURVE",
"795.5 20.5 CURVE SMOOTH",
"832.5 33.5 OFFCURVE",
"868 50.833 OFFCURVE",
"902 72.5 CURVE SMOOTH",
"936 94.167 OFFCURVE",
"966.667 121 OFFCURVE",
"994 153 CURVE",
"923 243 LINE",
"913 258.333 OFFCURVE",
"897.667 266 OFFCURVE",
"877 266 CURVE SMOOTH",
"861.667 266 OFFCURVE",
"845.833 261.333 OFFCURVE",
"829.5 252 CURVE SMOOTH",
"813.167 242.667 OFFCURVE",
"794.167 232.333 OFFCURVE",
"772.5 221 CURVE SMOOTH",
"750.833 209.667 OFFCURVE",
"725.5 199.333 OFFCURVE",
"696.5 190 CURVE SMOOTH",
"667.5 180.667 OFFCURVE",
"633 176 OFFCURVE",
"593 176 CURVE SMOOTH",
"553 176 OFFCURVE",
"516.5 182.167 OFFCURVE",
"483.5 194.5 CURVE SMOOTH",
"450.5 206.833 OFFCURVE",
"417 224 OFFCURVE",
"393 249 CURVE SMOOTH",
"369 274 OFFCURVE",
"354 310 OFFCURVE",
"340 342 CURVE SMOOTH",
"331 362 OFFCURVE",
"316 408 OFFCURVE",
"312 461 CURVE",
"947 461 LINE SMOOTH",
"970 461 OFFCURVE",
"985 468 OFFCURVE",
"993 481 CURVE SMOOTH",
"1001 494 OFFCURVE",
"1005 519 OFFCURVE",
"1005 556 CURVE SMOOTH",
"1005 630 OFFCURVE",
"993.833 716.833 OFFCURVE",
"971.5 774.5 CURVE SMOOTH",
"949.167 832.167 OFFCURVE",
"918.333 880.833 OFFCURVE",
"879 920.5 CURVE SMOOTH",
"839.667 960.167 OFFCURVE",
"792.667 990.333 OFFCURVE",
"738 1011 CURVE SMOOTH",
"683.333 1031.67 OFFCURVE",
"623.667 1042 OFFCURVE",
"559 1042 CURVE SMOOTH"
);
},
{
closed = 1;
nodes = (
"600.667 865 OFFCURVE",
"632.833 858.833 OFFCURVE",
"660.5 846.5 CURVE SMOOTH",
"688.167 834.167 OFFCURVE",
"711 817.333 OFFCURVE",
"729 796 CURVE SMOOTH",
"747 774.667 OFFCURVE",
"760.5 749.833 OFFCURVE",
"769.5 721.5 CURVE SMOOTH",
"778.5 693.167 OFFCURVE",
"783 642 OFFCURVE",
"783 610 CURVE",
"317 610 LINE",
"328 685 OFFCURVE",
"354.333 763.333 OFFCURVE",
"395 804 CURVE SMOOTH",
"435.667 844.667 OFFCURVE",
"492 865 OFFCURVE",
"564 865 CURVE SMOOTH"
);
}
);
width = 1068;
}
);
leftKerningGroup = c;
rightKerningGroup = e;
unicode = 00E9;
},
{
glyphname = ecircumflex;
lastChange = "2014-08-19 19:14:14 -0500";
layers = (
{
layerId = "C25503A3-518C-4CE5-B03D-46F600126290";
name = Bold;
paths = (
{
closed = 1;
nodes = (
"910 1168 LINE",
"681 1446 LINE",
"449 1446 LINE",
"220 1168 LINE",
"391 1168 LINE SMOOTH",
"401 1168 OFFCURVE",
"411 1170 OFFCURVE",
"421 1174 CURVE SMOOTH",
"431 1178 OFFCURVE",
"440 1184.33 OFFCURVE",
"448 1193 CURVE SMOOTH",
"548 1297 LINE SMOOTH",
"554.667 1303.67 OFFCURVE",
"561.667 1311.67 OFFCURVE",
"569 1321 CURVE",
"575.667 1311.67 OFFCURVE",
"582.667 1303.67 OFFCURVE",
"590 1297 CURVE",
"688 1193 LINE SMOOTH",
"697.333 1183.67 OFFCURVE",
"706.833 1177.17 OFFCURVE",
"716.5 1173.5 CURVE SMOOTH",
"726.167 1169.83 OFFCURVE",
"735.667 1168 OFFCURVE",
"745 1168 CURVE SMOOTH"
);
},
{
closed = 1;
nodes = (
"482.333 1042 OFFCURVE",
"413.5 1028.67 OFFCURVE",
"352.5 1002 CURVE SMOOTH",
"291.5 975.333 OFFCURVE",
"239.833 939.167 OFFCURVE",
"197.5 893.5 CURVE SMOOTH",
"155.167 847.833 OFFCURVE",
"122.667 794.167 OFFCURVE",
"100 732.5 CURVE SMOOTH",
"77.333 670.833 OFFCURVE",
"66 605 OFFCURVE",
"66 535 CURVE SMOOTH",
"66 445 OFFCURVE",
"79 365.833 OFFCURVE",
"105 297.5 CURVE SMOOTH",
"131 229.167 OFFCURVE",
"166.667 171.833 OFFCURVE",
"212 125.5 CURVE SMOOTH",
"257.333 79.167 OFFCURVE",
"310.667 44.167 OFFCURVE",
"372 20.5 CURVE SMOOTH",
"433.333 -3 OFFCURVE",
"499.667 -15 OFFCURVE",
"571 -15 CURVE SMOOTH",
"607 -15 OFFCURVE",
"644.167 -12 OFFCURVE",
"682.5 -7 CURVE SMOOTH",
"720.833 -2 OFFCURVE",
"758.5 7.5 OFFCURVE",
"795.5 20.5 CURVE SMOOTH",
"832.5 33.5 OFFCURVE",
"868 50.833 OFFCURVE",
"902 72.5 CURVE SMOOTH",
"936 94.167 OFFCURVE",
"966.667 121 OFFCURVE",
"994 153 CURVE",
"923 243 LINE",
"913 258.333 OFFCURVE",
"897.667 266 OFFCURVE",
"877 266 CURVE SMOOTH",
"861.667 266 OFFCURVE",
"845.833 261.333 OFFCURVE",
"829.5 252 CURVE SMOOTH",
"813.167 242.667 OFFCURVE",
"794.167 232.333 OFFCURVE",
"772.5 221 CURVE SMOOTH",
"750.833 209.667 OFFCURVE",
"725.5 199.333 OFFCURVE",
"696.5 190 CURVE SMOOTH",
"667.5 180.667 OFFCURVE",
"633 176 OFFCURVE",
"593 176 CURVE SMOOTH",
"553 176 OFFCURVE",
"516.5 182.167 OFFCURVE",
"483.5 194.5 CURVE SMOOTH",
"450.5 206.833 OFFCURVE",
"417 224 OFFCURVE",
"393 249 CURVE SMOOTH",
"369 274 OFFCURVE",
"354 310 OFFCURVE",
"340 342 CURVE SMOOTH",
"331 362 OFFCURVE",
"316 408 OFFCURVE",
"312 461 CURVE",
"947 461 LINE SMOOTH",
"970 461 OFFCURVE",
"985 468 OFFCURVE",
"993 481 CURVE SMOOTH",
"1001 494 OFFCURVE",
"1005 519 OFFCURVE",
"1005 556 CURVE SMOOTH",
"1005 630 OFFCURVE",
"993.833 716.833 OFFCURVE",
"971.5 774.5 CURVE SMOOTH",
"949.167 832.167 OFFCURVE",
"918.333 880.833 OFFCURVE",
"879 920.5 CURVE SMOOTH",
"839.667 960.167 OFFCURVE",
"792.667 990.333 OFFCURVE",
"738 1011 CURVE SMOOTH",
"683.333 1031.67 OFFCURVE",
"623.667 1042 OFFCURVE",
"559 1042 CURVE SMOOTH"
);
},
{
closed = 1;
nodes = (
"600.667 865 OFFCURVE",
"632.833 858.833 OFFCURVE",
"660.5 846.5 CURVE SMOOTH",
"688.167 834.167 OFFCURVE",
"711 817.333 OFFCURVE",
"729 796 CURVE SMOOTH",
"747 774.667 OFFCURVE",
"760.5 749.833 OFFCURVE",
"769.5 721.5 CURVE SMOOTH",
"778.5 693.167 OFFCURVE",
"783 642 OFFCURVE",
"783 610 CURVE",
"317 610 LINE",
"328 685 OFFCURVE",
"354.333 763.333 OFFCURVE",
"395 804 CURVE SMOOTH",
"435.667 844.667 OFFCURVE",
"492 865 OFFCURVE",
"564 865 CURVE SMOOTH"
);
}
);
width = 1068;
}
);
leftKerningGroup = c;
rightKerningGroup = e;
unicode = 00EA;
},
{
glyphname = edieresis;
lastChange = "2014-08-19 19:14:23 -0500";
layers = (
{
layerId = "C25503A3-518C-4CE5-B03D-46F600126290";
name = Bold;
paths = (
{
closed = 1;
nodes = (
"501 1311.33 OFFCURVE",
"497.333 1329.5 OFFCURVE",
"490 1346.5 CURVE SMOOTH",
"482.667 1363.5 OFFCURVE",
"472.5 1378.33 OFFCURVE",
"459.5 1391 CURVE SMOOTH",
"446.5 1403.67 OFFCURVE",
"431.5 1413.67 OFFCURVE",
"414.5 1421 CURVE SMOOTH",
"397.5 1428.33 OFFCURVE",
"379.333 1432 OFFCURVE",
"360 1432 CURVE SMOOTH",
"342 1432 OFFCURVE",
"324.833 1428.33 OFFCURVE",
"308.5 1421 CURVE SMOOTH",
"292.167 1413.67 OFFCURVE",
"277.833 1403.67 OFFCURVE",
"265.5 1391 CURVE SMOOTH",
"253.167 1378.33 OFFCURVE",
"243.333 1363.5 OFFCURVE",
"236 1346.5 CURVE SMOOTH",
"228.667 1329.5 OFFCURVE",
"225 1311.33 OFFCURVE",
"225 1292 CURVE SMOOTH",
"225 1273.33 OFFCURVE",
"228.667 1255.83 OFFCURVE",
"236 1239.5 CURVE SMOOTH",
"243.333 1223.17 OFFCURVE",
"253.167 1209 OFFCURVE",
"265.5 1197 CURVE SMOOTH",
"277.833 1185 OFFCURVE",
"292.167 1175.5 OFFCURVE",
"308.5 1168.5 CURVE SMOOTH",
"324.833 1161.5 OFFCURVE",
"342 1158 OFFCURVE",
"360 1158 CURVE SMOOTH",
"379.333 1158 OFFCURVE",
"397.5 1161.5 OFFCURVE",
"414.5 1168.5 CURVE SMOOTH",
"431.5 1175.5 OFFCURVE",
"446.5 1185 OFFCURVE",
"459.5 1197 CURVE SMOOTH",
"472.5 1209 OFFCURVE",
"482.667 1223.17 OFFCURVE",
"490 1239.5 CURVE SMOOTH",
"497.333 1255.83 OFFCURVE",
"501 1273.33 OFFCURVE",
"501 1292 CURVE SMOOTH"
);
},
{
closed = 1;
nodes = (
"905 1311.33 OFFCURVE",
"901.333 1329.5 OFFCURVE",
"894 1346.5 CURVE SMOOTH",
"886.667 1363.5 OFFCURVE",
"876.833 1378.33 OFFCURVE",
"864.5 1391 CURVE SMOOTH",
"852.167 1403.67 OFFCURVE",
"837.5 1413.67 OFFCURVE",
"820.5 1421 CURVE SMOOTH",
"803.5 1428.33 OFFCURVE",
"785.333 1432 OFFCURVE",
"766 1432 CURVE SMOOTH",
"747.333 1432 OFFCURVE",
"729.667 1428.33 OFFCURVE",
"713 1421 CURVE SMOOTH",
"696.333 1413.67 OFFCURVE",
"681.833 1403.67 OFFCURVE",
"669.5 1391 CURVE SMOOTH",
"657.167 1378.33 OFFCURVE",
"647.333 1363.5 OFFCURVE",
"640 1346.5 CURVE SMOOTH",
"632.667 1329.5 OFFCURVE",
"629 1311.33 OFFCURVE",
"629 1292 CURVE SMOOTH",
"629 1273.33 OFFCURVE",
"632.667 1255.83 OFFCURVE",
"640 1239.5 CURVE SMOOTH",
"647.333 1223.17 OFFCURVE",
"657.167 1209 OFFCURVE",
"669.5 1197 CURVE SMOOTH",
"681.833 1185 OFFCURVE",
"696.333 1175.5 OFFCURVE",
"713 1168.5 CURVE SMOOTH",
"729.667 1161.5 OFFCURVE",
"747.333 1158 OFFCURVE",
"766 1158 CURVE SMOOTH",
"785.333 1158 OFFCURVE",
"803.5 1161.5 OFFCURVE",
"820.5 1168.5 CURVE SMOOTH",
"837.5 1175.5 OFFCURVE",
"852.167 1185 OFFCURVE",
"864.5 1197 CURVE SMOOTH",
"876.833 1209 OFFCURVE",
"886.667 1223.17 OFFCURVE",
"894 1239.5 CURVE SMOOTH",
"901.333 1255.83 OFFCURVE",
"905 1273.33 OFFCURVE",
"905 1292 CURVE SMOOTH"
);
},
{
closed = 1;
nodes = (
"482.333 1042 OFFCURVE",
"413.5 1028.67 OFFCURVE",
"352.5 1002 CURVE SMOOTH",
"291.5 975.333 OFFCURVE",
"239.833 939.167 OFFCURVE",
"197.5 893.5 CURVE SMOOTH",
"155.167 847.833 OFFCURVE",
"122.667 794.167 OFFCURVE",
"100 732.5 CURVE SMOOTH",
"77.333 670.833 OFFCURVE",
"66 605 OFFCURVE",
"66 535 CURVE SMOOTH",
"66 445 OFFCURVE",
"79 365.833 OFFCURVE",
"105 297.5 CURVE SMOOTH",
"131 229.167 OFFCURVE",
"166.667 171.833 OFFCURVE",
"212 125.5 CURVE SMOOTH",
"257.333 79.167 OFFCURVE",
"310.667 44.167 OFFCURVE",
"372 20.5 CURVE SMOOTH",
"433.333 -3 OFFCURVE",
"499.667 -15 OFFCURVE",
"571 -15 CURVE SMOOTH",
"607 -15 OFFCURVE",
"644.167 -12 OFFCURVE",
"682.5 -7 CURVE SMOOTH",
"720.833 -2 OFFCURVE",
"758.5 7.5 OFFCURVE",
"795.5 20.5 CURVE SMOOTH",
"832.5 33.5 OFFCURVE",
"868 50.833 OFFCURVE",
"902 72.5 CURVE SMOOTH",
"936 94.167 OFFCURVE",
"966.667 121 OFFCURVE",
"994 153 CURVE",
"923 243 LINE",
"913 258.333 OFFCURVE",
"897.667 266 OFFCURVE",
"877 266 CURVE SMOOTH",
"861.667 266 OFFCURVE",
"845.833 261.333 OFFCURVE",
"829.5 252 CURVE SMOOTH",
"813.167 242.667 OFFCURVE",
"794.167 232.333 OFFCURVE",
"772.5 221 CURVE SMOOTH",
"750.833 209.667 OFFCURVE",
"725.5 199.333 OFFCURVE",
"696.5 190 CURVE SMOOTH",
"667.5 180.667 OFFCURVE",
"633 176 OFFCURVE",
"593 176 CURVE SMOOTH",
"553 176 OFFCURVE",
"516.5 182.167 OFFCURVE",
"483.5 194.5 CURVE SMOOTH",
"450.5 206.833 OFFCURVE",
"417 224 OFFCURVE",
"393 249 CURVE SMOOTH",
"369 274 OFFCURVE",
"354 310 OFFCURVE",
"340 342 CURVE SMOOTH",
"331 362 OFFCURVE",
"316 408 OFFCURVE",
"312 461 CURVE",
"947 461 LINE SMOOTH",
"970 461 OFFCURVE",
"985 468 OFFCURVE",
"993 481 CURVE SMOOTH",
"1001 494 OFFCURVE",
"1005 519 OFFCURVE",
"1005 556 CURVE SMOOTH",
"1005 630 OFFCURVE",
"993.833 716.833 OFFCURVE",
"971.5 774.5 CURVE SMOOTH",
"949.167 832.167 OFFCURVE",
"918.333 880.833 OFFCURVE",
"879 920.5 CURVE SMOOTH",
"839.667 960.167 OFFCURVE",
"792.667 990.333 OFFCURVE",
"738 1011 CURVE SMOOTH",
"683.333 1031.67 OFFCURVE",
"623.667 1042 OFFCURVE",
"559 1042 CURVE SMOOTH"
);
},
{
closed = 1;
nodes = (
"600.667 865 OFFCURVE",
"632.833 858.833 OFFCURVE",
"660.5 846.5 CURVE SMOOTH",
"688.167 834.167 OFFCURVE",
"711 817.333 OFFCURVE",
"729 796 CURVE SMOOTH",
"747 774.667 OFFCURVE",
"760.5 749.833 OFFCURVE",
"769.5 721.5 CURVE SMOOTH",
"778.5 693.167 OFFCURVE",
"783 642 OFFCURVE",
"783 610 CURVE",
"317 610 LINE",
"328 685 OFFCURVE",
"354.333 763.333 OFFCURVE",
"395 804 CURVE SMOOTH",
"435.667 844.667 OFFCURVE",
"492 865 OFFCURVE",
"564 865 CURVE SMOOTH"
);
}
);
width = 1068;
}
);
leftKerningGroup = c;
rightKerningGroup = e;
unicode = 00EB;
},
{
glyphname = egrave;
lastChange = "2014-08-19 19:14:35 -0500";
layers = (
{
layerId = "C25503A3-518C-4CE5-B03D-46F600126290";
name = Bold;
paths = (
{
closed = 1;
nodes = (
"245 1462 LINE",
"492 1201 LINE SMOOTH",
"504 1187.67 OFFCURVE",
"515.833 1178.5 OFFCURVE",
"527.5 1173.5 CURVE SMOOTH",
"539.167 1168.5 OFFCURVE",
"554.333 1166 OFFCURVE",
"573 1166 CURVE SMOOTH",
"714 1166 LINE",
"571 1409 LINE",
"561.667 1426.33 OFFCURVE",
"550.333 1439.5 OFFCURVE",
"537 1448.5 CURVE SMOOTH",
"523.667 1457.5 OFFCURVE",
"503.333 1462 OFFCURVE",
"476 1462 CURVE SMOOTH"
);
},
{
closed = 1;
nodes = (
"482.333 1042 OFFCURVE",
"413.5 1028.67 OFFCURVE",
"352.5 1002 CURVE SMOOTH",
"291.5 975.333 OFFCURVE",
"239.833 939.167 OFFCURVE",
"197.5 893.5 CURVE SMOOTH",
"155.167 847.833 OFFCURVE",
"122.667 794.167 OFFCURVE",
"100 732.5 CURVE SMOOTH",
"77.333 670.833 OFFCURVE",
"66 605 OFFCURVE",
"66 535 CURVE SMOOTH",
"66 445 OFFCURVE",
"79 365.833 OFFCURVE",
"105 297.5 CURVE SMOOTH",
"131 229.167 OFFCURVE",
"166.667 171.833 OFFCURVE",
"212 125.5 CURVE SMOOTH",
"257.333 79.167 OFFCURVE",
"310.667 44.167 OFFCURVE",
"372 20.5 CURVE SMOOTH",
"433.333 -3 OFFCURVE",
"499.667 -15 OFFCURVE",
"571 -15 CURVE SMOOTH",
"607 -15 OFFCURVE",
"644.167 -12 OFFCURVE",
"682.5 -7 CURVE SMOOTH",
"720.833 -2 OFFCURVE",
"758.5 7.5 OFFCURVE",
"795.5 20.5 CURVE SMOOTH",
"832.5 33.5 OFFCURVE",
"868 50.833 OFFCURVE",
"902 72.5 CURVE SMOOTH",
"936 94.167 OFFCURVE",
"966.667 121 OFFCURVE",
"994 153 CURVE",
"923 243 LINE",
"913 258.333 OFFCURVE",
"897.667 266 OFFCURVE",
"877 266 CURVE SMOOTH",
"861.667 266 OFFCURVE",
"845.833 261.333 OFFCURVE",
"829.5 252 CURVE SMOOTH",
"813.167 242.667 OFFCURVE",
"794.167 232.333 OFFCURVE",
"772.5 221 CURVE SMOOTH",
"750.833 209.667 OFFCURVE",
"725.5 199.333 OFFCURVE",
"696.5 190 CURVE SMOOTH",
"667.5 180.667 OFFCURVE",
"633 176 OFFCURVE",
"593 176 CURVE SMOOTH",
"553 176 OFFCURVE",
"516.5 182.167 OFFCURVE",
"483.5 194.5 CURVE SMOOTH",
"450.5 206.833 OFFCURVE",
"417 224 OFFCURVE",
"393 249 CURVE SMOOTH",
"369 274 OFFCURVE",
"354 310 OFFCURVE",
"340 342 CURVE SMOOTH",
"331 362 OFFCURVE",
"316 408 OFFCURVE",
"312 461 CURVE",
"947 461 LINE SMOOTH",
"970 461 OFFCURVE",
"985 468 OFFCURVE",
"993 481 CURVE SMOOTH",
"1001 494 OFFCURVE",
"1005 519 OFFCURVE",
"1005 556 CURVE SMOOTH",
"1005 630 OFFCURVE",
"993.833 716.833 OFFCURVE",
"971.5 774.5 CURVE SMOOTH",
"949.167 832.167 OFFCURVE",
"918.333 880.833 OFFCURVE",
"879 920.5 CURVE SMOOTH",
"839.667 960.167 OFFCURVE",
"792.667 990.333 OFFCURVE",
"738 1011 CURVE SMOOTH",
"683.333 1031.67 OFFCURVE",
"623.667 1042 OFFCURVE",
"559 1042 CURVE SMOOTH"
);
},
{
closed = 1;
nodes = (
"600.667 865 OFFCURVE",
"632.833 858.833 OFFCURVE",
"660.5 846.5 CURVE SMOOTH",
"688.167 834.167 OFFCURVE",
"711 817.333 OFFCURVE",
"729 796 CURVE SMOOTH",
"747 774.667 OFFCURVE",
"760.5 749.833 OFFCURVE",
"769.5 721.5 CURVE SMOOTH",
"778.5 693.167 OFFCURVE",
"783 642 OFFCURVE",
"783 610 CURVE",
"317 610 LINE",
"328 685 OFFCURVE",
"354.333 763.333 OFFCURVE",
"395 804 CURVE SMOOTH",
"435.667 844.667 OFFCURVE",
"492 865 OFFCURVE",
"564 865 CURVE SMOOTH"
);
}
);
width = 1068;
}
);
leftKerningGroup = c;
rightKerningGroup = e;
unicode = 00E8;
},
{
glyphname = f;
lastChange = "2014-08-19 19:23:29 -0500";
layers = (
{
layerId = "C25503A3-518C-4CE5-B03D-46F600126290";
name = Bold;
paths = (
{
closed = 1;
nodes = (
"194 0 LINE",
"441 0 LINE",
"441 841 LINE",
"700 841 LINE",
"700 1017 LINE",
"433 1017 LINE",
"433 1085 LINE SMOOTH",
"433 1123 OFFCURVE",
"437.167 1154.83 OFFCURVE",
"445.5 1180.5 CURVE SMOOTH",
"453.833 1206.17 OFFCURVE",
"466 1226.83 OFFCURVE",
"482 1242.5 CURVE SMOOTH",
"498 1258.17 OFFCURVE",
"517.5 1269.17 OFFCURVE",
"540.5 1275.5 CURVE SMOOTH",
"563.5 1281.83 OFFCURVE",
"596 1283 OFFCURVE",
"625 1283 CURVE SMOOTH",
"636 1283 OFFCURVE",
"647 1284 OFFCURVE",
"657 1285 CURVE SMOOTH",
"667 1286 OFFCURVE",
"676 1288 OFFCURVE",
"684 1291 CURVE SMOOTH",
"691 1294 OFFCURVE",
"697 1298 OFFCURVE",
"702 1304 CURVE SMOOTH",
"707 1309 OFFCURVE",
"709 1317 OFFCURVE",
"710 1326 CURVE SMOOTH",
"715 1450 LINE",
"674 1463 OFFCURVE",
"630 1469 OFFCURVE",
"577 1471 CURVE SMOOTH",
"518 1473 OFFCURVE",
"464.333 1462.33 OFFCURVE",
"417 1445 CURVE SMOOTH",
"369.667 1427.67 OFFCURVE",
"329.5 1402.67 OFFCURVE",
"296.5 1370 CURVE SMOOTH",
"263.5 1337.33 OFFCURVE",
"238.167 1297.67 OFFCURVE",
"220.5 1251 CURVE SMOOTH",
"202.833 1204.33 OFFCURVE",
"194 1151.67 OFFCURVE",
"194 1093 CURVE SMOOTH",
"194 1017 LINE",
"41 1017 LINE",
"41 902 LINE SMOOTH",
"41 884 OFFCURVE",
"47 870 OFFCURVE",
"59 861 CURVE SMOOTH",
"70 851 OFFCURVE",
"86 844 OFFCURVE",
"105 840 CURVE",
"194 840 LINE"
);
}
);
width = 717;
}
);
leftKerningGroup = f;
rightKerningGroup = f;
unicode = 0066;
},
{
glyphname = g;
lastChange = "2014-08-18 19:40:48 -0500";
layers = (
{
layerId = "C25503A3-518C-4CE5-B03D-46F600126290";
name = Bold;
paths = (
{
closed = 1;
nodes = (
"1013 1026 LINE",
"862 1026 LINE SMOOTH",
"829.333 1026 OFFCURVE",
"808.667 1011 OFFCURVE",
"800 981 CURVE",
"787 924 LINE",
"769.667 942.667 OFFCURVE",
"751.5 959.333 OFFCURVE",
"732.5 974 CURVE SMOOTH",
"713.5 988.667 OFFCURVE",
"692.833 1001.33 OFFCURVE",
"670.5 1012 CURVE SMOOTH",
"648.167 1022.67 OFFCURVE",
"623.833 1030.83 OFFCURVE",
"597.5 1036.5 CURVE SMOOTH",
"571.167 1042.17 OFFCURVE",
"542 1045 OFFCURVE",
"510 1045 CURVE SMOOTH",
"442.667 1045 OFFCURVE",
"382 1031.67 OFFCURVE",
"328 1005 CURVE SMOOTH",
"274 978.333 OFFCURVE",
"227.667 941.667 OFFCURVE",
"189 895 CURVE SMOOTH",
"150.333 848.333 OFFCURVE",
"120.667 793.5 OFFCURVE",
"99.9999 730.5 CURVE SMOOTH",
"79.3333 667.5 OFFCURVE",
"68.9999 599.667 OFFCURVE",
"68.9999 527 CURVE SMOOTH",
"68.9999 447 OFFCURVE",
"78.4999 375.167 OFFCURVE",
"97.4999 311.5 CURVE SMOOTH",
"116.5 247.833 OFFCURVE",
"143.5 194 OFFCURVE",
"178.5 150 CURVE SMOOTH",
"213.5 106 OFFCURVE",
"256.167 72.1666 OFFCURVE",
"306.5 48.4999 CURVE SMOOTH",
"356.833 24.8333 OFFCURVE",
"413.667 12.9999 OFFCURVE",
"477 12.9999 CURVE SMOOTH",
"509 12.9999 OFFCURVE",
"538.167 15.4999 OFFCURVE",
"564.5 20.4999 CURVE SMOOTH",
"590.833 25.4999 OFFCURVE",
"615.333 33.3333 OFFCURVE",
"638 43.9999 CURVE SMOOTH",
"660.667 54.6666 OFFCURVE",
"682.333 68.1666 OFFCURVE",
"703 84.4999 CURVE SMOOTH",
"723.667 100.833 OFFCURVE",
"744.667 120 OFFCURVE",
"766 142 CURVE",
"766 63.9999 LINE SMOOTH",
"766 30.6666 OFFCURVE",
"760.333 -1 OFFCURVE",
"749 -31 CURVE SMOOTH",
"737.667 -60 OFFCURVE",
"720.833 -86 OFFCURVE",
"698.5 -108 CURVE SMOOTH",
"676.167 -130 OFFCURVE",
"648.167 -148 OFFCURVE",
"614.5 -161 CURVE SMOOTH",
"580.833 -174 OFFCURVE",
"541.667 -180 OFFCURVE",
"497 -180 CURVE SMOOTH",
"458.333 -180 OFFCURVE",
"426.167 -176 OFFCURVE",
"400.5 -167 CURVE SMOOTH",
"374.833 -158 OFFCURVE",
"352.833 -149 OFFCURVE",
"334.5 -139 CURVE SMOOTH",
"316.167 -129 OFFCURVE",
"300.167 -120 OFFCURVE",
"286.5 -111 CURVE SMOOTH",
"272.833 -102 OFFCURVE",
"258.333 -98 OFFCURVE",
"243 -98 CURVE SMOOTH",
"227.667 -98 OFFCURVE",
"215 -101 OFFCURVE",
"205 -107 CURVE SMOOTH",
"195 -113 OFFCURVE",
"186.333 -122 OFFCURVE",
"179 -133 CURVE SMOOTH",
"122 -227 LINE",
"142 -245 OFFCURVE",
"164.833 -262 OFFCURVE",
"190.5 -278 CURVE SMOOTH",
"216.167 -293 OFFCURVE",
"244.667 -307 OFFCURVE",
"276 -319 CURVE SMOOTH",
"307.333 -331 OFFCURVE",
"342 -340 OFFCURVE",
"380 -347 CURVE SMOOTH",
"418 -354 OFFCURVE",
"459.333 -357 OFFCURVE",
"504 -357 CURVE SMOOTH",
"583.333 -357 OFFCURVE",
"654.5 -346 OFFCURVE",
"717.5 -325 CURVE SMOOTH",
"780.5 -303 OFFCURVE",
"833.833 -273 OFFCURVE",
"877.5 -235 CURVE SMOOTH",
"921.167 -196 OFFCURVE",
"954.667 -151 OFFCURVE",
"978 -98 CURVE SMOOTH",
"1001.33 -45 OFFCURVE",
"1013 13.3333 OFFCURVE",
"1013 76 CURVE SMOOTH"
);
},
{
closed = 1;
nodes = (
"473.667 208 OFFCURVE",
"419.833 233.333 OFFCURVE",
"381.5 284 CURVE SMOOTH",
"343.167 334.667 OFFCURVE",
"324 415.667 OFFCURVE",
"324 527 CURVE SMOOTH",
"324 637.667 OFFCURVE",
"346 720.333 OFFCURVE",
"390 775 CURVE SMOOTH",
"434 829.667 OFFCURVE",
"493.333 857 OFFCURVE",
"568 857 CURVE SMOOTH",
"606 857 OFFCURVE",
"641.5 850.167 OFFCURVE",
"674.5 836.5 CURVE SMOOTH",
"707.5 822.833 OFFCURVE",
"738 799 OFFCURVE",
"766 765 CURVE",
"766 331 LINE",
"734 291 OFFCURVE",
"700.833 260.5 OFFCURVE",
"666.5 239.5 CURVE SMOOTH",
"632.167 218.5 OFFCURVE",
"591 208 OFFCURVE",
"543 208 CURVE SMOOTH"
);
}
);
width = 1135;
}
);
leftKerningGroup = g.salt;
rightKerningGroup = g.salt;
unicode = 0067;
},
{
glyphname = h;
layers = (
{
layerId = "C25503A3-518C-4CE5-B03D-46F600126290";
name = Bold;
paths = (
{
closed = 1;
nodes = (
"122 0 LINE",
"369 0 LINE",
"369 742 LINE",
"402.333 775.333 OFFCURVE",
"437.667 801.667 OFFCURVE",
"475 821 CURVE SMOOTH",
"512.333 840.333 OFFCURVE",
"552.333 850 OFFCURVE",
"595 850 CURVE SMOOTH",
"653.667 850 OFFCURVE",
"697.333 832.833 OFFCURVE",
"726 798.5 CURVE SMOOTH",
"754.667 764.167 OFFCURVE",
"769 715.667 OFFCURVE",
"769 653 CURVE SMOOTH",
"769 -6 LINE",
"1016 -6 LINE",
"1016 653 LINE SMOOTH",
"1016 710.333 OFFCURVE",
"1008.5 762.833 OFFCURVE",
"993.5 810.5 CURVE SMOOTH",
"978.5 858.167 OFFCURVE",
"956.5 899.167 OFFCURVE",
"927.5 933.5 CURVE SMOOTH",
"898.5 967.833 OFFCURVE",
"862.333 994.5 OFFCURVE",
"819 1013.5 CURVE SMOOTH",
"775.667 1032.5 OFFCURVE",
"726 1042 OFFCURVE",
"670 1042 CURVE SMOOTH",
"605.333 1042 OFFCURVE",
"549 1030.33 OFFCURVE",
"501 1007 CURVE SMOOTH",
"453 983.667 OFFCURVE",
"409 953 OFFCURVE",
"369 915 CURVE",
"369 1486 LINE",
"122 1486 LINE"
);
}
);
width = 1128;
}
);
leftKerningGroup = b;
rightKerningGroup = h;
unicode = 0068;
},
{
glyphname = i;
layers = (
{
layerId = "C25503A3-518C-4CE5-B03D-46F600126290";
name = Bold;
paths = (
{
closed = 1;
nodes = (
"378 1026 LINE",
"130 1026 LINE",
"130 0 LINE",
"378 0 LINE"
);
},
{
closed = 1;
nodes = (
"412 1347 OFFCURVE",
"407.667 1367.67 OFFCURVE",
"399 1387 CURVE SMOOTH",
"390.333 1406.33 OFFCURVE",
"378.833 1423 OFFCURVE",
"364.5 1437 CURVE SMOOTH",
"350.167 1451 OFFCURVE",
"333.333 1462.17 OFFCURVE",
"314 1470.5 CURVE SMOOTH",
"294.667 1478.83 OFFCURVE",
"274 1483 OFFCURVE",
"252 1483 CURVE SMOOTH",
"230.667 1483 OFFCURVE",
"210.5 1478.83 OFFCURVE",
"191.5 1470.5 CURVE SMOOTH",
"172.5 1462.17 OFFCURVE",
"156 1451 OFFCURVE",
"142 1437 CURVE SMOOTH",
"128 1423 OFFCURVE",
"116.833 1406.33 OFFCURVE",
"108.5 1387 CURVE SMOOTH",
"100.167 1367.67 OFFCURVE",
"96 1347 OFFCURVE",
"96 1325 CURVE SMOOTH",
"96 1303.67 OFFCURVE",
"100.167 1283.67 OFFCURVE",
"108.5 1265 CURVE SMOOTH",
"116.833 1246.33 OFFCURVE",
"128 1230 OFFCURVE",
"142 1216 CURVE SMOOTH",
"156 1202 OFFCURVE",
"172.5 1190.83 OFFCURVE",
"191.5 1182.5 CURVE SMOOTH",
"210.5 1174.17 OFFCURVE",
"230.667 1170 OFFCURVE",
"252 1170 CURVE SMOOTH",
"274 1170 OFFCURVE",
"294.667 1174.17 OFFCURVE",
"314 1182.5 CURVE SMOOTH",
"333.333 1190.83 OFFCURVE",
"350.167 1202 OFFCURVE",
"364.5 1216 CURVE SMOOTH",
"378.833 1230 OFFCURVE",
"390.333 1246.33 OFFCURVE",
"399 1265 CURVE SMOOTH",
"407.667 1283.67 OFFCURVE",
"412 1303.67 OFFCURVE",
"412 1325 CURVE SMOOTH"
);
}
);
width = 508;
}
);
leftKerningGroup = i;
rightKerningGroup = i;
unicode = 0069;
},
{
glyphname = iacute;
layers = (
{
layerId = "C25503A3-518C-4CE5-B03D-46F600126290";
name = Bold;
paths = (
{
closed = 1;
nodes = (
"131 0 LINE"
);
},
{
closed = 1;
nodes = (
"378 1026 LINE",
"131 1026 LINE",
"131 0 LINE",
"378 0 LINE"
);
},
{
closed = 1;
nodes = (
"608 1462 LINE",
"368 1462 LINE SMOOTH",
"341.333 1462 OFFCURVE",
"321.333 1457.5 OFFCURVE",
"308 1448.5 CURVE SMOOTH",
"294.667 1439.5 OFFCURVE",
"283 1426.33 OFFCURVE",
"273 1409 CURVE SMOOTH",
"131 1166 LINE",
"279 1166 LINE SMOOTH",
"297.667 1166 OFFCURVE",
"312.833 1168.5 OFFCURVE",
"324.5 1173.5 CURVE SMOOTH",
"336.167 1178.5 OFFCURVE",
"348.333 1187.67 OFFCURVE",
"361 1201 CURVE SMOOTH"
);
}
);
width = 509;
}
);
leftKerningGroup = i;
rightKerningGroup = i;
unicode = 00ED;
},
{
glyphname = icircumflex;
layers = (
{
layerId = "C25503A3-518C-4CE5-B03D-46F600126290";
name = Bold;
paths = (
{
closed = 1;
nodes = (
"0 0 LINE"
);
},
{
closed = 1;
nodes = (
"377 1026 LINE",
"130 1026 LINE",
"130 0 LINE",
"377 0 LINE"
);
},
{
closed = 1;
nodes = (
"606 1168 LINE",
"377 1446 LINE",
"145 1446 LINE",
"-84 1168 LINE",
"87 1168 LINE SMOOTH",
"97 1168 OFFCURVE",
"107 1170 OFFCURVE",
"117 1174 CURVE SMOOTH",
"127 1178 OFFCURVE",
"136 1184.33 OFFCURVE",
"144 1193 CURVE SMOOTH",
"244 1297 LINE SMOOTH",
"250.667 1303.67 OFFCURVE",
"257.667 1311.67 OFFCURVE",
"265 1321 CURVE",
"271.667 1311.67 OFFCURVE",
"278.667 1303.67 OFFCURVE",
"286 1297 CURVE",
"384 1193 LINE SMOOTH",
"393.333 1183.67 OFFCURVE",
"402.833 1177.17 OFFCURVE",
"412.5 1173.5 CURVE SMOOTH",
"422.167 1169.83 OFFCURVE",
"431.667 1168 OFFCURVE",
"441 1168 CURVE SMOOTH"
);
}
);
width = 508;
}
);
leftKerningGroup = i;
rightKerningGroup = i;
unicode = 00EE;
},
{
glyphname = idieresis;
layers = (
{
layerId = "C25503A3-518C-4CE5-B03D-46F600126290";
name = Bold;
paths = (
{
closed = 1;
nodes = (
"0 0 LINE"
);
},
{
closed = 1;
nodes = (
"377 1026 LINE",
"130 1026 LINE",
"130 0 LINE",
"377 0 LINE"
);
},
{
closed = 1;
nodes = (
"229 1311.33 OFFCURVE",
"225.333 1329.5 OFFCURVE",
"218 1346.5 CURVE SMOOTH",
"210.667 1363.5 OFFCURVE",
"200.5 1378.33 OFFCURVE",
"187.5 1391 CURVE SMOOTH",
"174.5 1403.67 OFFCURVE",
"159.5 1413.67 OFFCURVE",
"142.5 1421 CURVE SMOOTH",
"125.5 1428.33 OFFCURVE",
"107.667 1432 OFFCURVE",
"89 1432 CURVE SMOOTH",
"71 1432 OFFCURVE",
"53.8333 1428.33 OFFCURVE",
"37.5 1421 CURVE SMOOTH",
"21.1667 1413.67 OFFCURVE",
"6.66667 1403.67 OFFCURVE",
"-6 1391 CURVE SMOOTH",
"-19 1378.33 OFFCURVE",
"-29 1363.5 OFFCURVE",
"-36 1346.5 CURVE SMOOTH",
"-43 1329.5 OFFCURVE",
"-47 1311.33 OFFCURVE",
"-47 1292 CURVE SMOOTH",
"-47 1273.33 OFFCURVE",
"-43 1255.83 OFFCURVE",
"-36 1239.5 CURVE SMOOTH",
"-29 1223.17 OFFCURVE",
"-19 1209 OFFCURVE",
"-6 1197 CURVE SMOOTH",
"6.66667 1185 OFFCURVE",
"21.1667 1175.5 OFFCURVE",
"37.5 1168.5 CURVE SMOOTH",
"53.8333 1161.5 OFFCURVE",
"71 1158 OFFCURVE",
"89 1158 CURVE SMOOTH",
"107.667 1158 OFFCURVE",
"125.5 1161.5 OFFCURVE",
"142.5 1168.5 CURVE SMOOTH",
"159.5 1175.5 OFFCURVE",
"174.5 1185 OFFCURVE",
"187.5 1197 CURVE SMOOTH",
"200.5 1209 OFFCURVE",
"210.667 1223.17 OFFCURVE",
"218 1239.5 CURVE SMOOTH",
"225.333 1255.83 OFFCURVE",
"229 1273.33 OFFCURVE",
"229 1292 CURVE SMOOTH"
);
},
{
closed = 1;
nodes = (
"569 1311.33 OFFCURVE",
"565.333 1329.5 OFFCURVE",
"558 1346.5 CURVE SMOOTH",
"550.667 1363.5 OFFCURVE",
"540.833 1378.33 OFFCURVE",
"528.5 1391 CURVE SMOOTH",
"516.167 1403.67 OFFCURVE",
"501.5 1413.67 OFFCURVE",
"484.5 1421 CURVE SMOOTH",
"467.5 1428.33 OFFCURVE",
"449.333 1432 OFFCURVE",
"430 1432 CURVE SMOOTH",
"411.333 1432 OFFCURVE",
"393.667 1428.33 OFFCURVE",
"377 1421 CURVE SMOOTH",
"360.333 1413.67 OFFCURVE",
"345.833 1403.67 OFFCURVE",
"333.5 1391 CURVE SMOOTH",
"321.167 1378.33 OFFCURVE",
"311.333 1363.5 OFFCURVE",
"304 1346.5 CURVE SMOOTH",
"296.667 1329.5 OFFCURVE",
"293 1311.33 OFFCURVE",
"293 1292 CURVE SMOOTH",
"293 1273.33 OFFCURVE",
"296.667 1255.83 OFFCURVE",
"304 1239.5 CURVE SMOOTH",
"311.333 1223.17 OFFCURVE",
"321.167 1209 OFFCURVE",
"333.5 1197 CURVE SMOOTH",
"345.833 1185 OFFCURVE",
"360.333 1175.5 OFFCURVE",
"377 1168.5 CURVE SMOOTH",
"393.667 1161.5 OFFCURVE",
"411.333 1158 OFFCURVE",
"430 1158 CURVE SMOOTH",
"449.333 1158 OFFCURVE",
"467.5 1161.5 OFFCURVE",
"484.5 1168.5 CURVE SMOOTH",
"501.5 1175.5 OFFCURVE",
"516.167 1185 OFFCURVE",
"528.5 1197 CURVE SMOOTH",
"540.833 1209 OFFCURVE",
"550.667 1223.17 OFFCURVE",
"558 1239.5 CURVE SMOOTH",
"565.333 1255.83 OFFCURVE",
"569 1273.33 OFFCURVE",
"569 1292 CURVE SMOOTH"
);
}
);
width = 508;
}
);
leftKerningGroup = i;
rightKerningGroup = i;
unicode = 00EF;
},
{
glyphname = igrave;
layers = (
{
layerId = "C25503A3-518C-4CE5-B03D-46F600126290";
name = Bold;
paths = (
{
closed = 1;
nodes = (
"0 0 LINE"
);
},
{
closed = 1;
nodes = (
"377 1026 LINE",
"130 1026 LINE",
"130 0 LINE",
"377 0 LINE"
);
},
{
closed = 1;
nodes = (
"-59 1462 LINE",
"188 1201 LINE SMOOTH",
"200 1187.67 OFFCURVE",
"211.833 1178.5 OFFCURVE",
"223.5 1173.5 CURVE SMOOTH",
"235.167 1168.5 OFFCURVE",
"250.333 1166 OFFCURVE",
"269 1166 CURVE SMOOTH",
"410 1166 LINE",
"267 1409 LINE",
"257.667 1426.33 OFFCURVE",
"246.333 1439.5 OFFCURVE",
"233 1448.5 CURVE SMOOTH",
"219.667 1457.5 OFFCURVE",
"199.333 1462 OFFCURVE",
"172 1462 CURVE SMOOTH"
);
}
);
width = 508;
}
);
leftKerningGroup = i;
rightKerningGroup = i;
unicode = 00EC;
},
